<svg xmlns="http://www.w3.org/2000/svg" width="40" height="40" fill="none"><mask id="a" width="40" height="40" x="0" y="0" maskUnits="userSpaceOnUse" style="mask-type:luminance"><path fill="#fff" d="M0 0h40v40H0V0Z"/></mask><g mask="url(#a)"><path stroke="#333" stroke-linecap="round" stroke-linejoin="round" stroke-miterlimit="10" d="M18.171 35.911h17.463c.96 0 1.74-.779 1.74-1.74V27.43M16.321.586H11.58c-.96 0-1.74.779-1.74 1.74V13.84M37.373 24.759V2.325c0-.96-.778-1.74-1.739-1.74H18.991"/><path stroke="#333" stroke-linecap="round" stroke-linejoin="round" stroke-miterlimit="10" d="M34 10.546H13.214V4.787H34v5.76ZM19.105 14.86c.193-.333.554-.557.968-.557h1.45a1.12 1.12 0 0 1 0 2.238h-.982M27.141 16.541h-1.45a1.12 1.12 0 1 1 0-2.238h1.45a1.12 1.12 0 1 1 0 2.238ZM32.76 16.541h-1.451a1.12 1.12 0 0 1 0-2.238h1.45a1.12 1.12 0 0 1 0 2.238ZM20.385 20h1.138a1.12 1.12 0 0 1 0 2.239h-1.45a1.12 1.12 0 0 1-1.12-1.12M27.141 22.239h-1.45a1.12 1.12 0 1 1 0-2.239h1.45a1.12 1.12 0 1 1 0 2.239ZM32.76 22.239h-1.451a1.12 1.12 0 0 1 0-2.239h1.45a1.12 1.12 0 0 1 0 2.239ZM18.953 25.698c0-.618.501-1.12 1.12-1.12h1.45a1.12 1.12 0 1 1 0 2.239H20.23M27.141 26.817h-1.45a1.12 1.12 0 0 1 0-2.239h1.45a1.12 1.12 0 1 1 0 2.239ZM32.76 26.817h-1.451a1.12 1.12 0 0 1 0-2.239h1.45a1.12 1.12 0 0 1 0 2.239ZM20.541 29.157h.982a1.12 1.12 0 0 1 0 2.238H20.23M27.141 31.395h-1.45a1.12 1.12 0 1 1 0-2.238h1.45a1.12 1.12 0 1 1 0 2.238ZM32.76 31.395h-1.451a1.12 1.12 0 0 1 0-2.238h1.45a1.12 1.12 0 0 1 0 2.238ZM2.627 33.603v3.271c0 1.235 2.697 2.264 6.272 2.493M11.57 39.385c3.737-.184 6.601-1.238 6.601-2.51v-3.272"/><path stroke="#333" stroke-linecap="round" stroke-linejoin="round" stroke-miterlimit="10" d="M17.705 32.734c.302.271.466.564.466.869 0 1.402-3.48 2.54-7.772 2.54-4.293 0-7.772-1.138-7.772-2.54 0-.757 1.011-1.436 2.617-1.9"/><path stroke="#333" stroke-linecap="round" stroke-linejoin="round" stroke-miterlimit="10" d="M4.835 27.443v3.271c0 1.403 3.48 2.54 7.773 2.54 4.292 0 7.772-1.137 7.772-2.54v-3.271"/><path stroke="#333" stroke-linecap="round" stroke-linejoin="round" stroke-miterlimit="10" d="M17.733 25.533c1.622.466 2.647 1.149 2.647 1.91 0 1.402-3.48 2.54-7.772 2.54-4.293 0-7.773-1.138-7.773-2.54 0-.31.17-.607.48-.88"/><path stroke="#333" stroke-linecap="round" stroke-linejoin="round" stroke-miterlimit="10" d="M2.627 21.283v3.271c0 1.403 3.48 2.54 7.772 2.54 4.293 0 7.772-1.137 7.772-2.54v-3.012"/><path stroke="#333" stroke-linecap="round" stroke-linejoin="round" stroke-miterlimit="10" d="M18.131 21.542c-.398 1.281-3.708 2.28-7.732 2.28-4.293 0-7.772-1.137-7.772-2.54 0-.651.751-1.245 1.986-1.695"/><path stroke="#333" stroke-linecap="round" stroke-linejoin="round" stroke-miterlimit="10" d="M4.835 16.38v3.272c0 1.403 3.48 2.54 7.773 2.54 4.292 0 7.772-1.137 7.772-2.54V16.38"/><path stroke="#333" stroke-linecap="round" stroke-linejoin="round" stroke-miterlimit="10" d="M20.38 16.38c0 1.403-3.48 2.54-7.772 2.54-4.293 0-7.773-1.137-7.773-2.54 0-1.402 3.48-2.54 7.773-2.54 4.292 0 7.772 1.138 7.772 2.54ZM5.376 12.154h1.981M5.376 10.338h1.981M7.361 8.324h-.008"/></g></svg>