<svg xmlns="http://www.w3.org/2000/svg" width="219" height="66" fill="none"><path fill="#333" d="M88.61 33.869h4.86l-5.893-17.182h-5.455l-5.88 17.182h4.422l1.13-3.775h5.722l1.093 3.775Zm-4.046-13.312h.23l1.884 6.394h-4.034l1.92-6.394ZM96.152 33.869h4.289V15.65h-4.289V33.87ZM104.997 17.58v3.215h-2.077v3.131h2.077v6.311c0 2.596 1.398 3.655 4.957 3.655.815 0 1.604-.07 2.053-.166v-3c-.316.035-.583.059-1.081.059-1.117 0-1.64-.488-1.64-1.489v-5.37h2.721v-3.131h-2.721V17.58h-4.289ZM120.876 23.295c1.433 0 2.332.917 2.405 2.465h-4.908c.109-1.5 1.093-2.465 2.503-2.465Zm2.562 6.668c-.291.774-1.153 1.227-2.404 1.227-1.64 0-2.649-1.072-2.686-2.799v-.214h9.1V27.01c0-4.227-2.43-6.703-6.597-6.703-4.191 0-6.73 2.655-6.73 7.025 0 4.346 2.478 6.846 6.791 6.846 3.499 0 5.977-1.631 6.451-4.215h-3.925ZM130.121 33.869h4.288v-7.014c0-1.845 1.264-2.893 3.159-2.893.657 0 1.518.107 1.847.238v-3.584c-.316-.13-.984-.202-1.556-.202-1.688 0-3 1.048-3.328 2.381h-.231v-2.179h-4.179V33.87ZM141.734 33.869h4.289v-7.573c0-1.524.838-2.548 2.235-2.548 1.458 0 2.126.893 2.126 2.5v7.62h4.3v-8.56c0-3.18-1.566-5.001-4.58-5.001-1.955 0-3.365.964-3.96 2.464h-.231v-2.155h-4.179V33.87ZM163.166 31.13c-1.081 0-1.799-.524-1.799-1.37 0-.797.669-1.285 1.945-1.38l2.271-.143v.869c0 1.143-1.057 2.024-2.417 2.024Zm-1.567 2.941c1.713 0 3.195-.714 3.802-1.845h.231v1.643h4.179V24.83c0-2.857-2.126-4.524-5.855-4.524-3.657 0-6.05 1.595-6.245 4.167h3.864c.278-.702 1.008-1.071 2.137-1.071 1.191 0 1.871.535 1.871 1.428v1.036l-2.952.167c-3.487.202-5.406 1.607-5.406 4.024 0 2.43 1.774 4.013 4.374 4.013ZM174.148 17.58v3.215h-2.078v3.131h2.078v6.311c0 2.596 1.397 3.655 4.957 3.655.814 0 1.603-.07 2.053-.166v-3c-.316.035-.584.059-1.081.059-1.118 0-1.64-.488-1.64-1.489v-5.37h2.721v-3.131h-2.721V17.58h-4.289ZM183.989 33.869h4.3V20.616h-4.3V33.87Zm2.15-15.027c1.251 0 2.284-.964 2.284-2.19 0-1.227-1.033-2.204-2.284-2.204s-2.284.977-2.284 2.203c0 1.227 1.033 2.191 2.284 2.191ZM204.519 20.616H200l-2.296 9.478h-.231l-2.344-9.478H190.5l4.555 13.253h4.957l4.507-13.253ZM212.212 23.295c1.433 0 2.332.917 2.404 2.465h-4.907c.109-1.5 1.093-2.465 2.503-2.465Zm2.563 6.668c-.292.774-1.154 1.227-2.405 1.227-1.64 0-2.649-1.072-2.686-2.799v-.214h9.1V27.01c0-4.227-2.43-6.703-6.597-6.703-4.191 0-6.73 2.655-6.73 7.025 0 4.346 2.478 6.846 6.791 6.846 3.499 0 5.977-1.631 6.451-4.215h-3.924ZM131.212 50.334c1.956 0 3.396-1.131 3.639-2.828h-1.355c-.243.97-1.123 1.584-2.284 1.584-1.579 0-2.563-1.256-2.563-3.257 0-2.006.984-3.262 2.557-3.262 1.154 0 2.035.678 2.29 1.732h1.355c-.219-1.75-1.713-2.977-3.645-2.977-2.436 0-3.948 1.721-3.948 4.507 0 2.78 1.519 4.501 3.954 4.501ZM143.239 41.326c-2.515 0-4.094 1.727-4.094 4.501 0 2.769 1.542 4.507 4.094 4.507 2.533 0 4.088-1.744 4.088-4.507 0-2.768-1.567-4.5-4.088-4.5Zm0 1.245c1.658 0 2.697 1.262 2.697 3.256 0 1.983-1.033 3.263-2.697 3.263-1.689 0-2.703-1.28-2.703-3.263 0-1.994 1.045-3.256 2.703-3.256ZM160.904 50.126v-8.591h-1.591l-2.795 6.573h-.103l-2.788-6.573h-1.592v8.59h1.264v-6.203h.085l2.569 6.001h1.033l2.57-6h.084v6.203h1.264ZM174.834 50.126v-8.591h-1.592l-2.794 6.572h-.103l-2.789-6.572h-1.591v8.59h1.264v-6.203h.085l2.569 6.001h1.033l2.569-6h.085v6.203h1.264ZM185.459 48.911h-4.203v-2.578h3.978v-1.155h-3.978V42.75h4.203v-1.214h-5.564v8.59h5.564v-1.214ZM191.647 42.708h1.92c1.051 0 1.695.565 1.695 1.5 0 .959-.608 1.506-1.659 1.506h-1.956v-3.006Zm0 4.143h1.92l1.786 3.275h1.573l-1.968-3.495c1.069-.357 1.701-1.298 1.701-2.453 0-1.613-1.136-2.643-2.904-2.643h-3.468v8.59h1.36v-3.274ZM205.054 50.334c1.956 0 3.396-1.131 3.638-2.828h-1.354c-.243.97-1.124 1.584-2.284 1.584-1.579 0-2.564-1.256-2.564-3.257 0-2.006.985-3.262 2.558-3.262 1.154 0 2.035.678 2.29 1.732h1.354c-.218-1.75-1.713-2.977-3.644-2.977-2.436 0-3.948 1.721-3.948 4.507 0 2.78 1.518 4.501 3.954 4.501ZM218.91 48.911h-4.204v-2.578h3.979v-1.155h-3.979V42.75h4.204v-1.214h-5.564v8.59h5.564v-1.214ZM17.719 28.966 0 44.73l7.183 2.287 10.536-18.05ZM41.414 57.916l20.634 6.57-1.398-6.57H41.415ZM53.449 24.061 48.64 1.458l-5.52 4.91L53.45 24.061Z"/><path fill="#019AD2" fill-rule="evenodd" d="M37.015 0 4.395 55.883h65.24L37.015 0Zm0 20.461L22.269 45.723H51.76L37.015 20.46Z" clip-rule="evenodd"/></svg>