<svg xmlns="http://www.w3.org/2000/svg" width="81" height="80" fill="none"><path fill="#50AB09" d="M57.64 75.681c-1.85 0-3.749-.475-5.532-1.426-7.725-4.116-15.492-4.116-23.215 0-3.59 1.915-7.647 1.898-10.855-.046-3.595-2.062-6.07-5.919-6.593-10.304-.527-4.414.922-8.606 3.98-11.505a13.884 13.884 0 0 1 6.486-3.672c1.966-.444 3.601-1.818 4.508-3.773.255-.461.426-.914.585-1.514C28.452 37.92 34.76 33.076 40.5 33.076s12.047 4.844 13.496 10.367c.159.598.33 1.05.541 1.426.952 2.042 2.586 3.415 4.527 3.853a13.915 13.915 0 0 1 6.537 3.704c3.031 2.873 4.481 7.065 3.954 11.479-.524 4.384-2.998 8.241-6.619 10.319a10.175 10.175 0 0 1-5.296 1.457ZM40.5 68.653c4.254 0 8.556 1.142 12.785 3.396 2.804 1.495 5.938 1.505 8.381.022 2.965-1.701 4.977-4.858 5.408-8.462.432-3.622-.742-7.045-3.219-9.395a11.438 11.438 0 0 0-5.366-3.059c-2.68-.604-4.939-2.483-6.175-5.148-.274-.477-.52-1.118-.734-1.928-1.169-4.452-6.449-8.503-11.079-8.503-4.63 0-9.911 4.053-11.078 8.502-.214.81-.46 1.452-.778 2.016-1.192 2.577-3.453 4.456-6.157 5.066a11.388 11.388 0 0 0-5.316 3.028c-2.503 2.374-3.676 5.798-3.245 9.42.432 3.602 2.443 6.76 5.383 8.446 2.469 1.496 5.603 1.49 8.408-.007 4.228-2.253 8.53-3.396 12.784-3.396l-.002.002ZM29.848 27.167c-2.35 0-4.322-.493-5.874-1.473-2.193-1.384-3.418-3.629-3.643-6.671-.223-3.014.583-6.502 2.158-9.33 1.806-3.243 4.302-5.142 7.028-5.343 2.798-.212 7.58 1.093 8.394 12.098.249 3.36-.027 5.608-.9 7.292-1.051 2.031-3.005 3.168-5.807 3.375-.465.035-.918.053-1.357.053Zm.177-20.336c-.108 0-.216.004-.324.012-1.832.136-3.666 1.617-5.029 4.066-1.345 2.418-2.036 5.382-1.848 7.928.166 2.24.978 3.79 2.483 4.742 1.36.858 3.34 1.215 5.71 1.042 2.51-.186 3.334-1.182 3.773-2.031.639-1.232.837-3.126.627-5.96-.333-4.509-1.544-9.801-5.392-9.801v.002ZM12.466 45.806c-1.156 0-2.221-.177-3.19-.532-2.434-.894-4.102-2.831-4.961-5.759-.85-2.9-.793-6.48.155-9.574 1.085-3.551 3.129-5.93 5.754-6.698 1.851-.544 4.585-.557 7.104 2.466 1.445 1.735 2.67 4.292 3.64 7.604 1.327 4.53 2.036 9.972-4.324 11.836-1.496.438-2.893.657-4.178.657Zm-.364-20.343a4.174 4.174 0 0 0-1.175.178c-1.763.518-3.246 2.352-4.066 5.032-.809 2.646-.864 5.688-.145 8.14.631 2.154 1.75 3.5 3.423 4.114 1.51.554 3.516.494 5.802-.177 3.099-.909 4.434-2.569 2.628-8.735-.86-2.939-1.953-5.258-3.16-6.706-1.035-1.243-2.107-1.847-3.305-1.847h-.002Zm56.433 20.343c-1.284 0-2.681-.218-4.177-.657-6.36-1.864-5.652-7.305-4.324-11.837.97-3.31 2.195-5.868 3.64-7.603 2.517-3.023 5.252-3.009 7.104-2.466 2.624.768 4.667 3.147 5.753 6.698.948 3.095 1.005 6.674.155 9.574-.859 2.928-2.526 4.865-4.961 5.759-.968.355-2.034.532-3.19.532Zm.364-20.343c-1.199 0-2.269.603-3.305 1.846-1.208 1.45-2.3 3.768-3.16 6.706-1.806 6.166-.471 7.826 2.627 8.735 2.285.67 4.293.731 5.803.178 1.672-.614 2.791-1.96 3.422-4.115.719-2.45.664-5.494-.145-8.14-.82-2.68-2.302-4.514-4.066-5.032a4.187 4.187 0 0 0-1.176-.178Zm-17.745 1.704c-.439 0-.89-.017-1.355-.052-2.803-.207-4.758-1.342-5.808-3.375-.871-1.684-1.148-3.932-.9-7.292.813-11.005 5.619-12.312 8.393-12.098 2.727.201 5.224 2.1 7.03 5.344 1.575 2.827 2.38 6.315 2.157 9.329-.225 3.042-1.45 5.286-3.642 6.67-1.553.98-3.525 1.474-5.875 1.474Zm-.178-20.336c-3.849 0-5.06 5.292-5.392 9.802-.21 2.833-.012 4.727.627 5.96.439.847 1.264 1.845 3.774 2.03 2.373.172 4.349-.184 5.709-1.042 1.505-.951 2.317-2.501 2.483-4.741.188-2.546-.502-5.51-1.848-7.929-1.364-2.448-3.198-3.931-5.03-4.066a4.707 4.707 0 0 0-.323-.011V6.83Z"/></svg>