<svg xmlns="http://www.w3.org/2000/svg" width="40" height="40" fill="none"><g fill="#333" clip-path="url(#a)"><path d="M33.92 14.13a26.722 26.722 0 0 0-2.402-.79c.218-.849.392-1.676.518-2.473.655-4.15-.069-7.06-2.036-8.197-.572-.33-1.23-.497-1.953-.497-2.288 0-5.18 1.699-8.096 4.568a26.772 26.772 0 0 0-1.915-1.716C14.77 2.383 11.887 1.555 9.92 2.69 8.656 3.42 7.887 4.91 7.697 7a.638.638 0 1 0 1.27.117c.106-1.157.468-2.673 1.591-3.321 1.457-.841 3.89-.031 6.676 2.221.607.492 1.218 1.04 1.826 1.637a41.338 41.338 0 0 0-3.61 4.455 41.066 41.066 0 0 0-5.811.932A23.184 23.184 0 0 1 9 9.566a.637.637 0 1 0-1.27.125c.113 1.147.34 2.38.674 3.671-.817.23-1.594.486-2.325.767C2.16 15.637 0 17.72 0 19.991c0 2.272 2.16 4.353 6.08 5.861.753.29 1.557.553 2.402.789-.218.85-.392 1.677-.518 2.474-.655 4.15.069 7.06 2.036 8.196.572.33 1.23.498 1.953.498 2.262 0 5.113-1.66 7.995-4.47a26.664 26.664 0 0 0 1.856 1.657c2.311 1.87 4.43 2.831 6.169 2.831.718 0 1.372-.164 1.947-.496 1.967-1.136 2.69-4.047 2.036-8.196-.126-.797-.3-1.625-.518-2.474a24.53 24.53 0 0 0 3.593-1.273.638.638 0 1 0-.527-1.163c-1.014.46-2.16.864-3.408 1.208a41.067 41.067 0 0 0-2.04-5.346 41.254 41.254 0 0 0 2.123-5.526c4.737 1.326 7.544 3.421 7.544 5.43 0 1.297-1.131 2.368-2.08 3.038a.638.638 0 0 0 .735 1.043C39.093 22.862 40 21.45 40 19.99c0-2.272-2.16-4.354-6.08-5.862ZM28.047 3.45c.497 0 .94.11 1.315.326 1.456.84 1.971 3.353 1.413 6.892a25.52 25.52 0 0 1-.493 2.355 41.265 41.265 0 0 0-5.832-.923 41.171 41.171 0 0 0-3.607-4.447c.226-.222.453-.439.678-.647 2.49-2.293 4.807-3.557 6.526-3.557Zm-8.094 5.119a38.737 38.737 0 0 1 2.836 3.412 51.337 51.337 0 0 0-5.67.005 39.51 39.51 0 0 1 2.834-3.417Zm-.004 22.95a38.627 38.627 0 0 1-2.935-3.53 51.112 51.112 0 0 0 5.869.005 39.263 39.263 0 0 1-2.934 3.524Zm.051-4.72c-1.372 0-2.688-.053-3.942-.151a49.516 49.516 0 0 1-3.792-6.566 49.384 49.384 0 0 1 3.895-6.756A50.399 50.399 0 0 1 20 13.182c1.3 0 2.55.048 3.744.137a49.45 49.45 0 0 1 2.072 3.287 49.452 49.452 0 0 1 1.83 3.479 49.59 49.59 0 0 1-3.803 6.564c-1.253.099-2.539.15-3.843.15Zm-5.584-.31a38.157 38.157 0 0 1-4.358-.75 38.56 38.56 0 0 1 1.526-4.153 50.617 50.617 0 0 0 2.832 4.902Zm.101-13.008a50.984 50.984 0 0 0-2.938 5.1 39.16 39.16 0 0 1-1.6-4.32 38.156 38.156 0 0 1 4.538-.78Zm-13.24 6.51c0-1.998 2.777-4.081 7.468-5.409a41.664 41.664 0 0 0 2.111 5.502 41.053 41.053 0 0 0-2.035 5.337c-4.737-1.327-7.544-3.422-7.544-5.43Zm10.677 16.541c-.498 0-.94-.11-1.316-.326-1.456-.841-1.971-3.353-1.413-6.892.12-.758.285-1.546.493-2.355a41.05 41.05 0 0 0 5.631.904 41.138 41.138 0 0 0 3.705 4.566c-.192.187-.384.37-.575.546-2.49 2.294-4.807 3.557-6.525 3.557Zm18.741-7.198c.558 3.539.043 6.05-1.413 6.891-1.457.841-3.89.032-6.675-2.221a25.441 25.441 0 0 1-1.763-1.575 41.174 41.174 0 0 0 3.707-4.56c1.995-.183 3.9-.484 5.65-.894.209.81.374 1.6.494 2.359Zm-.836-3.588a39.183 39.183 0 0 1-4.37.745 51.142 51.142 0 0 0 2.839-4.905 38.567 38.567 0 0 1 1.53 4.16Zm-1.525-7.161a51.173 51.173 0 0 0-2.95-5.115c1.647.183 3.172.446 4.558.773a38.769 38.769 0 0 1-1.608 4.342Z"/><path d="M20 16.8a3.195 3.195 0 0 0-3.192 3.19A3.195 3.195 0 0 0 20 23.183a3.195 3.195 0 0 0 3.192-3.191A3.195 3.195 0 0 0 20 16.799Zm0 5.106a1.917 1.917 0 0 1-1.915-1.915c0-1.056.86-1.915 1.915-1.915 1.056 0 1.915.859 1.915 1.915s-.86 1.915-1.915 1.915Z"/></g><defs><clipPath id="a"><path fill="#fff" d="M0 0h40v40H0z"/></clipPath></defs></svg>