<svg xmlns="http://www.w3.org/2000/svg" width="80" height="80" fill="none"><path fill="#50AB09" d="M75.715 24.047h-2.688v-2.35a3.039 3.039 0 0 0-3.034-3.036H51.67a14.975 14.975 0 0 0-23.344 0H10.003a3.038 3.038 0 0 0-3.034 3.035v2.35H4.285a3.038 3.038 0 0 0-3.035 3.036v45.604a3.038 3.038 0 0 0 3.035 3.034h30.927l1.068 1.591a1.25 1.25 0 0 0 1.038.553h5.364a1.25 1.25 0 0 0 1.039-.554l1.063-1.59h30.931a3.038 3.038 0 0 0 3.035-3.034V27.082a3.038 3.038 0 0 0-3.035-3.035ZM9.469 65.263h25.143a4.142 4.142 0 0 1 3.891 2.734 3.842 3.842 0 0 0-1.11-.163h-27.39a.542.542 0 0 1-.535-.535v-2.036Zm30.529-49.696a12.509 12.509 0 0 1 12.494 12.494c0 3.936-1.767 6.658-3.638 9.54-1.292 1.989-2.62 4.04-3.417 6.55h-1.562v-8.26c0-.092-.01-.185-.031-.276a4.129 4.129 0 0 0-.922-8.153 1.25 1.25 0 0 0 0 2.5 1.63 1.63 0 1 1 0 3.258H37.08a1.63 1.63 0 1 1 0-3.258 1.25 1.25 0 1 0 0-2.5 4.129 4.129 0 0 0-.922 8.153 1.25 1.25 0 0 0-.032.277v8.26H34.56c-.795-2.513-2.125-4.565-3.417-6.555-1.871-2.88-3.638-5.601-3.638-9.536a12.508 12.508 0 0 1 12.494-12.494Zm5.132 33.506-.002.106h-10.26c0-.035-.003-.07-.003-.106v-2.422h10.266v2.422Zm-.713 2.606a5.128 5.128 0 0 1-8.839 0h8.84ZM38.612 35.72h2.776a1.251 1.251 0 0 0-.014.172v8.26h-2.748v-8.26a1.25 1.25 0 0 0-.014-.172ZM10.003 21.161H26.69a14.902 14.902 0 0 0-1.685 6.9c0 4.675 2.054 7.839 4.04 10.898 1.375 2.116 2.674 4.116 3.321 6.599v3.516a7.633 7.633 0 0 0 15.266 0v-3.516c.648-2.481 1.947-4.481 3.32-6.596 1.987-3.06 4.041-6.225 4.041-10.901a14.9 14.9 0 0 0-1.684-6.9h16.685a.535.535 0 0 1 .534.535v41.067H45.384a6.602 6.602 0 0 0-4.136 1.453v-4.07a1.25 1.25 0 0 0-2.5 0v4.07a6.603 6.603 0 0 0-4.136-1.453H9.469V21.696a.542.542 0 0 1 .534-.535Zm60.524 44.102V67.3a.535.535 0 0 1-.534.535H42.602c-.376 0-.75.055-1.11.163a4.143 4.143 0 0 1 3.891-2.735h25.144Zm5.723 7.422a.542.542 0 0 1-.535.535H44.117a1.25 1.25 0 0 0-1.039.555l-1.064 1.59h-4.03l-1.068-1.591a1.25 1.25 0 0 0-1.037-.554H4.285a.536.536 0 0 1-.535-.534V27.082a.536.536 0 0 1 .535-.535h2.684V67.3a3.039 3.039 0 0 0 3.034 3.035h27.39a1.356 1.356 0 0 1 1.355 1.354 1.25 1.25 0 1 0 2.5 0 1.373 1.373 0 0 1 1.355-1.354h27.39a3.039 3.039 0 0 0 3.035-3.035V26.547h2.688a.542.542 0 0 1 .534.535v45.604ZM13.377 33.864a1.25 1.25 0 0 1 1.25-1.25h7.884a1.25 1.25 0 0 1 0 2.5h-7.884a1.25 1.25 0 0 1-1.25-1.25Zm0 5.4a1.25 1.25 0 0 1 1.25-1.25H25.16a1.25 1.25 0 1 1 0 2.5H14.627a1.25 1.25 0 0 1-1.25-1.25Zm0 5.399a1.25 1.25 0 0 1 1.25-1.25h13.775a1.25 1.25 0 1 1 0 2.5H14.627a1.25 1.25 0 0 1-1.25-1.25Zm0 5.395a1.25 1.25 0 0 1 1.25-1.25h14.346a1.25 1.25 0 1 1 0 2.5H14.627a1.25 1.25 0 0 1-1.25-1.25Zm0 5.399a1.25 1.25 0 0 1 1.25-1.25h16.335a1.25 1.25 0 0 1 0 2.5H14.627a1.25 1.25 0 0 1-1.25-1.25ZM56.24 33.863a1.25 1.25 0 0 1 1.25-1.25h7.88a1.25 1.25 0 0 1 0 2.5h-7.88a1.25 1.25 0 0 1-1.25-1.25Zm-2.649 5.4a1.25 1.25 0 0 1 1.25-1.25h10.528a1.25 1.25 0 1 1 0 2.5H54.84a1.25 1.25 0 0 1-1.25-1.25Zm-3.242 5.399a1.25 1.25 0 0 1 1.25-1.25h13.77a1.25 1.25 0 0 1 0 2.5h-13.77a1.25 1.25 0 0 1-1.25-1.25Zm-.571 5.395a1.25 1.25 0 0 1 1.25-1.25h14.341a1.25 1.25 0 0 1 0 2.5H51.027a1.25 1.25 0 0 1-1.25-1.25Zm-1.994 5.399a1.25 1.25 0 0 1 1.25-1.25h16.335a1.25 1.25 0 0 1 0 2.5H49.033a1.25 1.25 0 0 1-1.25-1.25ZM15.951 26.187a1.25 1.25 0 0 1 1.25-1.25h3.175a1.25 1.25 0 1 1 0 2.5h-3.175a1.25 1.25 0 0 1-1.25-1.25ZM52.97 14.47a1.25 1.25 0 0 1-.884-2.133l3.149-3.154a1.25 1.25 0 0 1 1.769 1.766l-3.15 3.154a1.248 1.248 0 0 1-.884.367ZM39.998 9.597a1.25 1.25 0 0 1-1.25-1.25V3.386a1.25 1.25 0 0 1 2.5 0v4.96a1.25 1.25 0 0 1-1.25 1.25Zm-13.853 4.506-3.153-3.154a1.25 1.25 0 0 1 1.767-1.768l3.154 3.154a1.25 1.25 0 0 1-1.768 1.768Zm32.229 12.085a1.25 1.25 0 0 1 1.25-1.25h3.175a1.25 1.25 0 1 1 0 2.5h-3.175a1.25 1.25 0 0 1-1.25-1.25Z"/></svg>