<svg xmlns="http://www.w3.org/2000/svg" width="232" height="66" fill="none"><g fill="#2D3037"><path d="M96.34 29.782c0-1.23-.457-2.082-1.37-2.556-.915-.476-2.134-.714-3.656-.714h-3.948v6.792h3.989c.553 0 1.127-.049 1.724-.147a5.365 5.365 0 0 0 1.62-.524 3.132 3.132 0 0 0 1.184-1.07c.305-.46.457-1.054.457-1.78Zm-.955-11.78c0-1.007-.381-1.74-1.143-2.201-.762-.461-1.89-.692-3.386-.692h-3.49v6.121h3.822c1.33 0 2.36-.271 3.096-.816.733-.547 1.1-1.348 1.1-2.412Zm8.059 12.45c0 1.623-.318 2.985-.955 4.088a7.627 7.627 0 0 1-2.535 2.663c-1.052.67-2.25 1.153-3.592 1.446-1.345.294-2.722.44-4.135.44H80.512V9.41h11.715c1.135 0 2.298.117 3.49.355 1.191.238 2.271.644 3.24 1.216a6.88 6.88 0 0 1 2.369 2.327c.608.978.914 2.221.914 3.73 0 1.65-.444 3.012-1.329 4.088-.888 1.076-2.05 1.853-3.49 2.327v.083c.83.141 1.613.4 2.347.776.733.377 1.37.86 1.91 1.448.541.586.97 1.27 1.288 2.053.318.782.478 1.663.478 2.64ZM124.559 18.506c0-.7-.147-1.265-.44-1.699a3.011 3.011 0 0 0-1.126-1.006 4.92 4.92 0 0 0-1.545-.482 11.298 11.298 0 0 0-1.649-.126H116v6.918h3.381c.585 0 1.183-.049 1.796-.147a5.791 5.791 0 0 0 1.67-.522 3.202 3.202 0 0 0 1.231-1.092c.32-.476.481-1.09.481-1.844Zm.29 20.583-6.386-11.78h-2.422v11.78h-6.938V9.41h11.217c1.413 0 2.792.146 4.134.44 1.343.292 2.549.788 3.615 1.488a7.78 7.78 0 0 1 2.556 2.766c.636 1.147.955 2.572.955 4.276 0 2.012-.54 3.704-1.621 5.073-1.08 1.37-2.575 2.348-4.486 2.936l7.685 12.701h-8.309ZM153.378 17.331l-3.739 10.188h7.395l-3.656-10.188Zm7.894 21.758-2.286-5.827h-11.382l-2.161 5.827h-7.728l12.339-29.68h6.897l12.214 29.68h-7.893ZM186.138 39.09h-7.105L167.898 9.407h7.978l6.814 21.045h.166l6.772-21.045h7.851L186.138 39.09ZM224.397 24.123c0-1.285-.209-2.488-.624-3.606-.415-1.115-.989-2.073-1.724-2.872a7.934 7.934 0 0 0-2.658-1.885c-1.039-.463-2.182-.693-3.428-.693s-2.382.23-3.407.693a8.229 8.229 0 0 0-2.659 1.885c-.747.799-1.323 1.757-1.724 2.872-.402 1.118-.602 2.32-.602 3.606 0 1.342.208 2.577.623 3.71.415 1.132.99 2.103 1.724 2.914a7.881 7.881 0 0 0 2.638 1.907c1.025.46 2.161.692 3.407.692s2.381-.232 3.406-.692a8.112 8.112 0 0 0 2.66-1.907c.748-.811 1.329-1.782 1.744-2.915.415-1.132.624-2.367.624-3.71Zm7.602 0c0 2.347-.401 4.492-1.204 6.435-.804 1.944-1.918 3.605-3.344 4.989-1.427 1.383-3.124 2.452-5.089 3.207-1.968.754-4.1 1.131-6.399 1.131-2.3 0-4.425-.377-6.378-1.13-1.952-.756-3.642-1.825-5.069-3.209-1.426-1.383-2.541-3.044-3.344-4.988-.803-1.943-1.203-4.088-1.203-6.435 0-2.376.4-4.52 1.203-6.435s1.918-3.543 3.344-4.884c1.427-1.341 3.117-2.376 5.069-3.102 1.953-.727 4.078-1.092 6.378-1.092 2.299 0 4.431.365 6.399 1.092 1.965.726 3.662 1.76 5.089 3.102 1.426 1.341 2.54 2.969 3.344 4.884.803 1.915 1.204 4.06 1.204 6.435Z"/></g><g fill="#2D3037"><path d="M139.164 52.41h4.094l-2.039-5.175-2.055 5.175Zm-1.637 4.068h-1.699l4.742-11.036h1.391l4.695 11.035h-1.73l-1.112-2.712h-5.19l-1.097 2.712ZM155.733 45.442h-1.53v11.035h1.53V45.442ZM164.807 50.274h1.761c.36 0 .695-.031 1.004-.093a2.53 2.53 0 0 0 .811-.304c.231-.14.414-.322.549-.546.133-.223.2-.501.2-.834 0-.332-.067-.61-.2-.834a1.575 1.575 0 0 0-.534-.537 2.315 2.315 0 0 0-.78-.288 5.012 5.012 0 0 0-.941-.086h-1.87v3.522Zm0 6.203h-1.53V45.442h3.508c.525 0 1.024.055 1.497.164.474.109.889.284 1.244.522.355.24.636.553.842.943.206.39.309.865.309 1.426 0 .81-.247 1.466-.742 1.964-.494.498-1.133.816-1.915.951l3.058 5.066h-1.853l-2.78-4.91h-1.638v4.91ZM180.8 54.233h.03l2.564-8.79h1.684l2.549 8.79h.03l2.41-8.79h1.622l-3.212 11.035h-1.591l-2.658-8.87h-.03l-2.658 8.87h-1.59l-3.214-11.036h1.654l2.41 8.791ZM198.801 52.41h4.093l-2.038-5.175-2.055 5.175Zm-1.637 4.068h-1.699l4.742-11.036h1.39l4.695 11.035h-1.729l-1.112-2.712h-5.19l-1.097 2.712ZM215.7 56.477h-1.544v-4.769l-4.093-6.266h1.884l3.027 4.988 3.044-4.988h1.775l-4.093 6.266v4.77ZM230.706 47.484a2.456 2.456 0 0 0-.88-.741 2.687 2.687 0 0 0-1.252-.288c-.247 0-.497.034-.749.1a2.075 2.075 0 0 0-.687.328 1.809 1.809 0 0 0-.502.562 1.58 1.58 0 0 0-.193.803c0 .3.058.553.177.756.118.201.279.373.479.513.201.14.437.26.711.36.272.098.564.2.873.303.37.114.746.244 1.127.39.381.145.726.337 1.035.577.309.239.561.537.756.896.196.358.295.813.295 1.363 0 .572-.107 1.069-.318 1.49a3.058 3.058 0 0 1-.841 1.044c-.351.274-.754.48-1.213.615a4.97 4.97 0 0 1-1.413.203c-.69 0-1.357-.136-2.001-.406a3.976 3.976 0 0 1-1.598-1.2l1.189-1.013c.257.385.603.696 1.035.935a2.86 2.86 0 0 0 1.406.358c.257 0 .515-.036.772-.109.257-.072.491-.186.703-.343a1.89 1.89 0 0 0 .518-.584c.134-.233.2-.517.2-.85 0-.331-.069-.61-.209-.833a1.84 1.84 0 0 0-.563-.569 3.737 3.737 0 0 0-.826-.398c-.315-.109-.646-.22-.997-.334a8.51 8.51 0 0 1-1.035-.383 3.563 3.563 0 0 1-.911-.576 2.654 2.654 0 0 1-.649-.865c-.165-.343-.247-.768-.247-1.279 0-.55.111-1.023.332-1.417.221-.395.51-.723.865-.983a3.6 3.6 0 0 1 1.205-.569c.448-.12.898-.179 1.351-.179.639 0 1.236.114 1.793.343.555.229 1.003.535 1.343.92l-1.081 1.06Z"/></g><ellipse cx="32.542" cy="32.763" fill="#C5C4C4" rx="32.542" ry="32.763"/><path fill="#2D3037" d="m62.733 33.239-2.384-1.046-25.596.2s-9.432-4.065-14.882-6.497c-5.454-2.434-13.98-5.622-15.704-4.257-1.727 1.366 8.124 7.051 10.155 8.153C16.346 30.89 34.99 40.338 34.99 40.338l-.018.472-8.082-2.228-2.246 8.446 1.506.699 36.583-14.488Z"/></svg>