<svg xmlns="http://www.w3.org/2000/svg" width="80" height="80" fill="none"><path fill="#50AB09" d="M73.6 6.08c-1.813-1.387-4.373-1.067-5.867.747l-29.76 37.866-2.666-2.133c-1.814-1.387-4.48-1.173-5.974.747l-1.92 2.453c-5.653 7.253-11.84 5.867-21.333 4.267-.64-.107-1.173.32-1.28.96-.96 11.306 22.293 26.026 26.667 23.573 6.293-3.627 8-5.76 12.48-11.52 1.706-2.133 1.386-1.813 4.16-5.227 1.386-1.813 1.066-4.48-.747-5.973l-2.667-2.133 29.76-37.974c1.28-1.706.96-4.266-.853-5.653ZM11.84 61.12c1.813.213 3.52.107 4.907-.213-1.174 1.173-2.24 2.026-2.88 2.346-.64-.64-1.387-1.386-2.027-2.133Zm12.373 9.493c-1.28-.533-2.453-1.28-3.626-2.026 2.773-.64 5.866-2.027 8.106-3.2-1.28 2.026-2.986 4.266-4.48 5.226ZM42.24 61.76c-4.267 5.547-5.76 7.467-11.52 10.773-1.387-.106-2.773-.533-4.16-1.066 2.987-2.667 5.653-7.68 5.973-8.427.427-.96-.533-1.92-1.493-1.387-.107 0-8.213 4.907-12.907 5.12-.853-.64-1.706-1.386-2.56-2.026 2.134-1.387 4.694-4.374 5.654-5.44.746-.854-.32-2.134-1.28-1.6 0 0-4.8 2.453-10.027.853-1.6-2.24-2.56-4.373-2.773-6.187 8.533 1.494 15.36 2.56 21.44-4.373l15.146 11.84c-.533.747-1.066 1.387-1.493 1.92Zm4.053-5.227-1.28 1.6L29.76 46.187l1.28-1.6c.747-.96 2.027-1.067 2.88-.32l11.947 9.386c.96.64 1.173 1.92.426 2.88ZM72.64 10.56 42.88 48.427l-3.2-2.454L69.44 8.107c.64-.854 1.92-1.067 2.88-.32.853.64.96 1.92.32 2.773Z"/></svg>