<svg xmlns="http://www.w3.org/2000/svg" width="40" height="40" fill="none"><g clip-path="url(#a)"><mask id="b" width="40" height="40" x="0" y="0" maskUnits="userSpaceOnUse" style="mask-type:luminance"><path fill="#fff" d="M0 0h40v40H0V0Z"/></mask><g mask="url(#b)"><path stroke="#333" stroke-linecap="round" stroke-linejoin="round" stroke-miterlimit="10" d="M22.547 10.237c-.183.15-.417.241-.672.241-.143 0-.284-.016-.419-.045v4.034c0 .053-.003.105-.004.158 1.369.077 2.618-.935 2.618-2.165 0-.955-.619-1.925-1.523-2.223Z"/><path stroke="#333" stroke-linecap="round" stroke-linejoin="round" stroke-miterlimit="10" d="M19.847 8.45c0-.109-.146-.146-.197-.05a3.926 3.926 0 0 1-3.465 2.078h-6.013v3.989c0 2.906 2.277 5.561 5.723 5.561a5.568 5.568 0 0 0 5.561-5.561v-4.033a2.036 2.036 0 0 1-1.609-1.984Z"/><path stroke="#333" stroke-linecap="round" stroke-linejoin="round" stroke-miterlimit="10" d="M10.172 14.466v-3.988h-.695c-.211 0-.413-.041-.598-.113-.75.366-1.32 1.228-1.32 2.095 0 1.228 1.246 2.242 2.617 2.165-.002-.053-.004-.106-.004-.159ZM22.585 37.118c-.56 0-1.034-.474-1.034-1.034v-3.415c0-.56.473-1.035 1.034-1.035-.56 0-1.034-.473-1.034-1.034v-3.415c0-.56.473-1.035 1.034-1.035-.56 0-1.034-.473-1.034-1.034v-2.754l-2.224-.862a.564.564 0 0 1-.36-.524l-.002-1.876a5.529 5.529 0 0 1-3.07.928c-1.22 0-2.291-.334-3.169-.892v1.837c0 .431-.385.535-.549.599l-7.688 2.98c-1.304.537-3.05 2.225-3.05 4.73v9.116c0 .561.455 1.016 1.017 1.016H29.24c.562 0 1.017-.455 1.017-1.016v-1.28h-7.672Z"/><path stroke="#333" stroke-linecap="round" stroke-linejoin="round" stroke-miterlimit="10" d="M17.092 24.726a.395.395 0 0 1-.125-.34h-2.225a.395.395 0 0 1-.125.34l-.112.103v3.841c0 .313.253.566.565.566h1.569a.565.565 0 0 0 .565-.566v-3.84l-.112-.104Z"/><path stroke="#333" stroke-linecap="round" stroke-linejoin="round" stroke-miterlimit="10" d="m21.55 22.362-2.084-.807-2.398 2.611a.396.396 0 0 0 .024.56l1.404 1.29a.396.396 0 0 0 .56-.024l2.495-2.717v-.913ZM9.535 22.596l3.118 3.396a.396.396 0 0 0 .56.024l1.404-1.29a.396.396 0 0 0 .024-.56l-2.403-2.617-.06.023-2.643 1.024ZM5.695 39.334v-9.347M37.526 31.634h-14.94c-.562 0-1.035.474-1.035 1.035v3.415c0 .56.473 1.034 1.034 1.034h14.941c.561 0 1.035-.474 1.035-1.034v-3.415c0-.56-.474-1.035-1.035-1.035ZM29.083 34.376h-4.999M29.083 28.892h-4.999M36.02 28.892h-1.058"/><path stroke="#333" stroke-linecap="round" stroke-linejoin="round" stroke-miterlimit="10" d="M37.526 26.15h-14.94c-.562 0-1.035.474-1.035 1.035V30.6c0 .56.473 1.034 1.034 1.034h14.941c.561 0 1.035-.473 1.035-1.034v-3.415c0-.56-.474-1.034-1.035-1.034ZM29.083 28.892h-4.999M36.02 28.892h-1.058M29.083 23.408h-4.999M36.02 23.408h-1.058M29.083 23.408h-4.999M36.02 23.408h-1.058M36.02 34.376h-1.058M32.9 28.892h-1.057M32.9 28.892h-1.057M32.9 23.408h-1.057M32.9 23.408h-1.057M32.9 34.376h-1.057M33.897 37.118v1.336c0 .528.432.96.96.96h1.256c.528 0 .96-.432.96-.96v-1.336h-3.176ZM23.039 37.118v1.336c0 .528.432.96.96.96h1.256c.528 0 .96-.432.96-.96v-1.336h-3.176Z"/><path stroke="#333" stroke-linecap="round" stroke-linejoin="round" stroke-miterlimit="10" d="M28.89 20.666h-6.305c-.56 0-1.034.474-1.034 1.035v3.415c0 .56.473 1.034 1.034 1.034h14.941c.561 0 1.035-.473 1.035-1.034V21.7c0-.56-.474-1.035-1.035-1.035h-5.902M22.938 5.532v-.615c0-1.06-.924-1.83-1.843-1.76-.532.041-1.02-.293-1.121-.816C19.8 1.46 19.365.586 17.662.586H11.75a3.928 3.928 0 0 0-3.928 3.928v4.31c0 .914.74 1.654 1.654 1.654h6.708c1.5 0 2.804-.842 3.465-2.078.051-.096.197-.059.197.05 0 1.115.913 2.028 2.028 2.028.585 0 1.063-.478 1.063-1.063V8.266"/></g></g><defs><clipPath id="a"><path fill="#fff" d="M0 0h40v40H0z"/></clipPath></defs></svg>