<svg xmlns="http://www.w3.org/2000/svg" width="233" height="74" fill="none"><path fill="#2D3037" d="M64.04 27.651C64.04 11.231 76.368.026 92.316.026c11.697 0 18.477 6.413 22.2 13.038l-9.73 4.827c-2.213-4.334-6.99-7.752-12.505-7.752-9.625 0-16.65 7.435-16.65 17.548 0 10.077 6.99 17.547 16.65 17.547 5.48 0 10.257-3.347 12.505-7.752l9.73 4.722c-3.829 6.66-10.503 13.143-22.2 13.143-15.948-.07-28.278-11.275-28.278-27.696ZM123.683 46.785l7.096-8.668c4.321 3.946 11.03 7.223 19.496 7.223 7.166 0 10.679-2.89 10.679-5.92 0-9.478-35.303-2.96-35.303-23.08 0-8.914 8.817-16.278 23.254-16.278 9.73 0 17.845 2.572 23.922 7.47l-7.272 8.35c-4.952-4.016-11.592-5.849-17.844-5.849-5.621 0-8.747 2.15-8.747 5.356 0 8.492 35.233 2.82 35.233 22.763 0 9.796-8.009 17.16-24.554 17.16-11.803-.035-20.234-3.488-25.96-8.527ZM183 53.797V1.225h20.479c16.264 0 27.575 10.465 27.575 26.321 0 15.856-11.275 26.251-27.575 26.251H183Zm36.743-26.251c0-9.302-5.62-16.455-16.264-16.455h-9.414v32.875h9.414c10.258-.035 16.264-7.505 16.264-16.42Z"/><path fill="#C5C4C4" d="M55.08 27.616c0 .353 0 .705-.035 1.057v.212c-.035.916-.14 1.832-.246 2.713v.07c0 .106-.035.177-.035.282v.07a24.853 24.853 0 0 1-.949 3.947c-.035.07-.035.141-.07.212a23.978 23.978 0 0 1-1.3 3.241c-.035.07-.07.141-.105.247a30.661 30.661 0 0 1-2.073 3.594c-.28.423-.597.881-.948 1.269a26.716 26.716 0 0 1-3.618 3.84c-.07.07-.176.141-.246.212a30.023 30.023 0 0 1-2.353 1.832c-.07.035-.106.07-.176.106l-.633.423-.21.105c-.562.353-1.124.67-1.686.952-.106.07-.211.105-.316.176a27.244 27.244 0 0 1-12.541 3.03c-.351 0-.667 0-1.019-.035h-.28a25.904 25.904 0 0 1-2.846-.282c-.07 0-.14-.035-.21-.035-2.284-.353-4.462-1.022-6.535-1.903-.105-.035-.21-.106-.35-.14a26.26 26.26 0 0 1-4.743-2.714c-.105-.07-.21-.141-.281-.212a27.463 27.463 0 0 1-7.412-8.174c-.07-.106-.105-.176-.176-.282a25.534 25.534 0 0 1-2.599-6.131c-.035-.07-.035-.141-.07-.212a26.261 26.261 0 0 1-.738-3.382v-.07c0-.071-.035-.177-.035-.247v-.071A25.35 25.35 0 0 1 0 27.651v-.775c.035-.704.07-1.41.14-2.114v-.035c0-.106.036-.212.036-.317v-.035c.246-1.939.667-3.841 1.264-5.638.035-.07.035-.141.07-.212a29.92 29.92 0 0 1 2.073-4.58c.035-.07.07-.141.105-.177 1.51-2.572 3.408-4.897 5.62-6.835.106-.07.176-.177.282-.247a27.387 27.387 0 0 1 7.447-4.58c.105-.036.21-.106.316-.142A25.663 25.663 0 0 1 21.955.59c.07 0 .14-.035.21-.035a25.364 25.364 0 0 1 4.356-.493H27.47c3.477 0 6.78.634 9.835 1.832l.317.106c3.126 1.233 5.971 3.065 8.43 5.285.07.07.14.106.21.176 1.37 1.304 2.636 2.713 3.724 4.299.036.07.106.14.141.211a27.63 27.63 0 0 1 3.548 7.224c.035.07.035.14.07.211.492 1.515.808 3.066 1.019 4.687v.07c0 .106.035.212.035.282v.07c.21.952.281 2.044.281 3.101Z"/><path fill="#fff" d="m0 27.089 1.756.916.281.14h.036l-.07.106-1.757 3.066c0 .07.035.176.035.247v.07l1.932-3.347.07-.141s.035-.036.035-.07V28.004l-.035-.035-.035-.036-.07-.035-.176-.106h-.035l-.175-.105-1.757-.916a1.09 1.09 0 0 0-.035.317Z"/><path fill="#fff" d="m0 26.841 1.756.952L0 26.84Zm2.354 1.304v-.035l-.036-.07-.035-.071-.246-.388-1.826-3.17c0 .105-.035.21-.035.316v.035l1.686 2.925.105.211-.175-.105-1.757-.952v.247l1.757.916.28.141h.036l.105.035h.035c.035 0 .07 0 .07-.035.036.07.036.035.036 0ZM6.045 32.268l-.106-.247-.105-.176-.035-.07V31.985l-.035.176.105.212 8.536 17.089c.07-.035.14-.07.211-.07L6.045 32.268Zm8.852 17.724-.035-.07-.035-.036-.035-.035-.211-.458-8.536-17.125-.106-.247-.105-.176-.035-.07-.035-.036H5.658V31.845l-.035.211-.035.247-1.756 9.161c.07.106.105.177.175.282L5.8 32.338l.035-.211.106.211 8.536 17.09.245.493H11.42c.106.07.211.141.281.212h3.197c.035 0 .07-.036.07-.036-.07-.035-.07-.07-.07-.105Z"/><path fill="#fff" d="M16.652 25.291c0-.035-.035-.035-.035-.035H16.406l-.246.035-13.489 2.643h-.07l-.316.07H2.109V28.145l.106.106.035.035 1.756 1.833 1.019 1.057.527.528.035.035h.035l.035.036H5.762l.036-.035.035-.036.07-.035.527-.317 9.87-5.885.176-.105.07-.035.07-.036.036-.035v-.07.105ZM6.36 31.246l-.668.388-.562-.6-2.67-2.783-.035-.035.106-.035 13.454-2.643-9.625 5.708Z"/><path fill="#fff" d="M6.323 31.986c-.035.07-.07.106-.14.176l14.402 6.836v-.035c0-.07.035-.106.07-.141L6.323 31.986Zm14.79 7.012-.071-.035-.07-.035-.07-.036-.247-.105-14.332-6.801-.421-.211-.176-.07H5.621V31.81l.035.106.07.176.106.211 8.536 17.09.245.493.07.14c0 .036.036.036.071.036h.035c.035 0 .07-.035.07-.035l.211-.352.07-.106 5.796-10.078.211-.352.035-.035s0-.035.036-.035v-.071c-.07.035-.07 0-.106 0Zm-6.535 10.36-8.536-17.09-.105-.247.246.106 14.402 6.836.351.176-.175.317L15 49.463l-.21.352-.212-.458Z"/><path fill="#fff" d="M5.796 31.74c-.035 0 0 0 0 0 0-.035 0-.035-.035-.035l-.035-.036-.562-.599-2.67-2.783-.035-.036-.035-.035v-.035l-.07-.07c-.035-.036-.035-.036-.07-.036h-.036v.035l-.035.036-.07.14-1.721 2.996v.07c0 .07.035.176.035.247l1.897-3.277.035-.035.035.035 1.756 1.832L5.2 31.211l.527.529-.386.317-4.075 3.03c0 .07.035.141.07.212l4.18-3.101.246-.176.105-.07.036-.036.035-.035c.035-.035.035-.035.035-.07v-.036c-.176 0-.176 0-.176-.035Z"/><path fill="#fff" d="m21.147 38.998-.035-.141-.105-.352-4.216-12.791-.105-.282-.035-.07v-.036s0-.035-.035-.035h-.07l-.036.035-.245.141-.07.035-.141.07-9.59 5.71-.668.387-.07.035h-.035l-.035.035V31.81l.035.035.07.035.07.035.141.07.246.107 14.402 6.835.352.177.035.035.07.035h.035c.035 0 .035 0 .07-.035 0 0 0-.035.036-.035V38.998h-.07Zm-.492-.247-14.332-6.8-.421-.212.527-.317 9.87-5.884.176-.106.07.247 4.216 12.86.105.318-.21-.106Z"/><path fill="#fff" d="m5.13 32.092-4.075 3.03c0 .07.035.141.07.211l4.18-3.1c-.105-.036-.14-.106-.176-.141Zm.632-.353-.036-.035H5.621l-.07.07-.387.318-4.074 3.03c0 .07.035.141.07.211l4.18-3.1.246-.176-.035.246-1.757 9.162c.07.105.106.176.176.281l1.792-9.408.035-.211.035-.176V31.775c-.035 0-.035-.036-.07-.036ZM28.347 42.134l-.07-.317-.105-.07-.07.176.07.246 2.248 8.07c.07-.036.14-.071.21-.071l-2.283-8.034Zm2.354 8.457-.035-.07-.07-.282-2.249-8.07-.07-.317-.035-.176-.035-.07v-.036l-.035-.035h-.07V41.606l-.036.07-.07.212-.105.281-4.602 12.791c.07 0 .14.035.21.035l4.567-12.72.106-.246.07.246 2.248 8.07.07.316-.386.423-3.864 4.193h.281l3.688-4.017.422-.458.035-.035c-.035-.106-.035-.14-.035-.176Z"/><path fill="#fff" d="M33.83 39.069c0-.036 0-.036 0 0 0-.036-.036-.036-.036-.036-.035-.035-.035-.035-.07-.035H21.043s-.035 0-.035.035v.035c0 .036.035.106.07.106h.07l.457.176 5.901 2.115.317.105.105.035H28.139l.035-.035.105-.035.352-.14 4.601-2.045.422-.211.07-.035c.105.07.105 0 .105-.035Zm-5.27 2.184-.456.212-.457-.177-5.866-2.114h11.451l-.035.035-2.88 1.304-1.757.74Z"/><path fill="#fff" d="M45.033 52.916s0 .036 0 0c0 0 0 .036 0 0ZM28.628 41.817l-.316-.211-.14-.07H28.066v.14l.036.07.035.177.07.246 2.248 8.07.07.317v.07c0 .035.036.07.07.07h.07l.598.106 8.852 1.41c.105-.07.21-.106.316-.176l-9.203-1.445-.492-.07-.07-.282-2.248-8.07-.07-.317.245.177 13.56 9.055.21-.106-13.735-9.16Z"/><path fill="#fff" d="M21.744 39.21a.768.768 0 0 1-.105.176L27.54 41.5c0-.07.035-.141.07-.212l-5.866-2.078Zm6.428 2.325-.035-.035h-.07l-.457-.176-5.866-2.114h-.035l-.176-.071-.316-.106-.105-.035H21.006s-.035 0-.035.035v.035l-.07.106-.175.317L14.965 49.5l-.211.352-.07.14c0 .036-.035.071 0 .106 0 0 0 .036.035.036l.035.035H14.859l.07-.07.246-.142 12.435-7.892.246-.141.14-.106.071-.035.035-.035.035-.036v-.07c.035-.07.035-.07.035-.106Zm-.632.282L15.175 49.71h-.035l.035-.035 5.796-10.113.211-.352.457.176L27.54 41.5l.316.106-.316.211Z"/><path fill="#fff" d="M45.033 52.916s0 .036 0 0ZM33.898 39.14l-.07-.07c-.036-.036-.036-.036-.07-.036H33.686l-.035.035-.246.106-.211.07-2.88 1.27-1.722.774-.456.212H28.066V41.605l.036.036.035.035.07.035.105.07.246.177 13.56 9.056.21-.106-13.63-9.126-.315-.212.35-.14 4.603-2.044.421-.212.316.352 8.923 10.959c.07-.035.105-.07.175-.106L34.25 39.421l-.351-.282Z"/><path fill="#fff" d="m28.067 41.711-.07.036-.14.105-.106.282-4.602 12.791c.07 0 .14.035.211.035l4.567-12.72.105-.247.07-.176-.035-.106Zm.106-.176-.035-.035H28.031l-.175.106-.281.176-12.365 7.893h-.036l-.07.035-.246.141-.07.035-.035.035v.106l.035.035.176.282 1.405 2.432c.105.035.21.105.351.14l-1.58-2.713-.106-.211.246-.141 12.435-7.893.246-.14-.105.281-4.602 12.79c.07 0 .14.036.21.036l4.567-12.72.07-.247.07-.176.036-.07V41.605c-.035-.035-.035-.035-.035-.07ZM52.201 39.526l-.035-.071-3.864-6.343-.07-.14-.176-.282-.035-.07s0-.036-.035-.036h-.07V32.795l-.07.423-2.214 15.328c.07-.07.176-.141.246-.212l.176-1.198 1.826-13.812.036-.317.175.282 3.864 6.342-2.67 4.933.949-1.268 1.932-3.56.035-.07v-.14Zm-7.166 13.39s0 .035 0 0Z"/><path fill="#fff" d="M52.69 28.074c0-.035-.035-.035-.035-.035H52.55l-.14.035-14.438 3.453-.351.07-.211.036h-.035l-.105.035h-.036l-.035.036v.035c0 .035.035.106.106.106h.07l.597.035 9.414.775h.106l.28.035H47.984l.106-.105.21-.212 4.321-4.158.07-.07.036-.035c0 .07 0 .035-.035-.036Zm-4.847 4.51-.422-.035-9.414-.775h-.035.035l14.262-3.418-4.145 3.982-.281.246Z"/><path fill="#fff" d="m48.054 32.655-.105-.07h-.07l-.035.035V32.726l.035.035.035.035.105.177.176.281 3.864 6.343.035.035c.035.035.07.035.106.035h.245c.036-.07.07-.14.106-.246l-.281.035-3.864-6.343-.07-.14.14.07 5.41 3.136c.035-.07.035-.14.07-.211l-5.41-3.136-.492-.177Z"/><path fill="#fff" d="M47.95 32.655c0-.035 0-.035 0 0l-.036-.035h-.07l-.422-.035-9.414-.775h-.035l-.422-.036h-.316l-.035.036-.035.035-.175.317-3.092 6.378-.14.317-.07.14V39.175c.035 0 .035.035.07.035h.035l.14-.07.387-.176 13.102-5.92.352-.141.105-.035.035-.035h.035c.035 0 .07-.036.07-.071l-.07-.106c.035 0 .035 0 0 0Zm-.598.141-13.138 5.955-.245.106.105-.247 3.091-6.342.176-.353.597.036 9.414.775h.106l-.106.07Z"/><path fill="#fff" d="m52.762 28.18-.035-.07c0-.036-.036-.036-.036-.036h-.07s-.035 0-.035.035l-.07.07-.211.212-4.145 3.982-.281.247V32.76l.035.035h.07l.106.035.21.141.14.07 5.41 3.136c.036-.07.036-.14.07-.21l-5.409-3.137-.351-.211.21-.212 4.321-4.122 2.143 3.735v-.07c0-.071.035-.177.035-.283l-2.002-3.453-.105-.035Z"/><path fill="#fff" d="m47.352 32.796-13.138 5.955c.036.07.07.106.07.212l13.103-5.92c-.035-.106-.035-.176-.035-.247Zm.597-.14c0-.036 0-.036 0 0l-.035-.036h-.07l-.351.176-.106.035-13.137 5.955-.246.106h-.035l-.106.07-.105.036s-.035 0-.035.035V39.174l.035.035.316.353 8.922 10.958c.07-.035.106-.07.176-.106L34.25 39.456l-.282-.317.387-.176 13.103-5.92.35-.141-.07.423-2.212 15.328c.07-.07.175-.141.245-.212l.176-1.198 1.932-13.918.035-.317.035-.141V32.656c.035 0 .035 0 0 0Z"/><path fill="#fff" d="m33.83 38.962-.07-.14-.036-.036-.14-.282-5.726-9.936-.176-.282-.105-.176-.035-.07-.035-.036H27.436s-.035 0-.035.035v.035l-.035.07-.21.353-1.652 2.854-4.11 7.118-.175.282-.035.07-.07.106V39.032l.034.036H33.794c.036 0 .07-.035.07-.035v-.035c-.034 0-.034 0-.034-.036Zm-12.33-.387 5.726-9.937.21-.352.211.387 5.726 9.937.175.282H21.324l.176-.317Z"/><path fill="#fff" d="M26.242 17.574a.224.224 0 0 1-.21 0l1.229 9.972c.07-.035.14-.035.21-.035l-1.229-9.937Zm12.54.634v-.035h-.07l-.246-.035h-.21l-11.487-.951-.527-.036h-.14c-.036.036-.036.036-.036.07v.212l.036.176 1.229 9.972.035.353v.176l.035.035h.035c.035 0 .035 0 .07-.035l.07-.035.071-.07.316-.283 9.098-7.963 1.476-1.304h.035l.035-.035.07-.07.07-.071.035-.035v-.035c0 .035 0 .035 0 0 0 .035 0 0 0 0Zm-10.994 9.409-.281.246-.036-.317-1.229-9.937-.035-.282.386.036 11.663.951h.14l-.07.07-10.538 9.232Z"/><path fill="#fff" d="M37.375 31.704c-.035 0 0 0 0 0-.035-.035-.035-.07-.07-.07l-.07-.036h-.036l-.281-.106-8.852-3.312-.422-.14-.105-.036-.07-.035H27.363c-.035 0 0 0 0 .035V28.18l.07.141.211.388 5.726 9.936.176.282.035.07.035.036.035.035c0 .035.035.035.106.035.035 0 .07-.035.07-.035l.07-.176.14-.282 3.092-6.342.175-.318.07-.105V31.704Zm-3.83 6.8-5.725-9.936-.176-.282.317.106 8.852 3.312.28.105-.14.318-3.126 6.377-.14.282-.141-.282Z"/><path fill="#fff" d="m20.13 26.066-3.126-.81v.105c0 .036 0 .071-.035.106l9.905 2.572v-.035c0-.07.036-.106.07-.176l-6.814-1.762Zm7.377 1.938v-.14l-.035-.318-1.23-9.936-.035-.282V17.116H26.102l-.035.035-.035.036-.282.246-.07.07-8.747 7.436-.21.176-.07.07-.036.036v.07s0 .035.035.035l.035.035H16.863l.21.071 9.907 2.572.351.106.07.035H27.507c.035 0 .035 0 .07-.035V28.039l-.07-.035Zm-.562-.14L20.13 26.1l-3.126-.81-.211-.035.14-.106 8.853-7.54.175-.141.035.176 1.23 9.972.035.352-.316-.106Z"/><path fill="#fff" d="m27.648 28.04.422.14-.422-.14Zm11.136-9.832v-.035l-.035-.035H38.608l-.105.07-.106.106-.07.07-10.538 9.232-.281.247-.106.106-.035.035V28.18l.035.035.07.035.211.07.317.107 8.852 3.312.28.106H37.344l.035-.036v-.246l.036-.353 1.334-12.685v-.282l.036-.035c0 .035 0 0 0 0Zm-1.897 13.284-8.852-3.312-.422-.14.316-.283 9.098-7.963 1.476-1.304h.035v.035l-1.3 12.685-.035.388-.316-.106Z"/><path fill="#fff" d="M27.507 28.04c0-.036 0 0 0 0l-.036-.036h-.035l-.105-.035-.316-.07-6.815-1.762-3.126-.81-.211-.036-.176-.035h-.035c-.035 0-.07 0-.105.035l-.035.035V25.432l.035.07.035.071.105.282 4.216 12.79.105.388.035.141s0 .035.035.035l.035.036H21.184s.035 0 .035-.036l.035-.07.035-.035.035-.07.211-.353 5.726-9.937.21-.352.036-.07.035-.036v-.07c0-.141 0-.177-.035-.177Zm-.457.458-1.651 2.854-4.11 7.117-.176.282-.105-.317-4.215-12.79-.07-.247.21.07 9.906 2.573.352.105-.141.353ZM38.78 18.209v-.036l-.106-.105-.035-.036-.351-.317-15.35-14.587-.212-.212-.07-.07H22.551l-.035.035V2.987l.035.105.07.247 3.267 13.108.105.423.07.282v.07c0 .035 0 .035.036.035 0 0 .035 0 .035.035H26.239l.386.036 11.663.951H38.709l.035-.035v-.035h.036c0 .035 0 0 0 0Zm-.598-.141-11.486-.952-.527-.035-.176-.705-3.267-13.072v-.035l.036.035 15.42 14.623.211.176-.21-.035Z"/><path fill="#fff" d="M22.199.52c-.07 0-.14.035-.21.035l.35 1.973c.07-.035.141-.07.211-.07L22.2.52Zm4.356-.494L22.83 2.563l-.246.177-.035-.247L22.2.555c-.07 0-.14.035-.21.035l.35 1.973.07.318v.14l.036.036h.07l.07-.035.036-.036.07-.07.21-.141L26.907.026c-.07-.035-.21-.035-.351 0Z"/><path fill="#fff" d="M41.242 8.095V8.06c0-.036-.035-.036-.07-.036l-.246-.07L23.011 2.95l-.21-.07-.141-.035H22.555l-.035.035V2.986l.035.035.21.211.036.036L38.22 17.89l.211.176.14.14.071.071.035.035H38.784l.035-.035v-.07l.175-.67 2.213-9.02.106-.388-.07-.035Zm-2.985 9.62L22.94 3.161 41.031 8.2l-2.283 9.302-.14.529-.351-.318Z"/><path fill="#fff" d="M22.447 2.986c0-.035-.035-.035-.035-.035V2.81l-.246.106L15.14 5.91a.5.5 0 0 1 .07.211l1.862-.775 5.234-2.22.211-.07.035-.036-.105-.035ZM21.99.555l.352 1.973L21.99.555Zm.633 2.325v-.07l-.036-.106-.035-.246L22.201.52c-.07 0-.14.035-.21.035l.35 1.973.07.317-.245.106-7.026 2.995-.035.035.035-.035 2.284-3.982c-.106.035-.211.07-.316.141l-2.143 3.7-.176.317V6.228c0 .035 0 .035.035.07s.035.035.07.035h.036l.07-.035.07-.035.176-.07 1.862-.776 5.233-2.22.211-.07.035-.035H22.658c-.036-.106 0-.141-.036-.212Z"/><path fill="#fff" d="M41.239 8.095V8.06l-3.513-6.096-.316-.105 3.512 6.096L23.007 2.95l-.21-.07.21-.141L27.012.026h-.387l-3.723 2.537-.246.177-.105.07-.035.035V2.951h.07l.14.035.246.07 18.091 5.04H41.168c.035 0 .07 0 .07-.036v-.035.07Z"/><path fill="#fff" d="M26.206 17.187c0-.036 0 0 0 0l-.036-.106-.175-.705-3.267-13.072v-.036l-.035-.176-.035-.105-.036-.07V2.88H22.517l-.07.035-.246.106-7.026 2.995-.035.035-.28.106H14.788V6.264c0 .035 0 .035.035.07L15 6.51l.07.07 10.503 10.254.387.388.035.035.07.035.035.036s.035 0 .035.035H26.241c-.035-.141-.035-.141-.035-.176Zm-.598-.6L15.14 6.37 15 6.264l.175-.07 1.862-.776 5.2-2.22.21-.07.07.246 3.267 13.108.105.423-.28-.317ZM52.69 28.04l-.105-.07h-.035l-6.955-5.215-.176-.106-.07-.07-.035-.036-.035-.035c-.036-.035-.07-.035-.106 0 0 0-.035 0-.035.035l-.035.035-.035.036-.14.176-7.272 8.456-.21.247-.036.035-.105.106-.07.07-.036.036s0 .035-.035.035V31.846c0 .035.035.07.07.07H37.305l.667-.141 14.262-3.418.386-.106h.035c.035 0 .035 0 .07-.035v-.035c.036-.07.036-.106-.035-.141Zm-14.858 3.312 7.306-8.492.14-.14.176.14 6.955 5.215-14.472 3.453-.351.07.245-.246Z"/><path fill="#fff" d="m50.055 11.725-4.602 10.148-.175.388-.105-.423-3.83-13.601 5.024-.846a.932.932 0 0 0-.21-.176l-4.884.81h-.14l-.035.036c0 .035-.035.035 0 .07l.07.317.035.07 3.759 13.32.105.387.07.212V22.543H45.278c.035 0 .035-.036.035-.036l.035-.07.07-.176.176-.388 1.194-2.607 3.408-7.47c-.035.035-.106-.036-.14-.07Z"/><path fill="#fff" d="M54.867 24.093 52.62 27.97h-.035l-6.956-5.215-.14-.106.281-.105 8.08-3.171c0-.07-.036-.141-.07-.212l-7.975 3.136-.316.106-.14.035-.07.035-.071.036s-.035 0-.035.035V22.648h.035l.07.036.176.14 6.955 5.216.07.035.106.07h.07c.035 0 .035 0 .07-.035v-.035l.07-.141 2.073-3.594v-.247Z"/><path fill="#fff" d="m45.35 22.507-.035-.07-.035-.176-.106-.423-3.829-13.601-.035-.106c0-.035-.035-.035-.035-.035-.035 0-.035-.035-.07-.035h-.07l-.035.035v.07l-2.284 9.303-.14.563V18.138l-.035.141v.07c0 .036.035.036.035.071l.105.07.035.036.07.035 5.867 3.84.351.247.07.036H45.28l.035-.036.035-.035V22.508Zm-.281-.176-.281-.211-5.726-3.735-.246-.141.176-.67L41.17 8.59l3.758 13.32.141.422Z"/><path fill="#fff" d="m53.743 19.124-7.974 3.136v.247l8.08-3.171-.106-.212Zm-7.974 3.136-.316.106.175-.388 1.195-2.607 3.372-7.47c-.035-.07-.105-.141-.14-.211l-4.602 10.183-.176.387-.07.141-.035.106V22.613h.14l.176-.07.281-.107 8.08-3.17c0-.071-.036-.142-.07-.212l-8.01 3.206Z"/><path fill="#fff" d="m45.314 22.507-.035-.036-.07-.035-.141-.07-.281-.176-5.726-3.735-.246-.141-.035-.036c-.035-.035-.07-.035-.105 0-.035 0-.07.036-.07.07v.247l-1.3 12.65-.035.423V31.88c0 .036.035.071.07.071h.035c.035 0 .07 0 .07-.035l.14-.176.07-.106.247-.282 7.306-8.492.14-.14.036-.071.035-.036v-.07c-.07 0-.105-.035-.105-.035Zm-.387.282-7.271 8.456-.21.247.034-.317 1.3-12.65v-.035l.07.035 5.867 3.84.35.247-.14.177ZM52.797 28.004l2.107-3.63c0-.105-.035-.21-.035-.281v-.07l-2.283 3.946-.035.07V28.145c0 .035.035.035.07.035l.105.036h.035l.07.035h.071l2.178.634v-.211l-2.213-.635-.07-.035Z"/><path fill="#fff" d="m52.797 28.004-.14-.035h-.036c-.035 0-.035.035-.07.035V28.11l.07.105v.036l2.108 3.664c0-.07.035-.176.035-.282v-.07l-1.932-3.348 2.178.635v-.212l-2.213-.634ZM16.683 25.185l-.07-.07-.175-.212-2.88-3.066-.106-.105-.07-.07-.036-.036s-.035 0-.035-.035H13.206l-.035.035-.106.035-.07.07-.07.036-10.328 5.99-.316.176-.07.036c-.035 0-.035.035-.035.07V28.145c.035.035.07.07.105.07h.035l.106-.035.21-.035 13.56-2.643h.105l.316-.07H16.718s.036 0 .036-.036l.035-.035c-.07-.105-.07-.14-.106-.176Zm-3.618-3.277.14-.07.106.105 2.916 3.136.14.141-.21.036-13.349 2.607 10.257-5.955Z"/><path fill="#fff" d="M13.133 21.732V21.45l-.246-.212-9.168-7.54a.77.77 0 0 1-.106.176l9.169 7.54.035.036.246.176.07.106c.035.035.035 0 0 0Zm1.791-15.61c-.035-.035-.07-.035-.14-.035h-.035l-.422.035-4.707.493c-.105.07-.176.177-.28.247l5.022-.528.316-.036-.035.247-1.475 14.517-.035.388-.246-.212-9.168-7.54a.77.77 0 0 1-.106.176l9.169 7.54.035.036.246.176.105.106H13.273l.036-.035V21.485l.035-.387L14.819 6.51V6.123c.105.034.105.034.105 0Z"/><path fill="#fff" d="M26.204 17.187c0-.036 0 0 0 0v-.036s0-.035-.035-.035h-.07l-.106.035-.07.036-.351.105-11.873 4.158-.281.106-.106.035h-.07c-.035 0-.07.035-.07.07V21.804l.035.035.105.106 2.916 3.136.14.14.036.036.035.035.035.035.035.035.035.036h.07s.035 0 .035-.035l.141-.141.14-.106 8.853-7.54.175-.142.106-.105h.035v-.036c.105-.07.105-.07.105-.105Zm-9.379 7.752-.21.176-.176-.212-2.916-3.065-.105-.106.21-.07 11.944-4.158-8.747 7.435Z"/><path fill="#fff" d="m13.174 21.767-.14-.105-.246-.177-.036-.035-11.24-2.96c-.036.07-.036.141-.07.212l11.38 2.995.106.035.246.035c.035.035 0 0 0 0Zm.176-.105c0-.036-.035-.036-.035-.036l-.036-.035-.105-.07-.246-.212-9.168-7.54c-.035.07-.07.14-.106.176l9.169 7.54-11.241-2.96c-.035.07-.035.141-.07.212l11.38 2.995.106.035.211.07h.07l.036-.035v-.035c.035-.07.035-.07.035-.105Z"/><path fill="#fff" d="M25.646 17.433c-.035-.035-.07-.106-.105-.141L13.668 21.45v.176c0 .035 0 .035-.035.07l11.943-4.157.07-.106c.035 0 .035 0 0 0Zm.562-.247c0-.035 0 0 0 0v-.07l-.246-.247-.28-.282L15.212 6.37l-.14-.106-.106-.106c-.035-.035-.07-.035-.105-.035h-.035l-.035.035V6.37l-.035.246-1.476 14.518-.035.387V21.837H13.351l.141-.035.21-.07 11.944-4.158.105-.035.317-.106.105-.035h.07v-.036c-.035-.14-.035-.14-.035-.176Zm-12.54 4.229-.281.105.035-.387 1.475-14.588v-.141l.07.07 10.504 10.254.386.388-.351.105-11.838 4.194Z"/><path fill="#fff" d="m12.892 21.767-10.328 5.99c.036.07.036.141.036.212v.035l.07-.035.14-.07 10.258-5.92c-.07-.106-.106-.141-.176-.212Zm.457-.106v-.035s-.036 0-.036-.035h-.035l-.07-.035-.316-.07h-.035l-11.241-2.96c-.035.07-.035.14-.07.21l11.381 2.996.106.035-.07.035-10.328 5.99-.316.177-.246-.388L.246 24.41v.035c0 .106-.035.212-.035.317l1.686 2.96.14.247.106.176.035.035v.035c0 .036.035.036.07.036H2.354l.035-.036.246-.14.07-.036.14-.07 10.258-5.92.14-.07.035-.036.035-.035v-.035c.036-.176.036-.176.036-.212 0 .036 0 .036 0 0ZM6.429 31.703c-.07.423-.492.67-.879.6-.421-.071-.667-.494-.597-.881.07-.423.492-.67.878-.6.387.071.668.494.598.881Z"/><path fill="#fff" d="M2.598 28.005c-.035.246-.28.387-.491.352-.246-.035-.387-.282-.352-.493.035-.247.281-.388.492-.353.246.036.387.282.351.494ZM13.665 21.591c-.035.247-.281.388-.492.353-.246-.035-.386-.282-.351-.493.035-.247.28-.388.492-.353.245.035.386.282.35.493ZM17.036 25.396c-.035.247-.281.388-.492.352-.246-.035-.386-.281-.351-.493.035-.246.28-.387.492-.352.245.035.386.247.35.493ZM15.177 6.228c-.036.247-.281.388-.492.353-.246-.036-.387-.282-.351-.494.035-.246.28-.387.491-.352.246.035.387.282.352.493ZM23.009 2.986c-.036.247-.282.388-.492.352-.246-.035-.387-.282-.351-.493.035-.247.28-.388.491-.352.246.035.387.246.352.493ZM26.696 17.116a.612.612 0 0 1-.738.493.614.614 0 0 1-.491-.74.612.612 0 0 1 .737-.493c.351.07.562.387.492.74ZM39.203 18.102c-.07.282-.316.459-.633.423-.28-.07-.456-.317-.421-.634.035-.317.316-.458.632-.423.316.07.492.352.422.634ZM45.77 22.472c-.071.282-.317.458-.633.423-.281-.07-.457-.318-.422-.635.07-.282.316-.458.633-.423a.58.58 0 0 1 .421.635ZM48.37 32.901c-.07.282-.315.458-.631.423-.281-.07-.457-.317-.422-.634.07-.282.316-.458.632-.423.316.07.492.352.422.634ZM21.743 39.138c-.07.317-.351.529-.667.458-.317-.07-.527-.352-.457-.67.07-.316.351-.528.667-.457.281.035.492.352.457.67ZM15.212 50.027c-.07.317-.351.528-.668.458-.316-.07-.527-.352-.456-.67.07-.317.351-.528.667-.458.316.036.527.353.457.67ZM28.032 28.215c-.07.317-.351.529-.667.458-.316-.07-.527-.352-.457-.67.07-.316.351-.528.667-.457.317.07.527.352.457.67ZM37.974 31.88c-.07.317-.352.529-.668.458-.316-.07-.527-.352-.456-.67.07-.316.35-.528.667-.457.316.07.527.352.457.67ZM34.286 39.174c-.07.317-.351.529-.667.458-.316-.07-.527-.352-.457-.67.07-.316.351-.528.667-.457.316.07.527.352.457.67ZM28.665 41.747c-.07.317-.351.528-.668.458-.316-.07-.526-.353-.456-.67.07-.317.351-.528.667-.458.317.07.492.352.457.67ZM31.227 50.908c-.07.317-.35.528-.667.458-.316-.07-.527-.353-.457-.67.07-.317.352-.528.668-.458.316.07.492.353.456.67ZM8.395 37.976c0-.317.28-.599.597-.599.316 0 .597.282.597.599a.617.617 0 0 1-.597.599.593.593 0 0 1-.597-.599ZM23.43 47.067c0-.317.28-.6.597-.6.316 0 .597.283.597.6a.617.617 0 0 1-.597.599.593.593 0 0 1-.597-.6ZM7.41 26.454c0-.986.808-1.762 1.757-1.762.983 0 1.756.81 1.756 1.762 0 .987-.808 1.762-1.756 1.762a1.742 1.742 0 0 1-1.757-1.762ZM13.277 44.46c0-.6.492-1.058 1.054-1.058.597 0 1.054.494 1.054 1.057 0 .6-.492 1.057-1.054 1.057a1.037 1.037 0 0 1-1.054-1.057ZM12.715 32.585c0-.388.316-.705.702-.705a.706.706 0 0 1 0 1.41.706.706 0 0 1-.702-.705ZM39.621 40.584c0-.388.316-.705.703-.705a.706.706 0 0 1 0 1.41.706.706 0 0 1-.703-.705ZM41.8 34.171a.48.48 0 0 1 .493-.493.48.48 0 0 1 .491.493.48.48 0 0 1-.491.493.48.48 0 0 1-.492-.493ZM46.016 23.353c0-.81.632-1.445 1.44-1.445.808 0 1.44.634 1.44 1.445 0 .81-.632 1.445-1.44 1.445-.808 0-1.44-.67-1.44-1.445ZM40.5 28.04c0-.458.386-.846.843-.846.457 0 .843.388.843.846a.856.856 0 0 1-.843.846c-.457.035-.843-.353-.843-.846ZM33.719 7.25c0-.317.246-.563.562-.563.316 0 .562.246.562.563a.556.556 0 0 1-.562.564.556.556 0 0 1-.562-.564ZM48.159 35.404a.856.856 0 0 0-.843-.845.856.856 0 0 0-.843.845c0 .458.386.846.843.846.491-.035.843-.388.843-.846ZM20.515 14.931a2.448 2.448 0 0 0-2.458-2.466 2.448 2.448 0 0 0-2.46 2.466 2.448 2.448 0 0 0 2.46 2.467c1.334.035 2.459-1.092 2.459-2.467ZM40.361 11.55a1.48 1.48 0 0 0 1.722 1.197 1.483 1.483 0 0 0 1.194-1.726 1.48 1.48 0 0 0-1.721-1.198 1.51 1.51 0 0 0-1.195 1.726ZM39.342 19.301c.105.564.632.952 1.194.846.562-.106.948-.634.843-1.198-.105-.564-.632-.951-1.194-.846-.562.07-.949.635-.843 1.198ZM35.198 46.468a.983.983 0 1 0-1.968 0 .983.983 0 1 0 1.968 0Z"/><path fill="#2D3037" d="M38.286 42.803a.706.706 0 0 1-.703.705H19.81a.706.706 0 0 1-.703-.705c0-1.374 1.124-2.502 2.46-2.502h4.952a3.236 3.236 0 0 1-.913-1.233c-.07-.14-.14-.317-.176-.458h.07c-.034 0-.07-.035-.105-.035v.035l-.843.07-4.672.353h-.07a.795.795 0 0 1-.773-.705v-.14a.753.753 0 0 1 .703-.811l2.494-.176.597-.035 2.494-.177h.07-.07l-3.688-.916-.668-.176-4.18-1.057c-.597-.141-.983-.775-.808-1.374l.07-.282c.07-.282.246-.529.527-.705.281-.176.562-.211.843-.14l1.932.492.492.106 5.304 1.34 1.37.352.422.105c.386-.247.808-.387 1.3-.458.843-.14 1.616.07 2.283.458 2.424-.916 3.829-3.523 3.232-6.096-.317-1.268-1.054-2.36-2.038-3.065-.246.07-.491.105-.737.105-.282 0-.563-.035-.843-.105l-1.722-.529-.597 2.009c-.07.282-.246.493-.527.634-.175.07-.316.14-.492.14-.105 0-.21 0-.316-.034l-.175-.07-.492 1.585a.822.822 0 0 1-.808.599c-.07 0-.176 0-.246-.035l-1.3-.388-.421-.141-.738-.211a.833.833 0 0 1-.562-1.058l.492-1.585-.422-.141a1.07 1.07 0 0 1-.702-1.339l.316-.987.28-.986 2.39-7.964a.832.832 0 0 1 .421-.493.872.872 0 0 1 .668-.07l.737.246 1.265-4.193-.316-.106c-.176-.035-.246-.211-.211-.387.035-.141.175-.212.28-.212h.071l4.18 1.269c.176.035.246.211.211.388-.035.14-.175.21-.28.21h-.071l-.316-.105-1.265 4.193.843.247c.21.07.386.211.527.423a.88.88 0 0 1 .07.67l-.667 2.254 1.65.494c.809.246 1.441.81 1.792 1.515a9.68 9.68 0 0 1 4.602 6.237c1.16 4.898-1.616 9.83-6.253 11.451-.21.494-.527.952-.948 1.269h4.777c1.3-.07 2.424 1.057 2.424 2.431Z"/><g fill="#2D3037"><path d="M8.094 72.24h-.949v-6.29l-2.564 6.29h-.386l-2.579-6.287v6.286H.668v-7.642h1.36l2.363 5.747 2.375-5.747h1.328v7.642ZM20.355 72.241h-4.988V64.6h4.988v.845h-4.04v2.467h3.96v.846h-3.96v2.632h4.04v.852ZM26.813 73.65v-2.174c.282-.007.557-.09.797-.24.26-.232.448-.534.54-.87.204-.625.34-1.27.405-1.924l.467-3.834h4.658v6.79h.703v2.252h-.949v-1.41h-5.67v1.41h-.951Zm2.683-5.141c-.175 1.473-.563 2.435-1.162 2.886h4.405v-5.948h-2.867l-.376 3.062ZM41.98 72.241h-.914V64.6h.949v5.965L46.38 64.6h.97v7.642h-.949v-6.096l-4.422 6.096ZM55.346 64.599v2.005c0 1.174.585 1.761 1.756 1.761a5.66 5.66 0 0 0 1.757-.264V64.61h.948v7.632h-.949v-3.298a6.942 6.942 0 0 1-1.837.264 2.585 2.585 0 0 1-1.967-.704 2.672 2.672 0 0 1-.667-1.917v-1.98l.959-.007ZM73.43 72.241h-.95v-3.523h-4.453v3.523h-.949V64.6h.949v3.287h4.45V64.6h.952v7.642ZM87.205 72.241H86.12l-.675-1.695h-3.79l-.671 1.695h-1.086l3.06-7.635h1.177l3.07 7.635Zm-2.044-2.54-1.61-4.112-1.619 4.112h3.228ZM101.57 72.371v-.835c.284.013.564-.068.798-.229.264-.245.454-.56.548-.909.198-.635.332-1.29.4-1.952l.467-3.834h4.658v7.629h-.938v-6.794h-2.866l-.376 3.055a11.71 11.71 0 0 1-.393 2.016 3.138 3.138 0 0 1-.605 1.184c-.2.235-.454.418-.741.532-.307.1-.629.147-.952.137ZM122.221 72.241h-1.086l-.674-1.695h-3.787L116 72.241h-1.086l3.06-7.635h1.176l3.071 7.635Zm-2.045-2.54-1.609-4.112-1.619 4.112h3.228ZM128.691 64.599h4.942v.845h-3.997v2.188h2.107a2.309 2.309 0 0 1 1.757.663 2.408 2.408 0 0 1 0 3.273 2.317 2.317 0 0 1-1.757.663h-3.059l.007-7.632Zm2.943 3.876h-1.998v2.907h1.998a1.513 1.513 0 0 0 1.096-.406 1.511 1.511 0 0 0 0-2.096 1.511 1.511 0 0 0-1.096-.398v-.007ZM144.338 72.372a3.56 3.56 0 0 1-2.73-1.12 4.331 4.331 0 0 1 0-5.656 3.86 3.86 0 0 1 5.449 0 4.316 4.316 0 0 1 0 5.655 3.584 3.584 0 0 1-2.719 1.12Zm0-.846a2.566 2.566 0 0 0 2.027-.877 3.612 3.612 0 0 0 0-4.461 2.805 2.805 0 0 0-4.058 0 3.637 3.637 0 0 0 0 4.46 2.574 2.574 0 0 0 2.031.889v-.01ZM156.027 72.241h-.949V64.6h3.06a2.31 2.31 0 0 1 1.756.662 2.41 2.41 0 0 1 0 3.273 2.315 2.315 0 0 1-1.756.663h-2.108l-.003 3.044Zm1.998-3.876a1.512 1.512 0 0 0 1.096-.405 1.511 1.511 0 0 0 0-2.096 1.516 1.516 0 0 0-1.096-.406h-1.998v2.907h1.998ZM173.776 72.241h-1.086l-.674-1.695h-3.787l-.671 1.695h-1.085l3.059-7.635h1.177l3.067 7.635Zm-2.045-2.54-1.609-4.112-1.619 4.112h3.228ZM183.077 72.24h-.949v-6.793h-2.409v-.845h5.768v.845h-2.421l.011 6.794ZM195.701 72.372a3.563 3.563 0 0 1-2.729-1.12 4.327 4.327 0 0 1-1.05-2.828c0-1.039.372-2.043 1.05-2.828a3.857 3.857 0 0 1 5.448 0 4.316 4.316 0 0 1 0 5.655 3.575 3.575 0 0 1-2.719 1.12Zm0-.846a2.563 2.563 0 0 0 2.027-.877 3.612 3.612 0 0 0 0-4.461 2.804 2.804 0 0 0-4.057 0 3.631 3.631 0 0 0 0 4.46 2.561 2.561 0 0 0 2.03.889v-.01ZM207.386 72.241h-.949V64.6h3.06a2.31 2.31 0 0 1 1.756.662 2.405 2.405 0 0 1 0 3.273 2.315 2.315 0 0 1-1.756.663h-2.108l-.003 3.044Zm1.988-3.876a1.51 1.51 0 0 0 1.096-.405 1.51 1.51 0 0 0 0-2.096 1.52 1.52 0 0 0-1.096-.406h-1.999v2.907h1.999ZM219.562 72.241h-.949V64.6h.949v7.642ZM227.579 72.241h-1.106l2.055-3.115a2.165 2.165 0 0 1-1.405-.651 2.12 2.12 0 0 1-.577-1.569 2.199 2.199 0 0 1 .668-1.67 2.416 2.416 0 0 1 1.728-.63h3.06v7.635h-.949v-3.034h-1.528l-1.946 3.034Zm1.469-3.876h2.009v-2.92h-2.009a1.512 1.512 0 0 0-1.096.404 1.508 1.508 0 0 0 0 2.114 1.506 1.506 0 0 0 1.096.402Z"/></g></svg>