<svg xmlns="http://www.w3.org/2000/svg" width="80" height="80" fill="none"><g fill="#50AB09"><path d="M50.833 59.238a1 1 0 0 1-1 1h-.023a1 1 0 0 1-1-1v-.024a1 1 0 0 1 1-1h.023a1 1 0 0 1 1 1v.024Zm-4.047 0a1 1 0 0 1-1 1h-.024a1 1 0 0 1-1-1v-.024a1 1 0 0 1 1-1h.024a1 1 0 0 1 1 1v.024Zm-4.048 0a1 1 0 0 1-1 1h-.024a1 1 0 0 1-1-1v-.024a1 1 0 0 1 1-1h.024a1 1 0 0 1 1 1v.024Zm-4.048 0a1 1 0 0 1-1 1h-.023a1 1 0 0 1-1-1v-.024a1 1 0 0 1 1-1h.023a1 1 0 0 1 1 1v.024Zm-4.047 0a1 1 0 0 1-1 1h-.024a1 1 0 0 1-1-1v-.024a1 1 0 0 1 1-1h.024a1 1 0 0 1 1 1v.024Zm-4.048 0a1 1 0 0 1-1 1h-.024a1 1 0 0 1-1-1v-.024a1 1 0 0 1 1-1h.024a1 1 0 0 1 1 1v.024Zm-4.047 0a1 1 0 0 1-1 1h-.024a1 1 0 0 1-1-1v-.024a1 1 0 0 1 1-1h.024a1 1 0 0 1 1 1v.024Zm-4.048 0a1 1 0 0 1-1 1h-.024a1 1 0 0 1-1-1v-.024a1 1 0 0 1 1-1h.024a1 1 0 0 1 1 1v.024Zm-4.048 0a1 1 0 0 1-1 1h-.024a1 1 0 0 1-1-1v-.024a1 1 0 0 1 1-1h.024a1 1 0 0 1 1 1v.024Zm-4.047 0a1 1 0 0 1-1 1h-.024a1 1 0 0 1-1-1v-.024a1 1 0 0 1 1-1h.024a1 1 0 0 1 1 1v.024Zm36.428 4.048a1 1 0 0 1-1 1h-.023a1 1 0 0 1-1-1v-.024a1 1 0 0 1 1-1h.023a1 1 0 0 1 1 1v.024Zm-4.047 0a1 1 0 0 1-1 1h-.024a1 1 0 0 1-1-1v-.024a1 1 0 0 1 1-1h.024a1 1 0 0 1 1 1v.024Zm-4.048 0a1 1 0 0 1-1 1h-.024a1 1 0 0 1-1-1v-.024a1 1 0 0 1 1-1h.024a1 1 0 0 1 1 1v.024Zm-4.048 0a1 1 0 0 1-1 1h-.023a1 1 0 0 1-1-1v-.024a1 1 0 0 1 1-1h.023a1 1 0 0 1 1 1v.024Zm-4.047 0a1 1 0 0 1-1 1h-.024a1 1 0 0 1-1-1v-.024a1 1 0 0 1 1-1h.024a1 1 0 0 1 1 1v.024Zm-4.048 0a1 1 0 0 1-1 1h-.024a1 1 0 0 1-1-1v-.024a1 1 0 0 1 1-1h.024a1 1 0 0 1 1 1v.024Zm-4.047 0a1 1 0 0 1-1 1h-.024a1 1 0 0 1-1-1v-.024a1 1 0 0 1 1-1h.024a1 1 0 0 1 1 1v.024Zm-4.048 0a1 1 0 0 1-1 1h-.024a1 1 0 0 1-1-1v-.024a1 1 0 0 1 1-1h.024a1 1 0 0 1 1 1v.024Zm-4.048 0a1 1 0 0 1-1 1h-.024a1 1 0 0 1-1-1v-.024a1 1 0 0 1 1-1h.024a1 1 0 0 1 1 1v.024Zm-4.047 0a1 1 0 0 1-1 1h-.024a1 1 0 0 1-1-1v-.024a1 1 0 0 1 1-1h.024a1 1 0 0 1 1 1v.024Zm46.547-46.572a1 1 0 0 1 1-1h6.096a1 1 0 0 1 1 1v.024a1 1 0 0 1-1 1h-6.096a1 1 0 0 1-1-1v-.024Zm0 4.048a1 1 0 0 1 1-1h6.096a1 1 0 0 1 1 1v.024a1 1 0 0 1-1 1h-6.096a1 1 0 0 1-1-1v-.024Zm0 4.047a1 1 0 0 1 1-1h6.096a1 1 0 0 1 1 1v.024a1 1 0 0 1-1 1h-6.096a1 1 0 0 1-1-1v-.023Z"/><path d="M70.06 11.667H59.94a3.036 3.036 0 0 0-3.035 3.035V50.12h16.19V14.702a3.036 3.036 0 0 0-3.035-3.035Zm1.011 36.428H58.93V14.702a1.012 1.012 0 0 1 1.011-1.011h10.12a1.012 1.012 0 0 1 1.011 1.011v33.393Zm-19.226 6.072H11.37a3.036 3.036 0 0 0-3.036 3.035v8.096a3.036 3.036 0 0 0 3.036 3.035h40.476a3.036 3.036 0 0 0 3.036-3.035v-8.096a3.036 3.036 0 0 0-3.036-3.035Zm1.012 11.13a1.012 1.012 0 0 1-1.012 1.013H11.37a1.012 1.012 0 0 1-1.012-1.012v-8.096a1.012 1.012 0 0 1 1.012-1.011h40.476a1.012 1.012 0 0 1 1.012 1.011v8.096Zm11.131-11.13a5.065 5.065 0 0 0-5.06 5.06v4.047a5.06 5.06 0 0 0 10.12 0v-4.048a5.065 5.065 0 0 0-5.06-5.06Zm3.036 9.107a3.036 3.036 0 0 1-6.072 0v-4.048a3.036 3.036 0 0 1 2.024-2.85v2.862a1 1 0 0 0 1 1H64a1 1 0 0 0 1-1v-2.861a3.037 3.037 0 0 1 2.024 2.85v4.047ZM51.845 11.667H11.37a3.036 3.036 0 0 0-3.036 3.035v24.286a3.036 3.036 0 0 0 3.036 3.036h14.167v4.216a1.857 1.857 0 0 1-1.855 1.855h-2.205a1 1 0 0 0-1 1v.024a1 1 0 0 0 1 1h18.238a1 1 0 0 0 1-1v-.024a1 1 0 0 0-1-1H37.51a1.857 1.857 0 0 1-1.855-1.855v-4.216h16.19a3.036 3.036 0 0 0 3.036-3.036V14.702a3.036 3.036 0 0 0-3.036-3.035ZM27.086 48.095a3.85 3.85 0 0 0 .474-1.855v-4.216h2.023v4.3h2.024v-4.3h2.024v4.216c0 .649.162 1.287.473 1.855h-7.018Zm25.771-9.107A1.012 1.012 0 0 1 51.845 40H11.37a1.012 1.012 0 0 1-1.012-1.012v-5.06h42.5v5.06Zm0-7.083h-42.5V14.702a1.012 1.012 0 0 1 1.012-1.011h40.476a1.012 1.012 0 0 1 1.012 1.011v17.203Z"/><path d="M66.012 38.12v-1.168a1 1 0 0 0-1-1h-.024a1 1 0 0 0-1 1v1.168a4.048 4.048 0 1 0 2.024 0ZM65 44.048a2.017 2.017 0 0 1-1.012-3.767v1.743h2.024V40.28A2.018 2.018 0 0 1 65 44.048Zm-35.417-7.096a1 1 0 0 1 1-1h.024a1 1 0 0 1 1 1v.024a1 1 0 0 1-1 1h-.024a1 1 0 0 1-1-1v-.024Z"/></g></svg>