<svg xmlns="http://www.w3.org/2000/svg" width="80" height="80" fill="none"><path fill="#50AB09" stroke="#50AB09" stroke-width=".2" d="M31.765 48.841c-.717-.234-1.793-.745-2.234-1.53m2.235 1.53c.69-1.31 2.606-4.813 3.848-6.386 1.572-1.972 2.441-4.483 2.441-7.103v-2.497c0-4.565-.827-9.352-2.51-14.676m-3.78 30.662.032-.095a6.817 6.817 0 0 1-.08-.026m.049.121-.089-.046.04-.075m-2.186-1.41 6.014-29.13M29.53 47.31c-.483-.855-.51-1.89-.069-2.827m.07 2.827-.07-2.827m6.083-26.304-.096.03m.096-.03-.095.03m0 0c1.68 5.317 2.505 10.093 2.505 14.646v2.497c0 2.599-.861 5.087-2.42 7.04v.001c-1.225 1.552-3.098 4.963-3.818 6.327m3.733-30.51a9.67 9.67 0 0 1-.46-2.941c0-2.12.78-4.08 1.724-5.675.943-1.596 2.053-2.833 2.718-3.512V6.08c.163-.162.372-.207.553-.235l.008-.001h.009a.76.76 0 0 1 .553.252 18.041 18.041 0 0 1 2.736 3.485c.949 1.593 1.733 3.56 1.733 5.7 0 .95-.153 1.939-.474 2.941C42.87 23.54 42.06 28.33 42.06 32.87v2.496c0 2.613.861 5.101 2.405 7.041 1.254 1.568 3.159 5.068 3.864 6.39.425-.102 1.023-.312 1.521-.733.524-.442.94-1.12.92-2.17-.04-1.484-1.108-2.668-2.532-2.828h-.002c-1.176-.158-1.969-1.054-1.852-2.151v-.003l1.697-13.363a17.168 17.168 0 0 1 3.066-8.102M31.716 48.72a5.725 5.725 0 0 1-1.119-.522c-.406-.251-.77-.564-.979-.937-.466-.825-.494-1.825-.065-2.736.368-.789 1.174-1.326 2.338-1.502a2.06 2.06 0 0 0 1.712-2.261v-.002l-1.67-13.24-.099.011m0 0 .1-.012a17.336 17.336 0 0 0-3.066-8.1v-.001a17.27 17.27 0 0 0-6.646-5.591c-.16-.076-.458-.151-.803-.156a2.205 2.205 0 0 0-1.123.27m11.538 13.59a17.234 17.234 0 0 0-3.048-8.055 17.17 17.17 0 0 0-6.607-5.559c-.29-.138-1.13-.29-1.834.11m11.49 13.504 1.669 13.241M20.296 13.94c-.4.223-.888.706-1.002 1.718v43.307c0 1.132.913 2.045 2.044 2.045h9.444M20.296 13.94l.049.088m-.05-.088.05.088M30.782 61.01l.102.33c2.129 6.774 7.51 11.543 7.768 11.757m-7.87-12.087-.022-.07.095-.03m-.073.1h.073v-.1m7.797 12.187c.376.332.854.52 1.348.52.493 0 .986-.188 1.349-.507.237-.21 5.648-5.025 7.78-11.77h.001l.102-.33m-10.58 12.087-.001-.001.066-.075m-.065.076h.002l.063-.076m10.515-12.01h9.43a2.043 2.043 0 0 0 2.045-2.046V15.684c0-.712-.257-1.326-.744-1.68M49.233 61.01h-.074v-.1l.095.03-.022.07Zm10.73-47.008-.06.08.06-.08Zm0 0c-.532-.398-1.23-.447-2.074-.194-3.126.92-5.35 3.665-6.743 5.638m0 0 .082.057-.082-.057ZM38.717 73.02c-.234-.193-5.614-4.952-7.738-11.71m7.738 11.71c.359.317.814.496 1.283.496s.938-.18 1.283-.483c.234-.206 5.627-5.006 7.752-11.724H30.979m0 0-.124-.4m.124.4 2.525-20.538m-4.042 3.71c.386-.827 1.228-1.379 2.414-1.558a1.96 1.96 0 0 0 1.628-2.152m-4.042 3.71 4.042-3.71M30.855 60.91h-9.517a1.943 1.943 0 0 1-1.945-1.944V15.669c.11-.98.58-1.434.952-1.641m27.546 45.97v-.002c.11-.33.41-.551.757-.551h10.014a.477.477 0 0 0 .466-.466V15.67a.933.933 0 0 0-.04-.28.319.319 0 0 0-.076-.14c-.013-.01-.069-.035-.193-.035-.118 0-.28.022-.488.082-2.639.776-4.621 3.244-5.89 5.038h-.001a15.58 15.58 0 0 0-2.782 7.373v.002l-1.696 13.363v.002c-.016.148.059.239.166.302a.83.83 0 0 0 .31.097c2.218.24 3.868 2.076 3.924 4.359.035 1.655-.675 2.774-1.586 3.493-.908.716-2.014 1.035-2.78 1.106h-.005c-.324.015-.626-.14-.77-.428l-.002-.004-.007-.013-.024-.045a49.374 49.374 0 0 0-.397-.745c-.261-.486-.622-1.147-1.028-1.862-.813-1.434-1.798-3.079-2.517-3.975-1.78-2.212-2.753-5.062-2.753-8.021V32.84c0-4.715.83-9.663 2.556-15.12a8.055 8.055 0 0 0 .41-2.466c0-1.625-.569-3.177-1.295-4.495a16.25 16.25 0 0 0-2.15-2.984c-1.352 1.496-3.431 4.335-3.431 7.48 0 .816.136 1.647.395 2.465 1.727 5.456 2.57 10.405 2.57 15.12v2.497c0 2.946-.986 5.796-2.766 8.021-.712.896-1.694 2.541-2.505 3.975a103.67 103.67 0 0 0-1.424 2.607l-.023.045-.007.013-.002.003v.001l-.002.004a.813.813 0 0 1-.863.409 7.092 7.092 0 0 1-1.516-.522c-.78-.366-1.684-.956-2.196-1.858-.72-1.285-.776-2.808-.128-4.189.597-1.292 1.858-2.135 3.524-2.387h.002a.467.467 0 0 0 .396-.511l-1.668-13.24v-.002a15.693 15.693 0 0 0-2.783-7.36c-1.559-2.174-3.636-3.94-6.014-5.077h-.01l-.038-.005a1.214 1.214 0 0 0-.118-.006.722.722 0 0 0-.346.08c-.087.059-.162.187-.189.432v43.208c0 .248.218.466.466.466h10.027a.795.795 0 0 1 .758.552l.276.883c1.991 6.372 7.076 10.854 7.294 11.045.184.16.472.145.612.015l.002-.002c.204-.177 5.317-4.727 7.308-11.058l.276-.882Zm0 0-.276.882.276-.882Zm-2.967-44.715c0-4.235-3.103-7.793-4.441-9.117l7.765 36.8c1.476.165 2.58 1.393 2.621 2.924.041 2.165-1.724 2.827-2.593 3.02-.676-1.269-2.62-4.855-3.89-6.441C42.828 40.51 41.96 38 41.96 35.365V32.87c0-4.552.813-9.352 2.496-14.676a9.567 9.567 0 0 0 .47-2.91Z"/><mask id="a" width="37" height="53" x="21.566" y="17.441" fill="#000" maskUnits="userSpaceOnUse"><path fill="#fff" d="M21.566 17.441h37v53h-37z"/><path d="m45.131 60.234-10.193-.082c-.22 0-.428.11-.566.29a.687.687 0 0 0-.082.634c1.338 3.696 3.834 6.73 5.214 8.207a.697.697 0 0 0 1.02 0c1.366-1.476 3.848-4.483 5.255-8.11a.69.69 0 0 0-.069-.635.806.806 0 0 0-.579-.303ZM40 67.794c-1.2-1.38-2.91-3.6-4.041-6.25l8.138.07C42.91 64.22 41.2 66.428 40 67.794ZM56.786 47.13l-2.262-.041c-.276 0-.593.193-.676.496-.634 2.166-2.358 3.766-4.51 4.207a.669.669 0 0 0-.441.303c-.097.152-.138.345-.097.525.235 1.075.317 3.862.29 4.276-.028.179 0 .358.096.51a.683.683 0 0 0 .58.303h6.951c.373 0 .69-.303.69-.69l.055-9.2a.698.698 0 0 0-.676-.689Zm-.758 9.2h-5.559c0-.966-.11-2.428-.22-3.352 2.192-.648 3.944-2.317 4.758-4.51l1.076.014-.055 7.848Zm-10.47-4.303h-.413a3.87 3.87 0 0 0-3.862 3.448v.234c0 .318 0 .91-.014 1.131a.689.689 0 0 0 .662.87h4.014a.691.691 0 0 0 .69-.635c.027-.331.04-.676.04-1.007 0-1.062-.137-2.235-.427-3.504a.733.733 0 0 0-.69-.537Zm-.289 4.303h-2.62v-.759c.137-1.172 1.144-2.096 2.344-2.165.193.965.29 1.848.29 2.662 0 .096 0 .18-.014.262Zm-6.538.703V55.49c-.22-1.959-1.89-3.435-3.78-3.435h-.013l-.359-.041a.69.69 0 0 0-.745.51 13.751 13.751 0 0 0-.496 3.572v.263c0 .22 0 .427-.014.62a.76.76 0 0 0 .166.538.662.662 0 0 0 .51.235h4.014c.4-.042.703-.345.717-.718Zm-1.38-.703h-2.62v-.262c0-.855.11-1.738.303-2.662 1.2.083 2.18 1.007 2.318 2.11v.814Zm-6.606-4.469c-2.207-.497-3.945-2.124-4.51-4.22a.71.71 0 0 0-.649-.511l-2.262-.055a.793.793 0 0 0-.496.193.656.656 0 0 0-.207.497l-.055 9.269a.7.7 0 0 0 .206.496.67.67 0 0 0 .483.207h6.952a.698.698 0 0 0 .69-.676c.027-1.117.138-3.448.372-4.331a.672.672 0 0 0-.069-.538.759.759 0 0 0-.455-.331Zm-1.228 4.469h-5.586l.055-7.862 1.062.027c.759 2.152 2.51 3.821 4.731 4.538-.151 1.021-.22 2.456-.262 3.297Zm6.304-6.745a6.404 6.404 0 0 1 3.683 1.904.655.655 0 0 0 .496.206.71.71 0 0 0 .497-.206c.979-1.021 2.303-1.683 3.613-1.821a.68.68 0 0 0 .538-.359.676.676 0 0 0 0-.648c-1.269-2.441-2.855-4.386-4.082-5.82a.662.662 0 0 0-.51-.235c-.208.028-.387.083-.525.22-.938 1.008-2.745 3.104-4.22 5.739a.688.688 0 0 0-.014.634.722.722 0 0 0 .524.386Zm4.207-5.241c.938 1.117 2 2.51 2.938 4.138A7.142 7.142 0 0 0 40 50.069a7.888 7.888 0 0 0-3.007-1.628 30.64 30.64 0 0 1 3.035-4.096Zm17.075-25.793a.675.675 0 0 0-.73.096 14.227 14.227 0 0 0-2.525 2.704 14.021 14.021 0 0 0-2.469 6.524l-1.544 11.572a.706.706 0 0 0 .427.731c1.71.704 3.062 2.207 3.517 3.917.083.304.359.51.662.51h2.262c.387 0 .69-.303.69-.689l.097-24.745a.667.667 0 0 0-.387-.62Zm-1.075 24.676h-1.076c-.62-1.766-1.959-3.256-3.683-4.11l1.476-11.077a12.63 12.63 0 0 1 2.22-5.89 12.15 12.15 0 0 1 1.145-1.379l-.082 22.456ZM23.24 44.607h2.276c.304 0 .58-.207.662-.497.524-1.751 1.862-3.241 3.518-3.876a.696.696 0 0 0 .441-.73l-1.504-11.628a14.071 14.071 0 0 0-2.468-6.538c-.621-.87-1.366-1.724-2.373-2.704a.678.678 0 0 0-.745-.137.688.688 0 0 0-.427.634l-.055 24.786c0 .18.069.359.206.483.11.138.276.207.47.207Zm.745-23.766c.4.456.745.883 1.049 1.31a12.48 12.48 0 0 1 2.22 5.904l1.435 11.117a7.365 7.365 0 0 0-3.67 4.056h-1.089l.055-22.387Z"/></mask><path fill="#50AB09" d="m45.131 60.234-10.193-.082c-.22 0-.428.11-.566.29a.687.687 0 0 0-.082.634c1.338 3.696 3.834 6.73 5.214 8.207a.697.697 0 0 0 1.02 0c1.366-1.476 3.848-4.483 5.255-8.11a.69.69 0 0 0-.069-.635.806.806 0 0 0-.579-.303ZM40 67.794c-1.2-1.38-2.91-3.6-4.041-6.25l8.138.07C42.91 64.22 41.2 66.428 40 67.794ZM56.786 47.13l-2.262-.041c-.276 0-.593.193-.676.496-.634 2.166-2.358 3.766-4.51 4.207a.669.669 0 0 0-.441.303c-.097.152-.138.345-.097.525.235 1.075.317 3.862.29 4.276-.028.179 0 .358.096.51a.683.683 0 0 0 .58.303h6.951c.373 0 .69-.303.69-.69l.055-9.2a.698.698 0 0 0-.676-.689Zm-.758 9.2h-5.559c0-.966-.11-2.428-.22-3.352 2.192-.648 3.944-2.317 4.758-4.51l1.076.014-.055 7.848Zm-10.47-4.303h-.413a3.87 3.87 0 0 0-3.862 3.448v.234c0 .318 0 .91-.014 1.131a.689.689 0 0 0 .662.87h4.014a.691.691 0 0 0 .69-.635c.027-.331.04-.676.04-1.007 0-1.062-.137-2.235-.427-3.504a.733.733 0 0 0-.69-.537Zm-.289 4.303h-2.62v-.759c.137-1.172 1.144-2.096 2.344-2.165.193.965.29 1.848.29 2.662 0 .096 0 .18-.014.262Zm-6.538.703V55.49c-.22-1.959-1.89-3.435-3.78-3.435h-.013l-.359-.041a.69.69 0 0 0-.745.51 13.751 13.751 0 0 0-.496 3.572v.263c0 .22 0 .427-.014.62a.76.76 0 0 0 .166.538.662.662 0 0 0 .51.235h4.014c.4-.042.703-.345.717-.718Zm-1.38-.703h-2.62v-.262c0-.855.11-1.738.303-2.662 1.2.083 2.18 1.007 2.318 2.11v.814Zm-6.606-4.469c-2.207-.497-3.945-2.124-4.51-4.22a.71.71 0 0 0-.649-.511l-2.262-.055a.793.793 0 0 0-.496.193.656.656 0 0 0-.207.497l-.055 9.269a.7.7 0 0 0 .206.496.67.67 0 0 0 .483.207h6.952a.698.698 0 0 0 .69-.676c.027-1.117.138-3.448.372-4.331a.672.672 0 0 0-.069-.538.759.759 0 0 0-.455-.331Zm-1.228 4.469h-5.586l.055-7.862 1.062.027c.759 2.152 2.51 3.821 4.731 4.538-.151 1.021-.22 2.456-.262 3.297Zm6.304-6.745a6.404 6.404 0 0 1 3.683 1.904.655.655 0 0 0 .496.206.71.71 0 0 0 .497-.206c.979-1.021 2.303-1.683 3.613-1.821a.68.68 0 0 0 .538-.359.676.676 0 0 0 0-.648c-1.269-2.441-2.855-4.386-4.082-5.82a.662.662 0 0 0-.51-.235c-.208.028-.387.083-.525.22-.938 1.008-2.745 3.104-4.22 5.739a.688.688 0 0 0-.014.634.722.722 0 0 0 .524.386Zm4.207-5.241c.938 1.117 2 2.51 2.938 4.138A7.142 7.142 0 0 0 40 50.069a7.888 7.888 0 0 0-3.007-1.628 30.64 30.64 0 0 1 3.035-4.096Zm17.075-25.793a.675.675 0 0 0-.73.096 14.227 14.227 0 0 0-2.525 2.704 14.021 14.021 0 0 0-2.469 6.524l-1.544 11.572a.706.706 0 0 0 .427.731c1.71.704 3.062 2.207 3.517 3.917.083.304.359.51.662.51h2.262c.387 0 .69-.303.69-.689l.097-24.745a.667.667 0 0 0-.387-.62Zm-1.075 24.676h-1.076c-.62-1.766-1.959-3.256-3.683-4.11l1.476-11.077a12.63 12.63 0 0 1 2.22-5.89 12.15 12.15 0 0 1 1.145-1.379l-.082 22.456ZM23.24 44.607h2.276c.304 0 .58-.207.662-.497.524-1.751 1.862-3.241 3.518-3.876a.696.696 0 0 0 .441-.73l-1.504-11.628a14.071 14.071 0 0 0-2.468-6.538c-.621-.87-1.366-1.724-2.373-2.704a.678.678 0 0 0-.745-.137.688.688 0 0 0-.427.634l-.055 24.786c0 .18.069.359.206.483.11.138.276.207.47.207Zm.745-23.766c.4.456.745.883 1.049 1.31a12.48 12.48 0 0 1 2.22 5.904l1.435 11.117a7.365 7.365 0 0 0-3.67 4.056h-1.089l.055-22.387Z"/><path stroke="#50AB09" stroke-width=".4" d="m45.131 60.234-10.193-.082c-.22 0-.428.11-.566.29a.687.687 0 0 0-.082.634c1.338 3.696 3.834 6.73 5.214 8.207a.697.697 0 0 0 1.02 0c1.366-1.476 3.848-4.483 5.255-8.11a.69.69 0 0 0-.069-.635.806.806 0 0 0-.579-.303ZM40 67.794c-1.2-1.38-2.91-3.6-4.041-6.25l8.138.07C42.91 64.22 41.2 66.428 40 67.794ZM56.786 47.13l-2.262-.041c-.276 0-.593.193-.676.496-.634 2.166-2.358 3.766-4.51 4.207a.669.669 0 0 0-.441.303c-.097.152-.138.345-.097.525.235 1.075.317 3.862.29 4.276-.028.179 0 .358.096.51a.683.683 0 0 0 .58.303h6.951c.373 0 .69-.303.69-.69l.055-9.2a.698.698 0 0 0-.676-.689Zm-.758 9.2h-5.559c0-.966-.11-2.428-.22-3.352 2.192-.648 3.944-2.317 4.758-4.51l1.076.014-.055 7.848Zm-10.47-4.303h-.413a3.87 3.87 0 0 0-3.862 3.448v.234c0 .318 0 .91-.014 1.131a.689.689 0 0 0 .662.87h4.014a.691.691 0 0 0 .69-.635c.027-.331.04-.676.04-1.007 0-1.062-.137-2.235-.427-3.504a.733.733 0 0 0-.69-.537Zm-.289 4.303h-2.62v-.759c.137-1.172 1.144-2.096 2.344-2.165.193.965.29 1.848.29 2.662 0 .096 0 .18-.014.262Zm-6.538.703V55.49c-.22-1.959-1.89-3.435-3.78-3.435h-.013l-.359-.041a.69.69 0 0 0-.745.51 13.751 13.751 0 0 0-.496 3.572v.263c0 .22 0 .427-.014.62a.76.76 0 0 0 .166.538.662.662 0 0 0 .51.235h4.014c.4-.042.703-.345.717-.718Zm-1.38-.703h-2.62v-.262c0-.855.11-1.738.303-2.662 1.2.083 2.18 1.007 2.318 2.11v.814Zm-6.606-4.469c-2.207-.497-3.945-2.124-4.51-4.22a.71.71 0 0 0-.649-.511l-2.262-.055a.793.793 0 0 0-.496.193.656.656 0 0 0-.207.497l-.055 9.269a.7.7 0 0 0 .206.496.67.67 0 0 0 .483.207h6.952a.698.698 0 0 0 .69-.676c.027-1.117.138-3.448.372-4.331a.672.672 0 0 0-.069-.538.759.759 0 0 0-.455-.331Zm-1.228 4.469h-5.586l.055-7.862 1.062.027c.759 2.152 2.51 3.821 4.731 4.538-.151 1.021-.22 2.456-.262 3.297Zm6.304-6.745a6.404 6.404 0 0 1 3.683 1.904.655.655 0 0 0 .496.206.71.71 0 0 0 .497-.206c.979-1.021 2.303-1.683 3.613-1.821a.68.68 0 0 0 .538-.359.676.676 0 0 0 0-.648c-1.269-2.441-2.855-4.386-4.082-5.82a.662.662 0 0 0-.51-.235c-.208.028-.387.083-.525.22-.938 1.008-2.745 3.104-4.22 5.739a.688.688 0 0 0-.014.634.722.722 0 0 0 .524.386Zm4.207-5.241c.938 1.117 2 2.51 2.938 4.138A7.142 7.142 0 0 0 40 50.069a7.888 7.888 0 0 0-3.007-1.628 30.64 30.64 0 0 1 3.035-4.096Zm17.075-25.793a.675.675 0 0 0-.73.096 14.227 14.227 0 0 0-2.525 2.704 14.021 14.021 0 0 0-2.469 6.524l-1.544 11.572a.706.706 0 0 0 .427.731c1.71.704 3.062 2.207 3.517 3.917.083.304.359.51.662.51h2.262c.387 0 .69-.303.69-.689l.097-24.745a.667.667 0 0 0-.387-.62Zm-1.075 24.676h-1.076c-.62-1.766-1.959-3.256-3.683-4.11l1.476-11.077a12.63 12.63 0 0 1 2.22-5.89 12.15 12.15 0 0 1 1.145-1.379l-.082 22.456ZM23.24 44.607h2.276c.304 0 .58-.207.662-.497.524-1.751 1.862-3.241 3.518-3.876a.696.696 0 0 0 .441-.73l-1.504-11.628a14.071 14.071 0 0 0-2.468-6.538c-.621-.87-1.366-1.724-2.373-2.704a.678.678 0 0 0-.745-.137.688.688 0 0 0-.427.634l-.055 24.786c0 .18.069.359.206.483.11.138.276.207.47.207Zm.745-23.766c.4.456.745.883 1.049 1.31a12.48 12.48 0 0 1 2.22 5.904l1.435 11.117a7.365 7.365 0 0 0-3.67 4.056h-1.089l.055-22.387Z" mask="url(#a)"/></svg>