<svg xmlns="http://www.w3.org/2000/svg" width="80" height="80" fill="none"><g fill="#50AB09"><path d="m68.073 54.527-2.328 2.329-2.627-2.627 2.329-2.328a1.016 1.016 0 0 0-1.436-1.437l-2.329 2.33-1.313-1.314a1.016 1.016 0 0 0-1.436 0l-4.658 4.658a3.05 3.05 0 0 0 0 4.308l.193.193c-4.492 3.218-9.75 4.934-15.301 4.934-14.561 0-26.407-11.846-26.407-26.406a3.05 3.05 0 0 0-3.046-3.047 3.05 3.05 0 0 0-3.047 3.047c0 17.92 14.579 32.5 32.5 32.5a32.575 32.575 0 0 0 19.68-6.65l.68.68c.574.575 1.34.892 2.155.892.816 0 1.581-.317 2.154-.89l4.658-4.658a1.012 1.012 0 0 0 .22-1.106 1.014 1.014 0 0 0-.22-.33l-1.313-1.313 2.329-2.329a1.015 1.015 0 1 0-1.437-1.436ZM39.167 69.635c-16.8 0-30.47-13.668-30.47-30.468a1.017 1.017 0 0 1 2.032 0c0 15.68 12.756 28.437 28.438 28.437 6.091 0 11.858-1.915 16.755-5.51l1.46 1.459c-5.292 3.967-11.557 6.082-18.215 6.082ZM62.4 64.262a1.046 1.046 0 0 1-1.436 0l-5.253-5.253a1.016 1.016 0 0 1 0-1.436l3.94-3.94 6.689 6.69-3.94 3.939Z"/><path d="M41.492 21.945a1.016 1.016 0 0 0-1.14.408L28.166 40.634a1.016 1.016 0 0 0 .845 1.58h7.11v13.203a1.015 1.015 0 0 0 1.86.563L50.168 37.7a1.015 1.015 0 0 0-.845-1.58h-7.11V22.917a1.016 1.016 0 0 0-.72-.972Zm5.934 16.206L38.15 52.062V41.198a1.016 1.016 0 0 0-1.016-1.016h-6.227l9.274-13.91v10.864a1.016 1.016 0 0 0 1.016 1.015h6.228Z"/><path d="M39.167 6.667a32.575 32.575 0 0 0-19.68 6.65l-.682-.681c-1.146-1.148-3.161-1.148-4.308 0L9.84 17.293a1.014 1.014 0 0 0 0 1.436l1.314 1.314-2.33 2.328a1.016 1.016 0 1 0 1.437 1.436l2.329-2.328 2.626 2.626-2.329 2.329a1.015 1.015 0 1 0 1.436 1.436l2.33-2.329 1.313 1.313a1.013 1.013 0 0 0 1.436 0l4.657-4.657a3.05 3.05 0 0 0 0-4.309l-.193-.193c4.492-3.22 9.751-4.935 15.302-4.935 14.56 0 26.406 11.847 26.406 26.407a3.05 3.05 0 0 0 3.047 3.047 3.05 3.05 0 0 0 3.047-3.047c0-17.921-14.58-32.5-32.5-32.5ZM22.622 20.76l-3.94 3.94-6.688-6.69 3.94-3.94a1.046 1.046 0 0 1 1.435 0l5.253 5.253a1.016 1.016 0 0 1 0 1.436ZM68.62 40.181c-.56 0-1.016-.456-1.016-1.015 0-15.682-12.757-28.438-28.437-28.438-6.092 0-11.859 1.916-16.756 5.511l-1.459-1.457c5.242-3.918 11.655-6.085 18.215-6.085 16.8 0 30.468 13.668 30.468 30.469 0 .56-.455 1.015-1.015 1.015Z"/></g></svg>