<svg xmlns="http://www.w3.org/2000/svg" width="13" height="23" fill="none"><path fill="#fff" stroke="#fff" d="M12.5.889v4.045a.392.392 0 0 1-.396.389H9.047a.623.623 0 0 0-.623.622V8.59h3.68c.124 0 .239.057.313.151.075.095.1.217.071.332l-1.019 4.045a.394.394 0 0 1-.384.295H8.424v7.702a.392.392 0 0 1-.396.389H3.953a.392.392 0 0 1-.396-.39v-7.7H.896a.392.392 0 0 1-.396-.39V8.98c0-.21.174-.389.396-.389h2.66V5.945C3.557 2.947 6.017.5 9.048.5h3.057c.223 0 .396.178.396.389ZM11.442 9.99l.157-.622H8.028a.392.392 0 0 1-.395-.389V5.945c0-.768.631-1.4 1.414-1.4h2.662V1.278H9.047c-2.588 0-4.699 2.09-4.699 4.667V8.98a.392.392 0 0 1-.396.39h-2.66v3.267h2.66c.223 0 .396.177.396.389v7.701h3.285v-7.701c0-.212.173-.39.395-.39h2.748l.095-.377.571-2.268Z"/></svg>