<svg xmlns="http://www.w3.org/2000/svg" width="232" height="49" fill="none"><path fill="#2D3037" d="M232 8.754h-11.103l-13.011 15.745-13.011-15.745h-11.16l14.456 17.566-14.456 17.566h11.16l13.011-15.804 13.011 15.803H232L217.543 26.32 232 8.754ZM68.524 36.306V30.08h22.263l-.173-7.579h-22.09v-6.227H93.91l3.932-7.637H58.867v35.249h40.594l-4.915-7.579H68.524ZM175.908 8.754h-9.31v35.132h9.31V8.754ZM26.6 18.506h-.346l11.045 9.34v20.857l9.425-4.7V18.506H26.601Z"/><path fill="#2D3037" d="M26.6 36.424c-1.446 0-4.163-.176-6.997-1.057-4.626-1.47-9.541-4.877-9.541-12.925 0-7.99 4.857-11.397 9.426-12.866 2.833-.94 5.609-1.057 7.054-1.116h.636c2.14 0 6.246.176 12.202 2.467l6.939-7.52C38.917.411 30.59 0 26.542 0 20.182 0 0 1.704 0 22.442s20.181 22.442 26.542 22.442h1.272l4.974-8.93c-2.487.47-4.395.529-5.61.529-.115-.059-.289-.059-.578-.059ZM131.784 33.428 116.171 8.754h-9.483v35.132h9.078v-22.09l16.018 25.38 15.96-25.38v22.09h9.079V8.754h-9.484l-15.555 24.674Z"/></svg>