<svg xmlns="http://www.w3.org/2000/svg" width="749" height="671" fill="none"><path stroke="url(#a)" stroke-miterlimit="10" stroke-width="1.658" d="M591.025 336.248h118.393"/><path stroke="url(#b)" stroke-miterlimit="10" stroke-width="1.658" d="m568.806 431.758 107.449 52.233"/><path stroke="url(#c)" stroke-miterlimit="10" stroke-width="1.658" d="m506.458 507.537 37.143 124.196"/><g opacity=".3"><path fill="url(#d)" d="M497.054 512.778c-3.384-4.319-2.461-10.644 1.846-14.037 4.308-3.394 10.615-2.623 13.999 1.851 3.385 4.319 2.616 10.644-1.846 14.037-1.846 1.389-3.999 2.006-6.153 2.006-2.923 0-6-1.389-7.846-3.857Z"/><path fill="url(#e)" d="M497.054 512.778c-3.384-4.319-2.461-10.644 1.846-14.037 4.308-3.394 10.615-2.623 13.999 1.851 3.385 4.319 2.616 10.644-1.846 14.037-1.846 1.389-3.999 2.006-6.153 2.006-2.923 0-6-1.389-7.846-3.857Z"/></g><g opacity=".3"><path fill="url(#f)" d="M563.512 439.556c-4.92-2.464-6.919-8.471-4.459-13.4s8.458-6.931 13.378-4.467c4.921 2.465 6.92 8.472 4.614 13.401-1.692 3.542-5.229 5.545-8.919 5.545-1.692 0-3.23-.463-4.614-1.079Z"/><path fill="url(#g)" d="M563.512 439.556c-4.92-2.464-6.919-8.471-4.459-13.4s8.458-6.931 13.378-4.467c4.921 2.465 6.92 8.472 4.614 13.401-1.692 3.542-5.229 5.545-8.919 5.545-1.692 0-3.23-.463-4.614-1.079Z"/></g><g opacity=".3"><path fill="url(#h)" d="M580 334.635a9.98 9.98 0 0 1 10-10 9.98 9.98 0 0 1 10 10 9.98 9.98 0 0 1-10 10 9.98 9.98 0 0 1-10-10Z"/><path fill="url(#i)" d="M580 334.635a9.98 9.98 0 0 1 10-10 9.98 9.98 0 0 1 10 10 9.98 9.98 0 0 1-10 10 9.98 9.98 0 0 1-10-10Z"/></g><g opacity=".3"><path fill="url(#j)" d="M558.056 244.09c-2.467-4.929-.463-10.936 4.472-13.401 4.935-2.464 10.949-.462 13.416 4.467 2.467 4.929.463 10.936-4.472 13.4-1.388.77-2.93 1.079-4.472 1.079-3.701 0-7.248-2.003-8.944-5.545Z"/><path fill="url(#k)" d="M558.056 244.09c-2.467-4.929-.463-10.936 4.472-13.401 4.935-2.464 10.949-.462 13.416 4.467 2.467 4.929.463 10.936-4.472 13.4-1.388.77-2.93 1.079-4.472 1.079-3.701 0-7.248-2.003-8.944-5.545Z"/></g><path fill="url(#l)" d="M676 227c22.091 0 40-17.909 40-40s-17.909-40-40-40-40 17.909-40 40 17.909 40 40 40Z"/><path fill="url(#m)" d="M676 227c22.091 0 40-17.909 40-40s-17.909-40-40-40-40 17.909-40 40 17.909 40 40 40Z"/><path fill="url(#n)" d="M709 375c22.091 0 40-17.909 40-40s-17.909-40-40-40-40 17.909-40 40 17.909 40 40 40Z"/><path fill="url(#o)" d="M709 375c22.091 0 40-17.909 40-40s-17.909-40-40-40-40 17.909-40 40 17.909 40 40 40Z"/><path fill="url(#p)" d="M676 523c22.091 0 40-17.909 40-40s-17.909-40-40-40-40 17.909-40 40 17.909 40 40 40Z"/><path fill="url(#q)" d="M676 523c22.091 0 40-17.909 40-40s-17.909-40-40-40-40 17.909-40 40 17.909 40 40 40Z"/><path fill="url(#r)" d="M543 671c22.091 0 40-17.909 40-40s-17.909-40-40-40-40 17.909-40 40 17.909 40 40 40Z"/><path stroke="url(#s)" stroke-miterlimit="10" stroke-width="1.658" d="m506.292 164.793 37.309-124.03"/><g opacity=".3"><path fill="url(#t)" d="M498.909 171.624c-4.317-3.401-5.242-9.74-1.85-14.069 3.392-4.33 9.714-5.257 14.032-1.856 4.317 3.402 5.242 9.741 1.85 14.07-2.005 2.629-4.934 3.866-8.018 3.866-2.159 0-4.318-.619-6.014-2.011Z"/><path fill="url(#u)" d="M498.909 171.624c-4.317-3.401-5.242-9.74-1.85-14.069 3.392-4.33 9.714-5.257 14.032-1.856 4.317 3.402 5.242 9.741 1.85 14.07-2.005 2.629-4.934 3.866-8.018 3.866-2.159 0-4.318-.619-6.014-2.011Z"/></g><path fill="url(#v)" d="M543 80c22.091 0 40-17.909 40-40S565.091 0 543 0s-40 17.909-40 40 17.909 40 40 40Z"/><path fill="url(#w)" d="M543 80c22.091 0 40-17.909 40-40S565.091 0 543 0s-40 17.909-40 40 17.909 40 40 40Z"/><path stroke="url(#x)" stroke-miterlimit="10" stroke-width="1.658" d="M156.393 336.248H38"/><path stroke="url(#y)" stroke-miterlimit="10" stroke-width="1.658" d="m180.575 431.758-107.45 52.233"/><path stroke="url(#z)" stroke-miterlimit="10" stroke-width="1.658" d="M180.575 241.232 73.125 189"/><path stroke="url(#A)" stroke-miterlimit="10" stroke-width="1.658" d="m242.922 507.537-37.143 124.196"/><g opacity=".3"><path fill="url(#B)" d="M249.946 512.778c3.384-4.319 2.461-10.644-1.846-14.037-4.308-3.394-10.615-2.623-13.999 1.851-3.385 4.319-2.616 10.644 1.846 14.037 1.846 1.389 3.999 2.006 6.153 2.006 2.923 0 5.846-1.389 7.846-3.857Z"/><path fill="url(#C)" d="M249.946 512.778c3.384-4.319 2.461-10.644-1.846-14.037-4.308-3.394-10.615-2.623-13.999 1.851-3.385 4.319-2.616 10.644 1.846 14.037 1.846 1.389 3.999 2.006 6.153 2.006 2.923 0 5.846-1.389 7.846-3.857Z"/></g><g opacity=".3"><path fill="url(#D)" d="M183.488 439.556c4.92-2.464 6.919-8.471 4.459-13.4s-8.458-6.931-13.378-4.467c-4.921 2.465-6.92 8.472-4.614 13.401 1.692 3.542 5.229 5.545 8.919 5.545 1.692 0 3.23-.463 4.614-1.079Z"/><path fill="url(#E)" d="M183.488 439.556c4.92-2.464 6.919-8.471 4.459-13.4s-8.458-6.931-13.378-4.467c-4.921 2.465-6.92 8.472-4.614 13.401 1.692 3.542 5.229 5.545 8.919 5.545 1.692 0 3.23-.463 4.614-1.079Z"/></g><g opacity=".3"><path fill="url(#F)" d="M165 334.635a9.98 9.98 0 0 0-10-10 9.98 9.98 0 0 0-10 10 9.98 9.98 0 0 0 10 10 9.98 9.98 0 0 0 10-10Z"/><path fill="url(#G)" d="M165 334.635a9.98 9.98 0 0 0-10-10 9.98 9.98 0 0 0-10 10 9.98 9.98 0 0 0 10 10 9.98 9.98 0 0 0 10-10Z"/></g><g opacity=".3"><path fill="url(#H)" d="M187.944 244.09c2.467-4.929.463-10.936-4.472-13.401-4.935-2.464-10.949-.462-13.416 4.467-2.467 4.929-.463 10.936 4.472 13.4 1.388.77 2.93 1.079 4.472 1.079 3.701 0 7.248-2.003 8.944-5.545Z"/><path fill="url(#I)" d="M187.944 244.09c2.467-4.929.463-10.936-4.472-13.401-4.935-2.464-10.949-.462-13.416 4.467-2.467 4.929-.463 10.936 4.472 13.4 1.388.77 2.93 1.079 4.472 1.079 3.701 0 7.248-2.003 8.944-5.545Z"/></g><path fill="url(#J)" d="M33 187c0-21.983 17.851-40 40-40s40 17.851 40 40c0 21.983-17.851 40-40 40s-40-18.017-40-40Z"/><path fill="url(#K)" d="M33 187c0-21.983 17.851-40 40-40s40 17.851 40 40c0 21.983-17.851 40-40 40s-40-18.017-40-40Z"/><path fill="url(#L)" d="M0 335c0-21.983 17.851-40 40-40s40 17.851 40 40c0 21.983-17.851 40-40 40S0 356.983 0 335Z"/><path fill="url(#M)" d="M0 335c0-21.983 17.851-40 40-40s40 17.851 40 40c0 21.983-17.851 40-40 40S0 356.983 0 335Z"/><path fill="url(#N)" d="M33 483c0-21.983 17.851-40 40-40s40 17.851 40 40c0 21.984-17.851 40-40 40s-40-18.016-40-40Z"/><path fill="url(#O)" d="M33 483c0-21.983 17.851-40 40-40s40 17.851 40 40c0 21.984-17.851 40-40 40s-40-18.016-40-40Z"/><path fill="url(#P)" d="M165 630c0-21.983 17.851-40 40-40s40 17.851 40 40-17.851 40-40 40-40-18.017-40-40Z"/><path fill="url(#Q)" d="M165 630c0-21.983 17.851-40 40-40s40 17.851 40 40-17.851 40-40 40-40-18.017-40-40Z"/><path stroke="url(#R)" stroke-miterlimit="10" stroke-width="1.658" d="m243.087 164.793-37.308-124.03"/><g opacity=".3"><path fill="url(#S)" d="M248.091 171.624c4.317-3.401 5.242-9.74 1.85-14.069-3.392-4.33-9.714-5.257-14.032-1.856-4.317 3.402-5.242 9.741-1.85 14.07 2.005 2.629 4.934 3.866 8.018 3.866 2.159 0 4.318-.619 6.014-2.011Z"/><path fill="url(#T)" d="M248.091 171.624c4.317-3.401 5.242-9.74 1.85-14.069-3.392-4.33-9.714-5.257-14.032-1.856-4.317 3.402-5.242 9.741-1.85 14.07 2.005 2.629 4.934 3.866 8.018 3.866 2.159 0 4.318-.619 6.014-2.011Z"/></g><path fill="url(#U)" d="M166 40c0-21.983 17.851-40 40-40s40 17.851 40 40c0 21.983-17.851 40-40 40s-40-18.017-40-40Z"/><path fill="#FFCD01" d="M559 335.469c0 102.023-82.902 185.166-185 185.166v-66.746c65.197 0 118.149-52.999 118.149-118.254S439.197 217.381 374 217.381v-66.745c102.098-.332 185 82.81 185 184.833Z"/><path fill="#FFCD01" d="M190 335.469c0 102.023 82.902 185.166 185 185.166v-66.746c-65.197 0-118.149-52.999-118.149-118.254S309.803 217.381 375 217.381v-66.745c-102.098-.332-185 82.81-185 184.833Z"/><path fill="#FFE30B" d="M380.752 268c-33.258 11.191-61.313 34.005-72.752 68 11.308 33.607 39.1 56.676 72.752 68 29.925-23.019 46.243-41.506 58.248-68-17.231-11.542-24.469-17.484-38.439-35.345-18.718 8.673-35.01 18.78-49.443 34.976 5.18 7.361 13.779 14.231 20.731 19.876 10.132-7.429 17.859-14.667 22.865-20.878 3.138 3.826 6.677 6.372 10.047 8.5-8.706 14.777-18.476 22.89-30.541 30.639-18.122-9.571-32.689-26.139-39.769-40.148 13.27-21.828 34.084-36.567 57.734-44.781-3.832-6.696-8.854-12.931-11.433-20.839Z"/><defs><linearGradient id="a" x1="nan" x2="nan" y1="nan" y2="nan" gradientUnits="userSpaceOnUse"><stop stop-color="#fff"/><stop offset="1" stop-color="#F5F5F5"/></linearGradient><linearGradient id="b" x1="568.383" x2="676.59" y1="457.832" y2="457.832" gradientUnits="userSpaceOnUse"><stop stop-color="#fff"/><stop offset="1" stop-color="#F5F5F5"/></linearGradient><linearGradient id="c" x1="505.698" x2="544.368" y1="569.63" y2="569.63" gradientUnits="userSpaceOnUse"><stop stop-color="#fff"/><stop offset="1" stop-color="#F5F5F5"/></linearGradient><linearGradient id="d" x1="497.855" x2="512.963" y1="499.528" y2="514.595" gradientUnits="userSpaceOnUse"><stop stop-color="#E991FC"/><stop offset="1" stop-color="#7533D8"/></linearGradient><linearGradient id="e" x1="492.897" x2="516.496" y1="495.957" y2="518.776" gradientUnits="userSpaceOnUse"><stop stop-color="#FFDF00"/><stop offset="1" stop-color="#FFB800"/></linearGradient><linearGradient id="f" x1="560.842" x2="575.932" y1="423.47" y2="438.535" gradientUnits="userSpaceOnUse"><stop stop-color="#E991FC"/><stop offset="1" stop-color="#7533D8"/></linearGradient><linearGradient id="g" x1="555.897" x2="579.496" y1="419.957" y2="442.776" gradientUnits="userSpaceOnUse"><stop stop-color="#FFDF00"/><stop offset="1" stop-color="#FFB800"/></linearGradient><linearGradient id="h" x1="582.889" x2="597.955" y1="327.602" y2="342.668" gradientUnits="userSpaceOnUse"><stop stop-color="#E991FC"/><stop offset="1" stop-color="#7533D8"/></linearGradient><linearGradient id="i" x1="577.897" x2="601.496" y1="323.957" y2="346.776" gradientUnits="userSpaceOnUse"><stop stop-color="#FFDF00"/><stop offset="1" stop-color="#FFB800"/></linearGradient><linearGradient id="j" x1="559.91" x2="574.995" y1="232.566" y2="247.669" gradientUnits="userSpaceOnUse"><stop stop-color="#E991FC"/><stop offset="1" stop-color="#7533D8"/></linearGradient><linearGradient id="k" x1="554.897" x2="578.496" y1="228.957" y2="251.776" gradientUnits="userSpaceOnUse"><stop stop-color="#FFDF00"/><stop offset="1" stop-color="#FFB800"/></linearGradient><linearGradient id="l" x1="647.746" x2="704.199" y1="158.782" y2="215.235" gradientUnits="userSpaceOnUse"><stop stop-color="#E991FC"/><stop offset="1" stop-color="#7533D8"/></linearGradient><linearGradient id="m" x1="627.588" x2="721.984" y1="144.288" y2="235.568" gradientUnits="userSpaceOnUse"><stop stop-color="#FFDF00"/><stop offset="1" stop-color="#FFB800"/></linearGradient><linearGradient id="n" x1="680.746" x2="737.199" y1="306.774" y2="363.226" gradientUnits="userSpaceOnUse"><stop stop-color="#E991FC"/><stop offset="1" stop-color="#7533D8"/></linearGradient><linearGradient id="o" x1="660.588" x2="754.984" y1="292.288" y2="383.568" gradientUnits="userSpaceOnUse"><stop stop-color="#FFDF00"/><stop offset="1" stop-color="#FFB800"/></linearGradient><linearGradient id="p" x1="647.746" x2="704.199" y1="454.765" y2="511.218" gradientUnits="userSpaceOnUse"><stop stop-color="#E991FC"/><stop offset="1" stop-color="#7533D8"/></linearGradient><linearGradient id="q" x1="627.588" x2="721.984" y1="440.288" y2="531.568" gradientUnits="userSpaceOnUse"><stop stop-color="#FFDF00"/><stop offset="1" stop-color="#FFB800"/></linearGradient><linearGradient id="r" x1="494.588" x2="588.984" y1="588.288" y2="679.568" gradientUnits="userSpaceOnUse"><stop stop-color="#FFDF00"/><stop offset="1" stop-color="#FFB800"/></linearGradient><linearGradient id="s" x1="505.517" x2="544.368" y1="102.797" y2="102.797" gradientUnits="userSpaceOnUse"><stop stop-color="#fff"/><stop offset="1" stop-color="#F5F5F5"/></linearGradient><linearGradient id="t" x1="497.849" x2="512.999" y1="156.486" y2="171.594" gradientUnits="userSpaceOnUse"><stop stop-color="#E991FC"/><stop offset="1" stop-color="#7533D8"/></linearGradient><linearGradient id="u" x1="492.897" x2="516.496" y1="152.957" y2="175.776" gradientUnits="userSpaceOnUse"><stop stop-color="#FFDF00"/><stop offset="1" stop-color="#FFB800"/></linearGradient><linearGradient id="v" x1="514.746" x2="571.199" y1="11.791" y2="68.244" gradientUnits="userSpaceOnUse"><stop stop-color="#E991FC"/><stop offset="1" stop-color="#7533D8"/></linearGradient><linearGradient id="w" x1="494.588" x2="588.984" y1="-2.712" y2="88.568" gradientUnits="userSpaceOnUse"><stop stop-color="#FFDF00"/><stop offset="1" stop-color="#FFB800"/></linearGradient><linearGradient id="x" x1="nan" x2="nan" y1="nan" y2="nan" gradientUnits="userSpaceOnUse"><stop stop-color="#fff"/><stop offset="1" stop-color="#F5F5F5"/></linearGradient><linearGradient id="y" x1="180.982" x2="72.775" y1="457.833" y2="457.833" gradientUnits="userSpaceOnUse"><stop stop-color="#fff"/><stop offset="1" stop-color="#F5F5F5"/></linearGradient><linearGradient id="z" x1="180.982" x2="72.775" y1="215.158" y2="215.158" gradientUnits="userSpaceOnUse"><stop stop-color="#fff"/><stop offset="1" stop-color="#F5F5F5"/></linearGradient><linearGradient id="A" x1="243.668" x2="204.997" y1="569.63" y2="569.63" gradientUnits="userSpaceOnUse"><stop stop-color="#fff"/><stop offset="1" stop-color="#F5F5F5"/></linearGradient><linearGradient id="B" x1="234.987" x2="250.1" y1="499.527" y2="514.599" gradientUnits="userSpaceOnUse"><stop stop-color="#FFDB65"/><stop offset="1" stop-color="#FF8C33"/></linearGradient><linearGradient id="C" x1="229.897" x2="253.496" y1="495.957" y2="518.776" gradientUnits="userSpaceOnUse"><stop stop-color="#FFDF00"/><stop offset="1" stop-color="#FFB800"/></linearGradient><linearGradient id="D" x1="172.003" x2="187.094" y1="423.47" y2="438.536" gradientUnits="userSpaceOnUse"><stop stop-color="#FFDB65"/><stop offset="1" stop-color="#FF8C33"/></linearGradient><linearGradient id="E" x1="166.897" x2="190.496" y1="419.957" y2="442.776" gradientUnits="userSpaceOnUse"><stop stop-color="#FFDF00"/><stop offset="1" stop-color="#FFB800"/></linearGradient><linearGradient id="F" x1="147.955" x2="163.023" y1="327.602" y2="342.67" gradientUnits="userSpaceOnUse"><stop stop-color="#FFDB65"/><stop offset="1" stop-color="#FF8C33"/></linearGradient><linearGradient id="G" x1="142.897" x2="166.496" y1="323.957" y2="346.776" gradientUnits="userSpaceOnUse"><stop stop-color="#FFDF00"/><stop offset="1" stop-color="#FFB800"/></linearGradient><linearGradient id="H" x1="171.899" x2="186.988" y1="232.565" y2="247.671" gradientUnits="userSpaceOnUse"><stop stop-color="#FFDB65"/><stop offset="1" stop-color="#FF8C33"/></linearGradient><linearGradient id="I" x1="166.897" x2="190.496" y1="228.957" y2="251.776" gradientUnits="userSpaceOnUse"><stop stop-color="#FFDF00"/><stop offset="1" stop-color="#FFB800"/></linearGradient><linearGradient id="J" x1="44.621" x2="101.074" y1="158.783" y2="215.236" gradientUnits="userSpaceOnUse"><stop stop-color="#FFDB65"/><stop offset="1" stop-color="#FF8C33"/></linearGradient><linearGradient id="K" x1="24.588" x2="118.984" y1="144.288" y2="235.568" gradientUnits="userSpaceOnUse"><stop stop-color="#FFDF00"/><stop offset="1" stop-color="#FFB800"/></linearGradient><linearGradient id="L" x1="11.621" x2="68.074" y1="306.774" y2="363.227" gradientUnits="userSpaceOnUse"><stop stop-color="#FFDB65"/><stop offset="1" stop-color="#FF8C33"/></linearGradient><linearGradient id="M" x1="-8.412" x2="85.984" y1="292.288" y2="383.568" gradientUnits="userSpaceOnUse"><stop stop-color="#FFDF00"/><stop offset="1" stop-color="#FFB800"/></linearGradient><linearGradient id="N" x1="44.621" x2="101.074" y1="454.765" y2="511.218" gradientUnits="userSpaceOnUse"><stop stop-color="#FFDB65"/><stop offset="1" stop-color="#FF8C33"/></linearGradient><linearGradient id="O" x1="24.588" x2="118.984" y1="440.288" y2="531.568" gradientUnits="userSpaceOnUse"><stop stop-color="#FFDF00"/><stop offset="1" stop-color="#FFB800"/></linearGradient><linearGradient id="P" x1="176.621" x2="233.074" y1="601.757" y2="658.209" gradientUnits="userSpaceOnUse"><stop stop-color="#FFDB65"/><stop offset="1" stop-color="#FF8C33"/></linearGradient><linearGradient id="Q" x1="156.588" x2="250.984" y1="587.288" y2="678.568" gradientUnits="userSpaceOnUse"><stop stop-color="#FFDF00"/><stop offset="1" stop-color="#FFB800"/></linearGradient><linearGradient id="R" x1="243.848" x2="204.997" y1="102.798" y2="102.798" gradientUnits="userSpaceOnUse"><stop stop-color="#fff"/><stop offset="1" stop-color="#F5F5F5"/></linearGradient><linearGradient id="S" x1="234.959" x2="250.102" y1="156.49" y2="171.591" gradientUnits="userSpaceOnUse"><stop stop-color="#FFDB65"/><stop offset="1" stop-color="#FF8C33"/></linearGradient><linearGradient id="T" x1="229.897" x2="253.496" y1="152.957" y2="175.776" gradientUnits="userSpaceOnUse"><stop stop-color="#FFDF00"/><stop offset="1" stop-color="#FFB800"/></linearGradient><linearGradient id="U" x1="157.588" x2="251.984" y1="-2.712" y2="88.568" gradientUnits="userSpaceOnUse"><stop stop-color="#FFDF00"/><stop offset="1" stop-color="#FFB800"/></linearGradient></defs></svg>