<svg xmlns="http://www.w3.org/2000/svg" width="206" height="34" fill="none"><g fill="#333"><path d="M14.588 17.73v15.462h-3.68v-6.34H3.68v6.34H0V17.731h3.681v6.096h7.226V17.73h3.681ZM31.804 30.32v2.872H19.488V17.731h12.02v2.871h-8.361v3.357h7.385v2.784h-7.385v3.578h8.657ZM35.87 17.73h3.68v12.546h7.977v2.916H35.87V17.731ZM57.605 17.73c1.409 0 2.628.229 3.659.686 1.045.456 1.848 1.104 2.408 1.943.56.84.841 1.833.841 2.982 0 1.134-.28 2.128-.84 2.982-.561.84-1.364 1.487-2.41 1.944-1.03.441-2.25.662-3.658.662h-3.204v4.263H50.72V17.731h6.885Zm-.204 8.284c1.105 0 1.946-.229 2.522-.685.575-.471.863-1.134.863-1.988 0-.869-.288-1.531-.863-1.988-.576-.471-1.417-.707-2.523-.707h-2.999v5.368h3ZM68.277 17.73h7.226c1.727 0 3.25.325 4.568.973 1.333.633 2.363 1.531 3.09 2.694.742 1.164 1.114 2.518 1.114 4.064 0 1.547-.372 2.901-1.114 4.065-.727 1.163-1.757 2.068-3.09 2.716-1.318.633-2.84.95-4.568.95h-7.226V17.731Zm7.045 12.524c1.59 0 2.855-.427 3.794-1.28.955-.87 1.432-2.04 1.432-3.513 0-1.472-.477-2.635-1.432-3.49-.939-.868-2.204-1.303-3.794-1.303h-3.364v9.586h3.364ZM100.503 30.32v2.872H88.187V17.731h12.021v2.871h-8.362v3.357h7.385v2.784h-7.385v3.578h8.657ZM109.795 33.457c-1.258 0-2.477-.162-3.659-.486-1.166-.338-2.105-.773-2.817-1.303l1.249-2.695c.682.486 1.493.876 2.432 1.17a9.37 9.37 0 0 0 2.818.443c1.045 0 1.817-.148 2.317-.442.5-.31.75-.714.75-1.215 0-.368-.151-.67-.454-.905-.288-.25-.667-.45-1.136-.597a21.91 21.91 0 0 0-1.864-.486c-1.212-.28-2.204-.56-2.977-.84a4.926 4.926 0 0 1-1.999-1.346c-.546-.619-.818-1.444-.818-2.474 0-.898.25-1.708.75-2.43.5-.736 1.249-1.318 2.249-1.745 1.015-.427 2.25-.64 3.704-.64 1.015 0 2.007.117 2.977.353.97.236 1.818.574 2.545 1.016l-1.136 2.717c-1.47-.81-2.939-1.215-4.409-1.215-1.03 0-1.795.162-2.295.486-.484.324-.727.751-.727 1.281 0 .53.281.928.841 1.193.576.25 1.447.5 2.613.75 1.212.28 2.204.56 2.977.84.773.28 1.432.722 1.977 1.325.56.604.841 1.421.841 2.452 0 .884-.258 1.694-.773 2.43-.5.721-1.257 1.295-2.272 1.722-1.015.428-2.25.641-3.704.641ZM125.99 27.118l-2.136 2.165v3.909h-3.659V17.731h3.659v7.222l7.044-7.222h4.09l-6.589 6.891 6.976 8.57h-4.295l-5.09-6.074Z"/></g><g fill="#0085FF"><path d="M147.545 33.5c-1.288 0-2.537-.155-3.749-.464-1.212-.309-2.197-.721-2.954-1.237l1.477-3.224c.712.456 1.537.824 2.476 1.104.94.28 1.864.42 2.773.42 1.727 0 2.59-.42 2.59-1.26 0-.441-.25-.765-.75-.971-.484-.221-1.272-.45-2.363-.685-1.197-.25-2.197-.515-2.999-.795a5.149 5.149 0 0 1-2.068-1.392c-.576-.633-.864-1.487-.864-2.562 0-.942.265-1.789.796-2.54.53-.766 1.318-1.37 2.363-1.811 1.06-.442 2.355-.663 3.886-.663 1.045 0 2.075.118 3.09.354 1.015.22 1.909.552 2.681.994l-1.386 3.247c-1.515-.796-2.984-1.193-4.408-1.193-.894 0-1.545.132-1.954.397-.409.25-.614.582-.614.994 0 .413.242.722.727.928.485.206 1.265.42 2.341.64 1.212.25 2.212.523 2.999.818.803.28 1.492.736 2.068 1.37.591.618.886 1.464.886 2.54 0 .927-.265 1.766-.795 2.517-.53.751-1.326 1.355-2.386 1.811-1.06.442-2.348.663-3.863.663ZM160.968 21.197h-4.886V17.73h14.248v3.467h-4.863v11.994h-4.499V21.197ZM183.001 30.187h-6.726l-1.25 3.004h-4.59l7.021-15.462h4.431l7.045 15.462h-4.681l-1.25-3.004Zm-1.318-3.225-2.045-4.947-2.045 4.947h4.09ZM198.297 29.082h-2.454v4.109h-4.5V17.729h7.272c1.439 0 2.689.236 3.749.707 1.061.457 1.879 1.12 2.454 1.988.576.854.864 1.863.864 3.026 0 1.12-.273 2.099-.818 2.938-.53.824-1.295 1.472-2.295 1.943l3.431 4.86h-4.817l-2.886-4.109Zm2.84-5.632c0-.721-.235-1.28-.704-1.678-.47-.398-1.167-.597-2.091-.597h-2.499v4.528h2.499c.924 0 1.621-.191 2.091-.574.469-.398.704-.957.704-1.679Z"/></g><g fill="#0085FF"><path d="M106.272 9.39c0 1.4-1.154 2.54-2.572 2.54 1.418 0 2.572 1.14 2.572 2.54 0-1.4 1.154-2.54 2.572-2.54a2.55 2.55 0 0 1-2.572-2.54ZM119.989 10.66c-2.129 0-3.858-1.703-3.858-3.81 0 2.101-1.724 3.81-3.858 3.81 2.128 0 3.858 1.702 3.858 3.81.005-2.108 1.729-3.81 3.858-3.81ZM129.208.5c0 3.508-2.785 6.347-6.218 6.347 3.433 0 6.218 2.845 6.218 6.352 0-3.507 2.785-6.352 6.212-6.352-3.427 0-6.212-2.84-6.212-6.347Z"/></g></svg>