<svg xmlns="http://www.w3.org/2000/svg" width="22" height="23" fill="none"><path fill="#fff" stroke="#fff" d="M5.944.5h10.112A5.452 5.452 0 0 1 21.5 5.945v10.113a5.452 5.452 0 0 1-5.444 5.446H5.944A5.452 5.452 0 0 1 .5 16.058V5.945A5.452 5.452 0 0 1 5.944.5Zm10.112 20.226a4.672 4.672 0 0 0 4.667-4.668V5.945a4.672 4.672 0 0 0-4.667-4.667H5.944a4.672 4.672 0 0 0-4.667 4.667v10.113a4.672 4.672 0 0 0 4.667 4.668h10.112Z"/><path fill="#fff" stroke="#fff" d="M8.107 8.78a3.653 3.653 0 0 1 3.473-1.439l-3.473 1.44Zm0 0a3.636 3.636 0 0 0-.68 2.715l.68-2.715Zm7.322 1.528a4.402 4.402 0 0 1-.825 3.292 4.4 4.4 0 0 1-2.91 1.745 4.396 4.396 0 0 1-3.291-.825 4.402 4.402 0 0 1-1.745-2.91l-.494.072.494-.073a4.402 4.402 0 0 1 .825-3.292 4.4 4.4 0 0 1 2.91-1.744 4.428 4.428 0 0 1 1.301 0c.949.14 1.806.572 2.484 1.25a4.4 4.4 0 0 1 1.251 2.485Zm-6.563 3.587c.783.582 1.749.824 2.714.68l-4.153-3.08c.144.965.655 1.82 1.439 2.4Zm2.714.68a3.66 3.66 0 0 0 3.08-4.153 3.638 3.638 0 0 0-3.08-3.08v7.233ZM16.286 5.164a.395.395 0 0 1 .275-.113c.101 0 .203.042.275.113h-.55Zm0 0a.394.394 0 0 0-.114.275c0 .102.043.203.114.275m0-.55v.55m0 0a.395.395 0 0 0 .275.114.395.395 0 0 0 .275-.114m-.55 0h.55m0 0Z"/></svg>