<svg xmlns="http://www.w3.org/2000/svg" width="40" height="40" fill="none"><g fill="#333" clip-path="url(#a)"><path d="M15.598 36.79a.623.623 0 1 1-1.247 0v-7.863c0-.53.23-1.008.601-1.352.363-.336.85-.54 1.39-.54h7.313c.54 0 1.035.203 1.388.54.371.345.602.822.602 1.352v7.863a.623.623 0 1 1-1.247 0v-7.863a.602.602 0 0 0-.195-.441.818.818 0 0 0-.548-.204h-3.034v8.508a.622.622 0 1 1-1.246 0v-8.508H16.34a.814.814 0 0 0-.54.203.61.61 0 0 0-.203.442v7.863ZM13.838 18.651h4.086c.345 0 .62.275.62.62v3.802a.615.615 0 0 1-.62.619h-4.086a.615.615 0 0 1-.619-.619V19.27c0-.344.274-.619.62-.619Zm0-7.561h4.086c.345 0 .62.274.62.619v3.803c0 .345-.275.619-.62.619h-4.086a.615.615 0 0 1-.619-.62V11.71c0-.345.274-.62.62-.62Zm3.458 1.247h-2.83v2.547h2.83v-2.547Zm6.827 2.547c.345 0 .62.283.62.628 0 .345-.275.619-.62.619h-2.042a.623.623 0 0 1-.628-.62V11.71c0-.345.282-.619.628-.619.345 0 .619.274.619.62v3.174h1.423Zm-2.042 3.767h4.076c.346 0 .628.275.628.62v3.802a.622.622 0 0 1-.628.619h-4.076a.622.622 0 0 1-.628-.619V19.27c0-.344.283-.619.628-.619Zm3.458 1.247H22.7v2.547h2.839v-2.547Zm-8.243 0h-2.83v2.547h2.83v-2.547ZM30.508 19.156a.622.622 0 0 1-.848.22.711.711 0 0 1-.23-.23l-5.36-9.082a6.797 6.797 0 0 1-.645-1.6 6.75 6.75 0 0 1-.213-1.699c0-1.866.752-3.555 1.981-4.784A6.745 6.745 0 0 1 29.978 0c1.866 0 3.555.76 4.785 1.98a6.776 6.776 0 0 1 1.98 4.786c0 .583-.079 1.15-.22 1.698a6.612 6.612 0 0 1-.637 1.592l-5.378 9.1Zm-.53-1.54 4.829-8.18a5.494 5.494 0 0 0 .69-2.67 5.5 5.5 0 0 0-1.619-3.9c-1-1-2.379-1.62-3.9-1.62-1.53 0-2.91.62-3.909 1.62a5.528 5.528 0 0 0-1.61 3.9c0 .486.062.945.169 1.388.114.442.291.866.504 1.264l4.846 8.199Z"/><path d="M29.978 3.157c.99 0 1.893.407 2.547 1.061a3.565 3.565 0 0 1 1.061 2.547c0 1-.407 1.902-1.061 2.556a3.625 3.625 0 0 1-2.547 1.053c-1 0-1.901-.407-2.556-1.053a3.595 3.595 0 0 1-1.052-2.556c0-.999.398-1.9 1.052-2.547a3.602 3.602 0 0 1 2.556-1.06Zm1.663 1.937a2.36 2.36 0 0 0-3.334 0 2.374 2.374 0 0 0 0 3.343 2.359 2.359 0 0 0 3.334 0 2.347 2.347 0 0 0 0-3.343ZM32.86 30.378a.622.622 0 0 1-.618-.628c0-.345.274-.619.619-.619h2.264a1.9 1.9 0 0 1 1.769 1.168l2.927 7.128c.124.3.168.601.132.902-.061.61-.469 1.176-1.008 1.459a1.927 1.927 0 0 1-.893.212h-36.1c-.318 0-.619-.07-.893-.212a1.93 1.93 0 0 1-1.017-1.46c-.026-.3.018-.6.133-.901l2.936-7.128A1.9 1.9 0 0 1 4.88 29.13h2.246c.345 0 .62.275.62.62a.623.623 0 0 1-.62.627H4.88c-.274 0-.513.133-.62.398l-2.926 7.128a.573.573 0 0 0-.053.292.68.68 0 0 0 .345.486.77.77 0 0 0 .327.072h36.1c.124 0 .23-.027.318-.072a.634.634 0 0 0 .345-.486.565.565 0 0 0-.044-.292l-2.927-7.128c-.107-.266-.345-.398-.62-.398h-2.264Z"/><path d="M29.35 21.835a.623.623 0 1 1 1.247 0V36.79a.623.623 0 0 1-.619.627H10.027a.623.623 0 0 1-.62-.627V9.454c0-.53.23-1.008.602-1.353a2.02 2.02 0 0 1 1.389-.549h9.842c.345 0 .62.283.62.629a.623.623 0 0 1-.62.627h-9.842a.777.777 0 0 0-.549.204.602.602 0 0 0-.194.442V36.17H29.35V21.835Z"/></g><defs><clipPath id="a"><path fill="#fff" d="M0 0h40v40H0z"/></clipPath></defs></svg>