<svg xmlns="http://www.w3.org/2000/svg" width="40" height="40" fill="none"><g clip-path="url(#a)"><mask id="b" width="40" height="40" x="0" y="0" maskUnits="userSpaceOnUse" style="mask-type:luminance"><path fill="#fff" d="M0 0h40v40H0V0Z"/></mask><g mask="url(#b)"><path fill="#333" fill-rule="evenodd" d="M2.099 22.545a.5.5 0 0 0 .5-.5V18.77c0-.952.771-1.724 1.724-1.724h.364a.5.5 0 1 0 0-1h-.364a2.724 2.724 0 0 0-2.724 2.724v3.275a.5.5 0 0 0 .5.5ZM37.901 22.467a.5.5 0 0 0 .5-.5V18.77a2.724 2.724 0 0 0-2.724-2.724h-.286a.5.5 0 1 0 0 1h.286c.953 0 1.724.772 1.724 1.724v3.197a.5.5 0 0 0 .5.5Z" clip-rule="evenodd"/><path fill="#333" fill-rule="evenodd" d="M4.692 20.64a.5.5 0 0 0 .5-.5v-3.738c0-1.397.896-2.586 2.147-3.02a.5.5 0 0 0-.328-.944 4.198 4.198 0 0 0-2.82 3.964v3.738a.5.5 0 0 0 .5.5ZM14.416 17.762a.5.5 0 0 0 .489-.511l-.02-.855a4.198 4.198 0 0 0-2.787-3.947.5.5 0 1 0-.336.942 3.198 3.198 0 0 1 2.123 3.011v.012l.02.86a.5.5 0 0 0 .511.488Z" clip-rule="evenodd"/><path fill="#333" fill-rule="evenodd" d="M6.044 10.946a3.492 3.492 0 0 0 3.491 3.492h.007a3.492 3.492 0 0 0 3.491-3.492V8.402a3.491 3.491 0 0 0-3.491-3.491h-.007a3.492 3.492 0 0 0-3.491 3.491v2.544Zm3.491 2.492a2.492 2.492 0 0 1-2.491-2.492V8.402a2.491 2.491 0 0 1 2.491-2.491h.007a2.491 2.491 0 0 1 2.491 2.491v2.544a2.492 2.492 0 0 1-2.491 2.492h-.007Z" clip-rule="evenodd"/><path fill="#333" fill-rule="evenodd" d="M6.229 10.063a.5.5 0 0 0 .418.1l5.99-1.265a.5.5 0 0 0 .396-.49 3.496 3.496 0 0 0-3.495-3.497 3.496 3.496 0 0 0-3.494 3.497v1.266a.5.5 0 0 0 .185.389Zm.815-1.005v-.65a2.496 2.496 0 0 1 2.494-2.497c1.242 0 2.273.908 2.464 2.099L7.044 9.058ZM34.566 14.784a.5.5 0 0 0 .7.105 2.33 2.33 0 0 0 .948-1.877v-6.6a2.333 2.333 0 0 0-4.544-.744.5.5 0 0 0 .948.319 1.333 1.333 0 0 1 2.596.425v6.6c0 .44-.213.83-.543 1.073a.5.5 0 0 0-.105.699Z" clip-rule="evenodd"/><path fill="#333" fill-rule="evenodd" d="M35.308 20.64a.5.5 0 0 0 .5-.5v-3.738a4.197 4.197 0 0 0-2.787-3.954.5.5 0 0 0-.336.942 3.197 3.197 0 0 1 2.123 3.012v3.737a.5.5 0 0 0 .5.5ZM25.615 17.766a.5.5 0 0 0 .5-.5v-.864c0-1.388.885-2.57 2.123-3.012a.5.5 0 0 0-.335-.942 4.198 4.198 0 0 0-2.788 3.954v.864a.5.5 0 0 0 .5.5Z" clip-rule="evenodd"/><path fill="#333" fill-rule="evenodd" d="M26.967 10.946a3.492 3.492 0 0 0 3.491 3.492h.007a3.492 3.492 0 0 0 3.491-3.492V8.402a3.492 3.492 0 0 0-3.491-3.491h-.007a3.491 3.491 0 0 0-3.491 3.491v2.544Zm3.491 2.492a2.492 2.492 0 0 1-2.491-2.492V8.402a2.491 2.491 0 0 1 2.491-2.491h.007a2.492 2.492 0 0 1 2.491 2.491v2.544a2.492 2.492 0 0 1-2.491 2.492h-.007Z" clip-rule="evenodd"/><path fill="#333" fill-rule="evenodd" d="M27.152 10.063a.5.5 0 0 0 .418.1l5.99-1.265a.5.5 0 0 0 .396-.49 3.496 3.496 0 0 0-3.495-3.497 3.496 3.496 0 0 0-3.494 3.497v1.266a.5.5 0 0 0 .185.389Zm.815-1.005v-.65a2.496 2.496 0 0 1 2.495-2.497c1.241 0 2.272.908 2.463 2.099l-4.958 1.048ZM14.368 33.855c1.786.23 3.676.355 5.632.355 1.952 0 3.838-.124 5.62-.354a.5.5 0 0 0-.127-.991A43.041 43.041 0 0 1 20 33.21c-1.914 0-3.762-.121-5.504-.347a.5.5 0 0 0-.128.992ZM34.491 30.907a.5.5 0 0 0 .675.213c2.838-1.477 4.748-3.476 4.748-5.811 0-2.415-2.041-4.47-5.05-5.965-3.047-1.513-7.26-2.546-11.996-2.846a.5.5 0 1 0-.063.998c4.642.294 8.717 1.305 11.614 2.744 2.936 1.458 4.495 3.26 4.495 5.069 0 1.747-1.454 3.49-4.21 4.924a.5.5 0 0 0-.213.674ZM5.55 30.927a.5.5 0 0 0-.215-.674c-2.78-1.438-4.25-3.189-4.25-4.944 0-1.878 1.684-3.749 4.827-5.23 3.1-1.46 7.442-2.446 12.34-2.637a.5.5 0 0 0-.038-1c-4.996.196-9.477 1.202-12.728 2.733-3.206 1.51-5.4 3.63-5.4 6.134 0 2.346 1.928 4.353 4.79 5.833a.5.5 0 0 0 .673-.215Z" clip-rule="evenodd"/><path fill="#333" fill-rule="evenodd" d="M4.692 32.983a.5.5 0 0 0 .5-.5c0-1.128.583-2.12 1.468-2.689a.5.5 0 0 0-.542-.84 4.193 4.193 0 0 0-1.926 3.53.5.5 0 0 0 .5.5ZM14.385 35.185a.5.5 0 0 0 .5-.5v-2.202a4.193 4.193 0 0 0-1.965-3.554.5.5 0 1 0-.532.847 3.193 3.193 0 0 1 1.497 2.707v2.202a.5.5 0 0 0 .5.5Z" clip-rule="evenodd"/><path fill="#333" fill-rule="evenodd" d="M10.373 33.602a.5.5 0 0 0 .666.237 3.492 3.492 0 0 0 1.994-3.155v-6.2a3.492 3.492 0 0 0-3.491-3.492h-.007a3.492 3.492 0 0 0-3.491 3.491v6.2c0 .826.287 1.586.766 2.184a.5.5 0 1 0 .78-.626 2.479 2.479 0 0 1-.546-1.557v-6.2a2.492 2.492 0 0 1 2.491-2.492h.007a2.492 2.492 0 0 1 2.491 2.491v6.2c0 .994-.58 1.852-1.423 2.253a.5.5 0 0 0-.237.666ZM35.308 33.13a.5.5 0 0 0 .5-.5v-.147a4.198 4.198 0 0 0-2.83-3.968.5.5 0 0 0-.325.945 3.197 3.197 0 0 1 2.155 3.023v.147a.5.5 0 0 0 .5.5ZM25.615 35.214a.5.5 0 0 0 .5-.5v-2.23c0-1.407.909-2.603 2.173-3.03a.5.5 0 1 0-.32-.947 4.197 4.197 0 0 0-2.853 3.976v2.23a.5.5 0 0 0 .5.5Z" clip-rule="evenodd"/><path fill="#333" fill-rule="evenodd" d="M26.967 27.027a3.492 3.492 0 0 0 3.491 3.492h.007a3.492 3.492 0 0 0 3.491-3.492v-2.544a3.492 3.492 0 0 0-3.491-3.491h-.007a3.491 3.491 0 0 0-3.491 3.491v2.544Zm3.491 2.492a2.492 2.492 0 0 1-2.491-2.492v-2.544a2.492 2.492 0 0 1 2.491-2.491h.007a2.492 2.492 0 0 1 2.491 2.491v2.544a2.492 2.492 0 0 1-2.491 2.492h-.007ZM1.599 37.952c0 1.083.878 1.962 1.962 1.962h7.711a.5.5 0 0 0 .5-.5v-4.563a2.724 2.724 0 0 0-2.724-2.724H4.323a2.724 2.724 0 0 0-2.724 2.724v3.1Zm1.962.962a.962.962 0 0 1-.962-.962v-3.1c0-.953.771-1.725 1.724-1.725h4.725c.952 0 1.724.772 1.724 1.724v4.063h-7.21Z" clip-rule="evenodd"/><path fill="#333" fill-rule="evenodd" d="M10.826 39.681a.5.5 0 0 0 .69.156l4.398-2.783c.465-.304.745-.822.745-1.378 0-1.306-1.448-2.091-2.543-1.38l-3.132 1.955a.5.5 0 1 0 .53.848l3.145-1.963a.646.646 0 0 1 .71 1.08l-4.387 2.776a.5.5 0 0 0-.156.69ZM28.97 39.852a.5.5 0 0 0 .258-.438v-2.74a.5.5 0 0 0-.235-.423l-3.133-1.955c-1.094-.711-2.542.074-2.542 1.38 0 .556.28 1.074.745 1.378l.006.004 4.392 2.779a.5.5 0 0 0 .508.015Zm-4.363-3.637a.646.646 0 0 1 .71-1.08l.01.007 2.9 1.81v1.554l-3.62-2.29Z" clip-rule="evenodd"/><path fill="#333" fill-rule="evenodd" d="M28.228 39.414a.5.5 0 0 0 .5.5h7.71a1.961 1.961 0 0 0 1.958-1.845.5.5 0 0 0-.998-.06.961.961 0 0 1-.96.905h-7.21v-4.063c0-.952.772-1.724 1.724-1.724h4.725c.953 0 1.724.772 1.724 1.724v.078a.5.5 0 1 0 1 0v-.078a2.724 2.724 0 0 0-2.724-2.724h-4.725a2.724 2.724 0 0 0-2.724 2.724v4.563ZM24.47 29.589a.5.5 0 0 0 .25-.434v-1.62a4.178 4.178 0 1 0-2.292 1.15l1.54.901a.5.5 0 0 0 .501.003Zm-.75-1.307-.945-.554a.5.5 0 0 0-.351-.059 3.178 3.178 0 1 1 1.466-.728.5.5 0 0 0-.17.376v.965Z" clip-rule="evenodd"/><path fill="#333" d="M20.047 25.195c.754 0 .755-1.172 0-1.172-.754 0-.755 1.172 0 1.172ZM21.794 25.195c.755 0 .756-1.172 0-1.172-.753 0-.755 1.172 0 1.172ZM23.542 25.195c.754 0 .755-1.172 0-1.172-.754 0-.755 1.172 0 1.172Z"/><path fill="#333" fill-rule="evenodd" d="M15.408 14.173a.5.5 0 0 0 .501-.003l1.54-.902a4.178 4.178 0 0 0 4.484-5.754.5.5 0 1 0-.922.39 3.178 3.178 0 0 1-3.558 4.35.5.5 0 0 0-.351.058l-.945.554v-.965a.5.5 0 0 0-.17-.376A3.177 3.177 0 0 1 19.32 6.21a.5.5 0 0 0 .389-.92 4.178 4.178 0 0 0-4.552 6.83v1.619a.5.5 0 0 0 .25.434Z" clip-rule="evenodd"/><path fill="#333" d="M16.335 9.78c.754 0 .755-1.173 0-1.173-.754 0-.755 1.172 0 1.172ZM18.083 9.78c.754 0 .755-1.173 0-1.173s-.756 1.172 0 1.172ZM19.83 9.78c.754 0 .756-1.173 0-1.173-.754 0-.755 1.172 0 1.172Z"/><path fill="#333" fill-rule="evenodd" d="M25.686 9.298a.5.5 0 0 0 .251-.434v-1.62a4.178 4.178 0 1 0-2.292 1.15l1.54.901a.5.5 0 0 0 .5.003Zm-.749-1.307-.945-.554a.5.5 0 0 0-.351-.059 3.178 3.178 0 1 1 1.466-.728.5.5 0 0 0-.17.376v.965Z" clip-rule="evenodd"/><path fill="#333" fill-rule="evenodd" d="M24.323 5.595a.5.5 0 0 0 0-.707l-1.916-1.915a.5.5 0 1 0-.707.707l1.915 1.915a.5.5 0 0 0 .708 0Z" clip-rule="evenodd"/><path fill="#333" fill-rule="evenodd" d="M21.7 5.595a.5.5 0 0 0 .707 0l1.916-1.915a.5.5 0 0 0-.708-.707L21.7 4.888a.5.5 0 0 0 0 .707Z" clip-rule="evenodd"/></g></g><defs><clipPath id="a"><path fill="#fff" d="M0 0h40v40H0z"/></clipPath></defs></svg>