<svg xmlns="http://www.w3.org/2000/svg" width="40" height="40" fill="none"><g fill="#333" fill-rule="evenodd" clip-rule="evenodd"><path d="M1.995 2.469a.91.91 0 0 0-.91.91v18.208a.5.5 0 1 1-1 0V3.378a1.91 1.91 0 0 1 1.91-1.909h36.01a1.91 1.91 0 0 1 1.91 1.91v23.54a.5.5 0 0 1-.5.5H.584a.5.5 0 0 1-.5-.5v-2.34a.5.5 0 0 1 1 0v1.84h37.83V3.379a.91.91 0 0 0-.91-.91H1.995Z"/><path d="M.086 26.919a.5.5 0 0 1 .5-.5h38.828a.5.5 0 0 1 .5.5v2.754a1.91 1.91 0 0 1-1.91 1.91h-5.488a.5.5 0 1 1 0-1h5.489a.91.91 0 0 0 .91-.91v-2.254H1.084v2.254c0 .502.408.91.91.91H29.79a.5.5 0 0 1 0 1H1.995a1.91 1.91 0 0 1-1.91-1.91v-2.754Z"/><path d="M14.14 31.082a.5.5 0 0 1 .5-.5h10.72a.5.5 0 0 1 .5.5v6.949a.5.5 0 0 1-.5.5H14.64a.5.5 0 0 1-.5-.5v-6.949Zm1 .5v5.949h9.72v-5.949h-9.72Z"/><path d="M10.275 38.031a.5.5 0 0 1 .5-.5h18.45a.5.5 0 0 1 0 1h-18.45a.5.5 0 0 1-.5-.5ZM10.806 8.946a.5.5 0 0 1 .655-.187l8.766 4.47a.5.5 0 0 1 .273.445v10.757a.5.5 0 0 1-.5.5c-.275 0-.55-.065-.802-.194l-7.665-3.907c-.618-.315-1-.96-1-1.654V9.921c0-.351.098-.688.273-.976Zm.728.973v9.256c0 .332.182.626.453.764l7.513 3.83V13.98l-7.966-4.062Z"/><path d="M28.54 8.76a.5.5 0 0 1 .654.185c.175.289.272.626.272.977v9.253c0 .695-.38 1.34-1 1.655l-7.664 3.907a1.764 1.764 0 0 1-.802.194.5.5 0 0 1-.5-.5V13.674a.5.5 0 0 1 .273-.445l8.766-4.47Zm-8.04 5.22v9.789l7.512-3.83a.852.852 0 0 0 .454-.764V9.92L20.5 13.98Z"/><path d="M20.363 5.049a.761.761 0 0 0-.722-.002l-.005.003-.006.003-2.549 1.369a.5.5 0 0 1-.473-.881l2.556-1.373a.233.233 0 0 1 .007-.003v-.001a1.76 1.76 0 0 1 1.665.004L28.5 8.285c.292.157.529.388.694.66a.5.5 0 0 1-.2.705l-8.767 4.47a.5.5 0 0 1-.454 0l-8.766-4.47a.5.5 0 0 1-.2-.705c.165-.272.4-.503.693-.66l2.466-1.325a.5.5 0 1 1 .473.881l-2.327 1.25L20 13.114l7.888-4.021-7.525-4.043Zm-.714-.006.002-.002"/><path d="M26.426 4.516a.5.5 0 0 1 .317-.114h5.127a.5.5 0 1 1 0 1h-4.947l-3.806 3.131a.5.5 0 0 1-.635-.772l3.944-3.245ZM23.012 19.646a.5.5 0 0 1 .707 0l4.089 4.089h4.202a.5.5 0 0 1 0 1H27.6a.5.5 0 0 1-.353-.146l-4.235-4.235a.5.5 0 0 1 0-.708ZM7.443 18.376a.5.5 0 0 1 .5-.5h6.382a.5.5 0 1 1 0 1H7.943a.5.5 0 0 1-.5-.5Z"/><path d="M32.046 5.402a.346.346 0 0 0-.346.346v4.784c0 .19.155.346.346.346h4.292a.346.346 0 0 0 .346-.346V5.748a.346.346 0 0 0-.346-.346h-4.292Zm-1.346.346c0-.743.602-1.346 1.346-1.346h4.292c.743 0 1.346.603 1.346 1.346v4.784c0 .743-.602 1.346-1.346 1.346h-4.292a1.346 1.346 0 0 1-1.346-1.346V5.748Z"/><path d="M32.617 7.07a.5.5 0 0 1 .5-.5h2.2a.5.5 0 0 1 0 1h-2.2a.5.5 0 0 1-.5-.5ZM32.617 9.21a.5.5 0 0 1 .5-.5h2.2a.5.5 0 0 1 0 1h-2.2a.5.5 0 0 1-.5-.5ZM32.046 18.26a.346.346 0 0 0-.346.346v4.783c0 .191.155.346.346.346h4.292a.346.346 0 0 0 .346-.346v-4.783a.346.346 0 0 0-.346-.346h-4.292Zm-1.346.346c0-.744.602-1.346 1.346-1.346h4.292c.743 0 1.346.602 1.346 1.346v4.783c0 .743-.602 1.346-1.346 1.346h-4.292a1.346 1.346 0 0 1-1.346-1.346v-4.783Z"/><path d="M32.617 19.927a.5.5 0 0 1 .5-.5h2.2a.5.5 0 1 1 0 1h-2.2a.5.5 0 0 1-.5-.5ZM32.617 22.068a.5.5 0 0 1 .5-.5h2.2a.5.5 0 1 1 0 1h-2.2a.5.5 0 0 1-.5-.5ZM3.65 12.4a.346.346 0 0 0-.346.347v4.783c0 .19.155.346.346.346h4.293a.346.346 0 0 0 .346-.346v-4.783a.346.346 0 0 0-.346-.346H3.65Zm-1.346.347c0-.744.603-1.346 1.346-1.346h4.293c.743 0 1.346.602 1.346 1.346v4.783c0 .743-.603 1.346-1.346 1.346H3.65a1.346 1.346 0 0 1-1.346-1.346v-4.783Z"/><path d="M4.222 14.068a.5.5 0 0 1 .5-.5h2.2a.5.5 0 1 1 0 1h-2.2a.5.5 0 0 1-.5-.5ZM4.222 16.209a.5.5 0 0 1 .5-.5h2.2a.5.5 0 1 1 0 1h-2.2a.5.5 0 0 1-.5-.5ZM2.304 4.876a.5.5 0 0 1 .5-.5h4.118a.5.5 0 0 1 0 1H2.804a.5.5 0 0 1-.5-.5ZM2.304 7.04a.5.5 0 0 1 .5-.5h2.992a.5.5 0 1 1 0 1H2.804a.5.5 0 0 1-.5-.5ZM2.304 9.205a.5.5 0 0 1 .5-.5h5.472a.5.5 0 0 1 0 1H2.804a.5.5 0 0 1-.5-.5ZM35.97 26.419a.5.5 0 0 1 .5.5v1.751a.5.5 0 0 1-1 0V26.92a.5.5 0 0 1 .5-.5Z"/></g></svg>