<svg xmlns="http://www.w3.org/2000/svg" width="232" height="92" fill="none"><g fill="#2D3037"><path fill-rule="evenodd" d="M142.6 21.603c.165-.429-.208-.814-.373-1.157-.248-.472-.289-.857-.785-.9-.042.471.206.686.412 1.157.249.557.167.814.746.9ZM138.381 13.718c.332-.129.165.214.455-.386.166-.429.124-.257.124-.771-.703.128-.744.685-.579 1.157ZM205.258 38.274c-.082-.514-1.612-1.5-2.067-1.543 0 .515.414.643.868.986.373.257.703.6 1.199.557ZM171.117 36.389c.123.3-.207.171.785.557.33.086.703.3 1.033.343.041-.943-1.447-1.286-1.818-.9ZM137.637 37.333c-.082-.515-.578-.815-.868-1.115-.371-.386-.661-.857-1.281-.986.042.558.042.43.331.686.909.857 1.199 1.415 1.818 1.415ZM165.041 36.431c0-.514-.455-.6-.826-.9-.456-.343-.827-.643-1.241-.814.125.643 1.282 1.843 2.067 1.714ZM165.289 47.96c0-.558-.784-.9-1.281-.9.083.471.124.471.538.771.248.171.372.257.743.129ZM208.357 44.19c.041-.6-.495-.73-.951-.858.083.686.291 1.029.951.857ZM170.291 31.76c.412-.129.371.386.495-1.157.084-.6.206-1.114.249-1.757-.373.085-.579-.129-.827 1.114-.084.557-.165 1.329.083 1.8ZM61.875 39.26c.413-.172.29-.086.62-.472l1.323-1.8c-.951 0-1.819 1.2-1.943 2.272ZM160.535 46.888c-.454-.3-.578-.557-1.24-.514.083.471.083.386.456.643.868.471 1.404 1.028 1.818.771-.166-.471-.661-.643-1.034-.9ZM181.49 34.93c.249-.128.373 0 .786-.771.247-.472.331-.771.082-1.2-.454.343-.785 1.371-.868 1.971ZM163.511 46.932c-.083-.643-1.034-1.285-1.654-1.285.125.685 1.241 1.242 1.654 1.285ZM173.102 43.46c.743-.17.91-.857.661-1.67-.537.042-.661 1.114-.661 1.67ZM181.906 39.946c.207-.043 1.53-.9.456-1.372-.373.343-.497.9-.456 1.372ZM152.062 31.117c.043-.6-.413-1.2-.992-1.414.042.643.332 1.415.992 1.415ZM138.959 27.646c.289.343.456.386 1.034.428-.166-.642-.413-.9-.786-1.028-.206.257-.206.128-.248.6ZM180.377 32.96c.537-.086.62-.729.661-1.243-.455 0-.455-.043-.62.386-.165.386-.124.471-.041.857ZM183.309 40.46c.578-.043.951-.257.702-.857-.661-.086-.661.171-.702.857ZM182.152 37.033c.786-.086 1.365-3.258 1.365-3.386-.827-.043-1.447 3.043-1.365 3.386ZM152.145 18.86c.662.043.786-.814 1.033-1.328.29-.643.744-1.115.579-1.758-.579 0-.661.729-.992 1.33-.206.428-.661 1.285-.62 1.756ZM145.863 28.932c0-.471-1.115-2.957-1.859-2.914.041.557.825 1.672 1.198 2.314.248.515.082.515.661.6ZM144.293 28.89c0-.515-.166-.729-.413-1.158-.249-.514-.165-.814-.827-.728 0 .514.165.686.413 1.114.33.643.206.857.827.772ZM144.291 22.075c-.082-.6-.247-.814-.536-1.243-.332-.514-.29-.771-.868-.771.082.514.289.728.495 1.157.289.6.165.771.909.857ZM164.296 33.39c0-.644-.661-1.33-1.239-1.287-.125.6.619 1.33 1.239 1.286ZM180.953 33.904c.538-.086.496-.043.661-.558.166-.385.248-.557.083-.9-.579.129-.662.857-.744 1.458ZM198.686 45.004c0-.043-.041-.129-.041-.086-.041 0-.083-.086-.083-.086-.124-.128-.041-.086-.247-.214-.538-.343-3.142-1.586-3.555-1.586.082.9 3.266 1.929 3.926 1.972ZM143.59 41.317c.289.429 2.893 2.015 3.554 2.143-.123-.6-.207-.514-.702-.771a11.593 11.593 0 0 1-.951-.6c-.33-.215-1.447-1.029-1.901-.772ZM143.962 42.56c-.124-.47-.124-.385-.909-.9-.413-.3-.662-.557-1.241-.6.043.73 1.944 1.5 2.15 1.5ZM134.455 37.932c-.166-.729-2.976-3.171-3.514-3.214.083.557 1.158 1.371 1.571 1.714.537.472 1.199 1.414 1.943 1.5ZM138.962 40.803c-.207-.6-1.53-1.5-2.108-1.628.124.728 1.654 1.585 2.108 1.628ZM149.873 44.918c-.041-.729-1.571-1.2-1.984-1.2.165.6 1.613 1.2 1.984 1.2ZM79.855 44.018l-.248-.643c-.537.3-1.447 1.286-1.447 2.1.703.086.662-.471 1.157-.986l.62.129c.496-.643 1.2-.6 1.075-1.414-.744-.172-.579.385-1.157.814ZM204.35 43.675c.247.514 1.363.857 1.901 1.071.909.343.619.043.744-.086-.249-.3-.868-.514-1.282-.685l-.951-.43c-.661 0-.247.044-.412.13ZM174.34 32.189c.372-.086.413.257.538-1.029.081-.557.206-.943.124-1.5-.911.3-.579 1.372-.662 2.529ZM107.258 31.503l.744.172.206.6c.744.043 1.034-.043 1.571-.472v-.943c-.909.043-.455.258-1.488-.042-.661-.172-.951.128-1.033.685ZM35.547 34.675l.083-.343-.62.129v-.429l-.455.086-.165.3c-.62-.086-.083-.043-.703-.171-.124.3-.165.385-.413.685-.29.386-.29.129-.29.772.662.042.662-.129 1.158-.472l.496.386c.165-.086.661-.686.909-.943ZM204.226 44.917c-.29-.514-1.983-.857-2.728-1.114-.744-.215-2.356-.857-3.1-.815.455.858 4.589 2.015 5.828 1.929ZM140.654 13.932l-.082.728c.537-.043.702-.6.744-1.028-.538-.043-.332-.043-.662.3ZM143.467 25.332c-.124-.857-2.068-4.157-2.687-5.357-.29-.6-.082-.472-.661-.643.041.6 2.15 4.5 2.604 5.4.247.515.124.515.744.6ZM205.299 42.861c.62-.128.331-.128.579-.728.206-.557.33-.429.289-1.114-.619.085-.454 0-.702.685a2.14 2.14 0 0 0-.207.557c-.042.086-.083.215-.042.3 0 .3 0 .172.083.3ZM209.473 43.505c0-.129.249.214.041-.343-.165-.386-.619-.3-.95-.3.082.6.414.771.909.642ZM132.595 33.475l-.166-1.028c.455.385.662.814 1.075 1.328.868-.043.372-.043 1.157.3-.124-.6-.62-1.414-.992-1.8-.537-.6-1.198-.643-2.231-.557.082.472.454 1.114.702 1.415.289.428 0 .128.455.342ZM128.173 19.932c.124.429.206.815.661.9.041-.514-.744-1.757-1.033-2.314-.496-.086-.786-.086-1.24-.171.082.6.33.771.62 1.243.537.814.372.471.992.342ZM185.543 39.433c.785-.3 1.488-2.7 1.282-3.9-.456.086-.414.172-.538.686-.165.857-.786 2.614-.744 3.214ZM168.43 29.704c.619.042.537-.172.784-.643.249-.514.414-.557.208-1.2-.579-.043-.497.128-.703.728-.124.386-.289.686-.289 1.115ZM197.571 46.375c-.414-.514-6.447-3.557-6.903-3.643.289 1.072 5.87 3.6 6.903 3.643ZM137.968 25.847c.29-.514-.041-.943-.206-1.585l.29-.086c.33-.086 0 .086.289-.043-.041-.386-.786-1.329-1.365-1.2-.082.514.538 2.614.992 2.914ZM132.017 33.732c-.041-.557-.909-1.928-1.488-1.928 0 .471.91 1.8 1.488 1.928ZM169.215 48.047c-.413-.429-1.901-.943-2.48-1.243-.992-.472-1.281-1.286-2.273-1.5l-.289.6c-.331-.172-.414-.386-.909-.472 0 .515 0 .429.33.686.124.043.579.428.662.471.538.258.868 0 1.736.429l2.687 1.2c.536.043.33 0 .536-.171ZM136.52 11.79c-.165-.686-.537-1.2-.909-1.972-.454-.986-.537-1.543-1.033-1.757-.041 1.5.62 3.557 1.942 3.728ZM183.146 37.675c.702.085.702-.815.91-1.415.206-.642.536-1.243.454-1.971-.702-.043-.537.085-.951 1.5-.165.6-.495 1.328-.413 1.886ZM168.637 35.532c-.124-.557-2.439-2.614-2.975-2.657.041.986 2.272 2.614 2.975 2.657ZM147.392 28.675c-.083-.686-.538-1.372-.868-2.1-.248-.6-.041-.472-.538-.6-.248.471.041 1.071.249 1.542.289.558.537.986 1.157 1.158ZM167.644 36.69c-.165-.515-.041-.301-.412-.687-.207-.171-.289-.257-.497-.471-.744-.729-.578-.814-1.239-.9.123.9 1.239 1.928 2.148 2.057ZM172.317 31.29c.414-.215.744-1.5.744-1.844-.95.129-1.363 1.329-.744 1.843ZM150.12 21.989c.29.171.785.171 1.24.043.042-.515-.125-.729-.496-.986-.497.128-.827.3-.744.943ZM135.529 34.202l1.364-.214c.497.385 1.033.985 1.487 1.071l.167-.514h.371c.248-.086.124-.043.248-.129-.207-.685-.578-.771-1.24-1.071-.289-.129-.62-.386-.909-.386-.62-.086-.538.129-.951.3-.661-.343-1.281-1.329-2.025-1.371.083.6 1.075 1.714 1.488 2.314ZM166.901 29.189c.661-.043.537-.172.702-.814.166-.515.331-.686.289-1.33-.701.087-.495.13-.744.9-.124.472-.289.644-.247 1.244Z" clip-rule="evenodd"/><path fill-rule="evenodd" d="m195.214 34.46.619-1.414c.041.086.331.258.084.9-.125.386-.29.43-.703.515Zm-2.645-.214c.165-1.028.454-2.442 1.198-2.785 0 .728-.289.728-.413 1.414-.206 1.157.124 1.114-.785 1.371Zm2.437-1.67c0-.558.208-.687.373-1.158.206-.686 0-.857.454-1.2.497.514-.124 2.229-.827 2.357Zm-.412-3.858c-.207-.343-.207.428-.124-.471.082-1.072.495-.986.703-1.072 0 .514-.083 1.286-.579 1.543Zm-1.281-1.886c.041-.686.124-1.243.619-1.414.206.428.041 1.157-.619 1.414Zm-14.054 1.886c-.082-.129-.33.343-.124-.6l.413-1.286c.414-1.457.29-1.414.786-1.629.082.172.206-.085.082.515l-.413 1.285c-.165.515-.331 1.372-.744 1.715Zm13.268-2.314c.042-.858.042-1.03.331-1.8.661-1.93.041-1.2.661-1.5.041.085.413-.13 0 .9-.496 1.157-.414 2.014-.992 2.4Zm-15.086-1.2c0-.3.536-2.015.868-2.23.082.13.289.172.123.73-.041.17-.206.385-.247.6-.332.814.041.771-.744.9Zm10.746 5.1c-.95-.172-3.845-2.786-4.753-4.329l-1.282-3.3c-.413-1.2-.33-3.043.579-3.686.537-.171 1.405-.171 2.067-.171 1.033 0 1.239-.043 1.405.9.413 2.143-.166 2.357-.372 4.028-.372 3.558 2.397 4.929 2.356 6.558ZM161.486 14.06c.041 0 .165.043.206.086l.332.343.33.686c.165.343.165.557.455.814.703-.3.083-.386.827-.557.041.6-.208 1.8 0 2.143.33-.129.33-.343.413-.729.206-.643-.042-.6.412-.943.456.729-.081 1.115.043 2.529l.825.086c.332.428.043.428.497.642l.455-.642c0 .043.04.085.083.085.371.172-.124.043.413.215.165-.215.206-.257.371-.643.249-.6.084-.429.62-.6l-.165 1.585.662-.428c.082 1.928 1.239.986 1.571.943-.043 1.2-.166 1.243.33 1.586.372-.558.083-.772.248-1.372.124 0 .496-.3.62.729.041.514-.041.857-.041 1.371 1.033-.128.165-1.071 1.363-1.114l-.041 1.286c.827-.3.249-.643.992-.986.249.771-.083.771-.041 1.285 0 .686.041.258.123.43.29-.13.249.17.538-.9.165-.687.041-.858.579-.9.496.685-.206 1.328.041 2.27.827-.257.207-.342.745-.77.454.256.784 1.37.992 1.8l1.693 3.857c.208.385.332.6.579.857.414.428.455.471 1.157.428.455-1.157.373-1.414.579-1.928.332-.6.373-1.586.786-1.715.206.986-.413 1.329-.579 2.057-.372 1.843-.331.729-.578 1.586-.249.9.082.643.124.729.289-.214.701-1.243.909-1.715l.33-.642c.248.385.165.3 0 .728-.206.6-.703 1.757-.619 2.314.743.086.578-.6.784-1.285.249-.772.414-1.243.951-1.5 0 1.114-.661 1.585-.619 3.214.454-.214.206.214.454-.514.331-.986.165-1.5.827-1.715.247.472 0 1.115-.207 2.1-.082.515-.124.43.041.772.497-.3.413-.643.578-1.114.208-.686.043-.258.29-.515.166.729-.041 2.529.248 3 .662-.085.165-.085.662-.771.289.386.124-.6.247.986.827.085.124-.3.827-.6.33.685-1.363 4.071-1.281 5.271.661-.043.621-.943.91-1.628.289-.729.454-1.33.701-2.058l.745.129c.207-.643.207-.943.826-.986.124 1.843.042 2.229-.412 3.729-.289.986-1.034 2.314-1.116 3.343l.536-.043c.042-.643.413-1.372.703-2.057.124-.343.248-.6.413-.986.208-.686 0-.772.579-.943.373 1.072-.992 2.614-1.033 4.157.662-.128.538-.343.786-1.028.165-.472.247-.729.454-1.2l.661-1.843c.207-.6.083-.386.538-.514.124 2.1-1.199 3.128-1.282 4.843.827-.172.662-.858 1.365-2.4.206-.515.289-.815.495-1.33.249-.642.249-.985.951-.9.123 1.115-1.695 4.158-1.654 4.972.952-.128 1.82-3.943 2.894-4.157.042.729-.95 2.529-1.034 3-.083.6.041.386.125.514.454-.257.743-1.242 1.116-2.1.206-.471.082-.428.661-.471 0 .986-1.115 2.272-.826 2.957.536-.257.991-1.714 1.198-2.228l.785-1.715c.207-.685.042-.428.537-.6-.083 1.629-1.57 4.072-1.611 5.272.578-.129.413-.257.703-.857l1.487-3.515c.289-.728.703-1.585 1.033-2.314.208-.557.703-1.929 1.157-2.143.703.772.166 1.329-.289 2.1l-1.736 4.2c-.371.729-.868 1.757-.868 2.272.62-.129.538-.215 1.117-1.586l1.776-3.814c.208-.472.538-1.543.952-1.758 1.281.643-2.026 5.186-2.191 7.158.62-.086.579-.3.868-.815.206-.471.331-.728.537-1.157.248-.514.868-2.014 1.323-2.186 0 1.2-1.199 2.786-1.323 3.858.827-.172 1.034-1.758 1.613-2.443.082.171.454-.343-.084.814-.372.814-1.033 2.057-.951 2.529.456-.043.456-.386.703-.772l1.157-2.357c.084-.171.165-.343.29-.557.248-.429.124-.343.496-.429.62 1.072-1.405 3.343-1.322 4.286.495 0 .454-.129.701-.6.167-.3.373-.643.538-.986.744-1.371.414-1.628 1.2-1.8.123 1.715-1.035 2.315-.911 3.386.538-.043.952-1.114 1.323-1.886.456-.985.042-.514.497-.814.082.129.289.214.082.814l-.372.772c-.207.471-.578 1.114-.578 1.757.743-.171.289.043 1.074-1.372.124-.257.248-.428.372-.728.29-.514.165-.557.703-.386.041.043.041.043.082.129.042 1.286-.579.771-.579 2.057.579-.129.455-.257.868-.857 1.53-2.357-1.487-2.615-2.81-4.157-.743-.858-4.298-6.3-4.794-7.372-.497-.986-.58-1.243-.827-2.272-.124-.428-.497-2.185-.497-2.485.579 0 .993.771 1.282 1.243 2.025 3 3.39 5.143 6.365 7.2.703.471 2.604 1.671 3.596 1.8-.289-.643-3.265-2.143-4.876-3.557-2.109-1.8-5.085-6.686-7.4-9.515-.703-.9-1.736-.471-2.81-1.457-1.364-1.2-.289-1.414-2.77-1.543-1.115-.986-.536-.6-2.355-.643l-.703-.9-3.637.086c-.455.086-.33.257-.868.343-.951-.857-1.654-3.257-2.852-3.429-.868-.085-1.736.386-2.521.686-.621.257-1.654.771-2.357.814-.495-.086-4.215-4.586-4.877-5.1-.909.214-.62.471-2.067.429-.827-.043-1.652-.172-2.273.3-.661.471-.495.728-1.282 1.157-.66.386-2.025.343-2.107.428Z" clip-rule="evenodd"/><path fill-rule="evenodd" d="M167.439 22.46c.249-.556.579-.814 1.158-.814.041.472-.206 1.329-.496 1.715-.413-.258-.578-.386-.662-.9Zm4.051 4.458c.786-.386.248-.772 1.736.214.454.3.578.643.951.343.95-.814-1.53-3.3-3.142-3.943-.743-.3-1.446-.214-1.984-.686 0-.685.414-.9.165-1.543-.495-1.242-3.429-.771-5.165-.685.082.557 1.074 1.585 1.571 1.885 1.033.686 1.115.558 2.025 1.372.909.814 1.983 1.457 2.934 2.186.413.3.538.642.909.857Z" clip-rule="evenodd"/><path fill-rule="evenodd" d="M63.736 44.104c-.041-.815.413-1.243 1.074-1.372-.082.472-.165.6-.372.9-.248.386-.165.472-.702.472Zm-1.281-.043c.123-.514.826-1.5 1.115-1.629.042.129.372-.128-.248.857-.372.557-.206.643-.867.772Zm7.067.514-.661-.086c-.33-.857 1.405-2.142 2.19-2.228-.04.6-1.115 2.057-1.529 2.314Zm-11.49-.557c.083-.6.33-.729.579-1.072.454-.642.124-.685.867-.642-.04.857-.66 1.585-1.446 1.714Zm-4.423-.257c-.082-.172-.496-.129.33-1.072.29-.343.373-.6 1.034-.471.166.771-.702 1.8-1.364 1.543Zm7.688.171c-.041-.643.786-1.886 1.653-1.886-.04.429-.33.73-.578 1.115-.33.471-.414.814-1.075.771Zm-12.317-.6c.124-.814.537-1.2 1.075-1.371.082.643-.496 1.2-1.075 1.371Zm-2.48-.3-.703-.043c0-.428.414-1.542 1.116-1.328.124.257.166-.343.124.343-.041.385-.289.814-.537 1.028Zm10.498.557c.125-.642.29-.685.58-1.157.288-.514.206-.771.826-.814.124.986-.661 1.8-1.406 1.971Zm-14.177-1.328c-.04-.557.042-.515.414-.772.372-.3.455-.428.992-.514-.083.686-.662 1.329-1.406 1.286Zm45.301-.129c.083-.557.372-.685.785-1.028.248-.215.538-.557.951-.6-.124.471-1.157 1.543-1.736 1.628Zm-48.897-.814c.042-.686.042-.472.496-.814.745-.558 1.406-1.286 2.067-1.243.041.557-.041.428-.992 1.243-.537.428-.703.814-1.57.814Zm47.41.857c.04-.6.288-.728.578-.986.661-.557 1.529-1.585 2.521-1.971-.083.471-2.439 2.871-3.1 2.957Zm-34.886 1.8.372-1.286c-.62.3-1.364 1.543-2.108.986-.04-.086-.33.086.042-.6.372-.6.909-1.371 1.57-1.5l.33.729c.662-.086.456-.129 1.158-.858.62-.685 2.522-2.914 3.059-3.128-.124.557-2.563 3.814-3.059 4.543-.33.514-.496 1.114-1.364 1.114Zm3.514-3.3c.123-.686.826-1.243 1.157-1.586.33-.385.661-1.071 1.281-1.157.042 1.114-1.405 2.614-2.438 2.743Zm-2.356-.386c-.124-.814.413-1.071.868-1.414.496-.343.909-.729 1.446-.857-.124.771-1.405 2.271-2.314 2.271Zm-8.763 2.015c.124-.386 3.39-4.2 4.34-4.2-.041.47-.661.942-.992 1.328-1.199 1.2-1.116 1.243-2.025 2.7-.414.643-.91.9-1.323.172Zm-5.042-2.829c.082-.514.372-.771.909-1.029.496-.257.95-.428 1.488-.3 0 .515-.496.558-.992.772-.496.257-.827.514-1.405.557Zm-.992-.6c-.042-.686.04-1.371.826-1.329.248.815-.083 1.415-.827 1.329Zm-3.018-1.243c.124-.3-.124-.214.496-.257.744-.043 1.778-.214 2.067.129-.166.343.124.3-.538.385-.289 0-1.777-.086-2.025-.257Zm12.235 3.429c.082-1.243 2.934-3.815 3.472-3.986-.124.857-2.15 3.771-3.472 3.986Zm3.926-.643c-.206-.9.62-1.457 1.778-2.443.413-.386 1.653-1.8 2.355-1.8l-.04.729c-.414.342-.91.428-1.2.685-.62.557-2.149 2.786-2.893 2.829Zm-7.15-2.7c.165-.429.082-.429.785-.857.33-.215.579-.343 1.075-.386-.166.814-.992 1.2-1.86 1.243Zm.826 2.314c.124-.514 3.348-3.557 4.01-3.686-.124.558-3.514 3.558-4.01 3.686Zm4.299-2.486c.124-.685.95-1.457 1.447-1.843.206.429-.166.73-.455 1.072-.29.429-.372.643-.992.771Zm-9.217-1.114c.124-.686.124-.643.703-.814-.083.728-.042.728-.703.814Zm58.155.557c-.827.643-3.348 3.515-4.712 3.472.29-.857 1.653-.772 1.736-1.672l-1.157.257c.165-1.328 2.438-2.271 3.017-2.571.372-.214.537-.514 1.033-.643.166-.343-.165-.129.372-.428.29.128.248.47.413.385l.703-.171c-.165.471-.992 1.157-1.405 1.371Zm-5.621.815c.495-.558 3.017-2.4 3.802-2.572-.165.557-2.48 2.829-3.141 3.6-.496.557-2.81 2.872-3.596 3.043.207-.9 2.315-2.357 3.224-3.514l-.124-.257c-.041-.086-.083-.129-.165-.3ZM47.533 43.16c-.082-.129-.248.3-.082-.386.124-.686 1.405-1.2 1.694-1.628.29-.386.331-.944.579-1.372.29-.386.62-.643.95-.986.62-.728 1.034-1.243 1.82-2.057.371-.428 1.57-1.8 2.025-1.971-.124 1.285-.786 1.671-1.571 2.314-.496.386-1.24 1.371-1.653 1.929-.29.428-.455.643-.786 1.157-.702 1.2-1.488 1.971-2.273 3.171l-.703-.171Zm48.608-3.429c.165-.857 1.115-.771 1.735-1.414.331-.3.207-.557.58-.943l2.892-1.8c.868-.6 1.24-1.2 1.695-1.286-.083.514-1.364 1.757-1.86 2.1-.165 1.757-2.77 3.429-5.042 3.343Zm-43.937-3.557c.083-.729 1.281-1.929 1.943-2.143-.207 1.029.082-.086-.951 1.286-.29.428-.496.6-.992.857Zm7.068.3c.083-.772.413-1.414.826-1.843.207-.257.455-.471.703-.728.785-.815.166-.43.785-.686-.04 1.157-.66 1.157-1.115 1.757-.455.6-.455 1.457-1.2 1.5Zm-4.258-1.243c.083-.557.372-.729.662-1.114.455-.515.248-.772.95-.815 0 .643-.289.772-.62 1.115-.454.428-.413.514-.992.814Zm1.2.214c.04-.771.371-.728.743-1.242 1.033-1.372.166-.9.95-1.115 0 .729-.62 1.243-1.115 1.886-.413.557 0 .3-.579.471Zm34.347 2.786c.082-.514 1.942-2.4 2.397-2.914 1.199-1.243 1.612-2.357 2.893-2.314 0 .6-.165.642-.537.942l-2.439 2.015c.042.471.083.214.124.685-.537.6-1.612 1.629-2.438 1.586Zm29.015-4.714c.124-.514.042-.429.455-.686.248-.171.372-.214.702-.257-.248.514-.496.857-1.157.943Zm-3.555.043c.373-.429 1.406-1.672 1.985-1.8-.166.643-.91 1.114-1.199 1.8.785-.343.951-1.072 1.777-1.286-.165.471-1.488 2.271-2.19 2.443l-.29-.643c-.083-.343-.083 0-.083-.514Zm-59.89-.986c.124-.557.33-.386.702-.814.413-.472.083-.515.785-.643-.04.985-.495 1.5-1.487 1.457Zm58.692 1.2c-.083-.643.62-1.243 1.033-1.629.414-.428.827-.986 1.488-1.157-.083.557-2.108 2.7-2.521 2.786Zm4.753 1.414c.124-1.028 1.406-1.843 2.026-2.571.495-.515 1.818-1.8 2.438-1.929-.124.772-.537.857-.992 1.329l-2.232 2.185c-.372.386-.62.815-1.24.986Zm-33.273-1.114c.248-.472 1.53-1.372 2.026-1.843l1.984-1.929c.372.258.33.215.454.815-1.198.685-2.19 2.4-2.562 2.828-.62.686-4.382 3.729-5.043 3.815.083-1.972 3.844-2.786 4.464-4.2-.827 0-.703.385-1.323.514Zm-47.532-1.972c0-.685.124-.471.413-.857.662-.771-.206-.385.827-.771-.083.857-.166.557-.579 1.028-.29.386-.124.557-.661.6Zm19.344-.342c.206-.558.785-1.415 1.446-1.372.041.472-.206.557-.537.857-.33.258-.455.429-.91.515Zm6.943 1.971c.042-.771.496-1.414.703-1.971.248-.686.455-1.458 1.075-1.629-.042.471-1.116 3.171-1.778 3.6Zm17.939 1.5c-.413-.428-.413-.643.124-.986 1.075-.728 4.753-4.714 6.448-4.714-.33.814-3.224 2.571-3.927 3.472.413.3.207.042.496.428-.744.514-.62.3-1.405.214-.579.472-.95 1.629-1.736 1.586Zm-43.648 1.286c-.165.171.331.471-1.28-.043-.332-.129-.373-.257-.497-.514.165-.643.083-.429.62-.686l.29.386c.04-.043.082.042.082.085l.785-.085c.331-.558.331-.043.373-1.072l-.869.215c-.289-.558.083-.215-.413-.472-.29.214-.785.643-.992 1.029-.91 1.885-.124.9-2.025 1.071.124-.557.083-.428.454-.771.497-.215-.04.471 1.406-.343.206-.986.703-1.8 1.157-2.572.413.129.207.129.744.129.166-.257.414-.514.62-.729.165-.214.124-.128.372-.3.785-.514.207-.257.744-1.2l.372-.685c.207.47-.041.47-.206.9-.124.385-.248.728-.372 1.028.537.386 1.157.257 1.9.3.042.9-.454.429-.702 1.457 1.116-.343.62-1.371 1.984-1.285l-.372 1.157c.827-.086.207-.6 1.033-1.157.331.171.083-.172.29.471 1.901-.386 1.116-.772 1.942-2.229.124-.771.207-.428.455-.857.165-.257.083-.428.29-.814l.289.257c.165.171.041.086.206.129 0-.6 0-.472.207-.729.29.343.083-.386.207.472 0 0-.042.428-.042.514.414-.172.331-.257.496-.6.29-.429.083-.043.414-.515.041.043.082.172.124.215l.165.214c.248.3.207.086.207.6l.62-.129.082.6c.62-.257.579-.77 1.406-.942-.166.814-.703 1.157-1.199 1.628-.372.343-.372.343-.62.772-.248.3-.413.385-.496.857.661-.172.165-.472 1.447-1.586 1.198-1.071 1.322-1.286 1.818-.943l-1.281 1.543c.083 1.114.62.943.124 2.272-.868.385-1.323.3-2.108.857-.579.471-.744 1.028-1.695 1.243-.826.171-1.529 0-2.52.257-.786.171-1.737.471-2.522.514.124-1.028 1.405-.857 1.694-2.143-.413.086-.372.172-.66.386-.745.086-.662-.086-1.24-.086-.703-.043-.29.129-.993.3l-.372-.471c-1.116.471-1.157.257-1.57 1.285-.207.515-.166.386-.373.815Zm6.655-5.229c-.165.386-.124.429-.661.386l-.042-.343-.165-.172c-.041 0-.124-.085-.165-.128l-.166.257c-.04 0-.082.086-.082.086 0-.043-.083.043-.083.086-.124.128.29.085-.33.171h-.414c-.29-.043-.537-.043-.744-.086-.455-.386-.29-1.328.083-1.886l1.033-1.285c.33.6 0 .557.579.943 0 0 .041-.043.041-.086.372-.557.083-.343.579-.6 0 1.071-.248.471-.248 1.329l.578.128.207-.386c.372-.514.207-.214.537-.343-.04.558-.248 1.586-.537 1.93Zm24.8-.428c.041 1.371.496-.472 0 1.885.62-.385-.166-.214.62-.3.206-.557.496-1.243.867-1.5.166 1.072.042.343-.165 1.5-.124.6-.578.986-.578.986s-.083.086-.083.129c-.041.685 0 .257.124.385.33-.557.33-.771.703-1.328.744-1.157.082-.9.66-1.329 0 0 .208.043.042.686-.041.128-.165.343-.248.557-.785 2.1-.496 3.043-1.777 3.043-.496-.814-.455-.557-.661-1.714h-.166c-.289.642-.082.857-.62 1.457-1.074.128-2.19.043-2.852-.472 0-1.243.455-2.185.91-3.043.29-.514.868-2.014 1.488-2.143 0 .472-.868 2.315-1.158 2.915-.537.986-.165.814-.124.857.538-.557 1.034-1.457 1.282-2.314.082.085.496-.215.165.685-.207.558-.703 1.072-.785 1.8.785-.385 2.728-4.542 3.141-4.843.083.258.124-.3.041.258 0 .3-.702 1.371-.826 1.843Zm48.937.342c.124-.728 2.191-2.485 2.439-2.528 0 .685-2.108 2.443-2.439 2.528Zm-35.587.172c0-.771.868-1.157 1.57-1.586.662-.471 1.406-1.114 2.233-1.2-.166.514-.455.6-.868.9-.414.3-.579.472-.951.729-.868.643-1.447 1.243-1.984 1.157Zm-31.909.171c.083-.771.124-.471.662-1.028.702-.686 1.653-1.715 2.728-1.929-.207.472-.703.857-.992 1.072-.703.557-.372.342-.786 1.028-.785.086-.454-.171-.826.386-.372.471-.124.386-.786.471Zm66.174-1.928c.206-.472 1.24-1.586 1.818-1.758-.165.73-.992 1.8-1.818 1.758Zm-3.472-.3c.165-.9 1.074-1.886 1.984-1.972-.207.429-.496.686-.868 1.072-.496.514-.455.728-1.116.9Zm-63.859-.772c.124-.857.62-1.114 1.364-1.2-.29.557-.744.986-1.364 1.2Zm66.876.386c.166-.686 1.075-1.586 1.695-1.714-.166.557-.414.557-.744.943-.29.428-.331.685-.951.771Zm-37.489 1.629c.042-1.072 2.356-3.215 3.224-3.258-.248.6-.992 1.243-1.529 1.758-.33.3-1.281 1.37-1.695 1.5ZM54.56 26.532c.248-.172-.33-.172.33-.129l.373.472c.62-.086.744-.172 1.116-.472l.165.258c.207.342-.207-.086.207.257l.372-.043c-.124.643-.331 1.028-.91 1.157-.248-.214-.165-.043-.248-.429-1.364-.128-1.364 1.672-2.934 1.886.082-.771.454-1.029.992-1.328 1.281-.686.95-.086 1.074-1.072l-.496.172c-.454.342-1.612 1.457-2.149 1.5.041-.986 1.488-1.5 2.108-2.229Zm54.724 1.071c.166-.643.62-.943 1.282-1.114-.166.557-.579 1.029-1.282 1.114Zm-57.948-.257c.207-.643.579-.9 1.075-1.114-.083.343-.124.428-.29.686-.289.385-.206.3-.785.428Zm36.166 0c-.372.086-3.224 2.443-3.885 3.086-.207.214-.207.3-.579.257-.041-2.1 3.307-2.871 4.05-4.414.373-.472.29-.343.662-.386l.248.557.537-.171c-.165.343-.661.857-1.033 1.071Zm-3.761.943c.29-.686.744-.9 1.198-1.286.414-.343.868-.814 1.447-.9-.165.686-1.943 1.972-2.645 2.186Zm-3.059.171c.165-.814 1.777-2.4 2.77-2.57-.248.642-.827 1.028-1.282 1.456-.413.429-.826 1.072-1.488 1.114Zm6.903-.342c.082-.643.33-.643.868-.857 1.446-.515 1.86-1.286 2.934-1.715-.33 1.029-1.529 1.243-1.818 2.143.868-.171.868-.557 1.777-.686-.083.729-.661 1.886-1.157 2.186-.827-.086-1.034-.428-1.075-1.286l-1.53.215Zm-7.895-.729c.041-.729.083-.386.827-1.157.372-.343.578-.686 1.157-.9-.207.557-.455.729-.868 1.2-.372.343-.496.771-1.116.857Zm-8.928-.9c.083-.771.662-1.114 1.488-1.2-.206.643-.868 1.029-1.488 1.2Zm-.454-.257c-.372.086-.91.986-1.282 1.286-.95.728-4.712 2.528-5.538 2.614.206-.643-.083-.171.29-.557.495-.514 2.107-1.8 2.644-1.929l.248.515c.455-.043 1.943-.686 2.067-.9l.165-.3c-.496-.386-.248 0-.372-.558.372-.514 2.067-1.242 2.728-1.5-.082.858-.33 1.029-.95 1.329Zm1.405-2.229c.455-.043.33.3.372.472l-.62.043c-.041-.3-.124-.472.248-.515Zm18.517.472c.083-.558.703-.686 1.281-.729-.206.729-.496.943-1.281.729Zm24.18 2.4c.082-.515 1.405-1.8 1.611-1.972.497-.385.827-.343 1.323-.6.537-.3.662-.514 1.075-.728-.248 1.071-3.265 3.257-4.009 3.3Zm-13.475-2.1c.083-.514 1.199-1.243 1.612-1.329-.165.643-.951 1.372-1.612 1.329Zm16.946 3.171c.083-.643 2.77-3.171 3.101-3.557.371-.429.413-.943 1.198-.9-.165.428-2.769 3.214-3.059 3.471l-1.24.986Zm-23.724-3.728c.165-.558-.042-.343.496-.686.206-.129.248-.172.537-.257-.041.685-.33.857-1.033.943Zm-21.659-.343c.042-.686.166-.772.91-.643-.083.6-.29.686-.91.643Zm15.996.428c.083-.814.744-1.286 1.53-1.286-.083.643-.786 1.2-1.53 1.286Zm11.325.257c0-.6 1.281-1.757 1.777-1.842-.165.6-.372.6-.743 1.071-.331.386-.331.729-1.034.771Zm16.079-1.842c.496-.472.826-.6 1.653-.6-.124.814-.165.385-.538.942-.413 0-.743-.043-1.115-.342Zm-12.979 1.714c.041-.557.537-.9 1.157-1.5.331-.3 1.034-.986 1.571-1.029-.083.386-2.025 2.443-2.728 2.529Zm-11.945-.986c.041-.643-.207-.171.29-.6.371-.343.95-.814 1.487-.814-.082.386.083.171-.33.514l-1.447.9Zm63.033-1.071c-.373-.6-.043-.643.081-1.243.166-.6-.081-.943.332-1.2.165.343.123.943.082 1.371-.082 1.157-.414 1.029-.495 1.072Zm-86.303 3.128c.702-.257.289-.128.702-.6.538-.557.207.172.496-.6.248-.771 1.57-1.543 2.19-2.057.332-.257.704-.814 1.076-.643l-1.984 1.757c-.372.3-.455.3-.662.643.744-.043.868-.428 1.53-.557-.166.557-2.232 2.186-2.811 2.443-.413.172-1.653.471-1.901.729-.455.471-.042.557-1.116 1.371-2.976 2.271-1.819 3.171-6.944 1.543-1.86 1.414-1.157 1.457-1.943 2.057-.33.257-.785.514-1.24.772-.496.257-.703.557-1.157.728.248-.857.827-.3 1.323-1.628.413-1.072 2.149-1.5 2.19-2.7-.95.214-3.43 3.9-4.918 4.114.124-.729.826-1.114 1.488-1.5 1.116-.6.413-.729 1.363-1.543 1.282-1.029 1.695-2.4 3.018-2.829.041.043.041.086.082.129.703.986 2.026-.043 2.232-.086 1.158.086.951-.043 1.82-.6.826-.514 1.529-.214 2.355-.386 1.695-.3 2.48-1.885 3.472-2.1-.165.943-.496.472-.661 1.543Zm40.464-3.128c.248-.6-.124-.086.414-.6.454-.429.62-.772 1.157-.857-.083.47-.331.642-.62.9-.331.342-.372.47-.951.557Zm-1.942.043c.041-.515.206-.472.578-.9.703-.815.372-.558.951-.686-.083.6-.289.6-.661.986-.29.257-.372.514-.868.6Zm11.821-1.372c.537-.428.992-.514 1.818-.386-.041.472-.992 1.329-1.446 1.372-.413-.3-.372-.472-.372-.986Zm-3.761 3.257c-.538.6-2.15 2.657-3.018 2.572-.082-.515.207-.643.538-.9.702-.557 1.529-1.372 2.273-1.757l.455-.429c0-.043-.042-.086-.083-.129-.041 0-.083-.042-.124-.042l-.207-.043c-.041-.043-.165.043-.206.043.041-.172 2.604-3 3.802-3.258-.083.9.042.472-.992 1.329l-1.116.943c-.248.128-.62.385-.909.471-.041.172-.041.729-.041.814-.124.343-.248.3-.372.386Zm-3.142 4.972c1.364.171 5.332-2.915 6.366-3.815.991-.9 4.298-4.714 5.249-5.1-.372 1.115-4.753 5.358-5.911 6.386l-3.513 2.657c-.496.429-.207.472-.496 1.072-.165.3-.496.428-.744.771-.331.386-.661 1.672-.868 2.186l.496.429c-.165.685-1.075 1.028-1.323 1.928.538-.171 1.447-.986 1.943-1.371 1.488-1.114.703-.429 1.447-1.715.537-.985 1.653-1.714 2.48-2.528.248-.257.413-.472.868-.515-.042.643-3.927 4.115-4.175 5.015.248.171-.207 0 .289.171.083 0 .29 0 .372.043 1.116.172.91.557 1.571.772l.496-.429.124.429c.083.257.083.214.165.343l.538-.472c.62-.557 1.115-1.071 1.612-1.114 0 1.714-1.943 1.843-3.266 2.057-1.446.214-3.017.9-4.298.986.082-.729.496-.429.702-1.243-1.157.214-.702 1.243-2.19 1.585l-6.159 1.072c-.868.043-.744-.129-1.612.171-.537.172-.992.343-1.53.343.207-.643.786-.986 1.199-1.414 2.522-2.529 1.612-.857 2.687-1.971.372-.429.62-.858 1.281-.986.042.986-1.736 1.671-1.818 2.571.826-.257 1.901-1.285 2.728-1.371l-.29.857c.124-.043 2.315-.9 2.604-1.243-.165-.386.207-.086-.33-.428 0 0-.331-.13-.372-.172-2.77-1.414-2.398-1.586-5.828-2.014-.083-.6.33-.686 1.281-1.5.62-.515 1.075-.857 1.571-1.329.578-.471.992-.814 1.57-1.328.62-.472.992-.729 2.026-.43-.166.644-.331.472-.496.944.496-.043 1.86-.772 2.562-1.072 1.406-.514 1.24-.514 2.15-1.414.702-.771 3.058-3.429 3.844-3.557-.125.471-3.1 3.729-3.844 4.414-.372.386-1.075.986-1.158 1.329Zm-41.746-6.386c-.289-.6-.124-.386 1.24-1.586.579-.514 1.116-1.071 1.612-1.243-.124.643-.868 1.2-1.364 1.543-1.818 1.286-.248 1.457-1.488 1.286Zm24.263-4.2c-.042-1.329 1.446 0 0 0Zm14.011-.472c0-.342.166-.771.786-.771.082.471.082.943-.372 1.071-.496.13-.29-.042-.331-.085l-.083-.215Zm3.968 4.244c.372-.772 3.472-3.086 4.423-3.858.537-.386.95-1.071 1.653-1.071-.083.6-.661.9-1.157 1.285-.455.343-.868.73-1.281 1.072-.786.729-2.315 1.714-2.48 2.486 1.198-.3 2.562-1.843 3.596-2.058-.207.6-1.282 1.415-1.778 1.843-1.074.986-4.67 4.372-5.662 4.63.454-.9 1.901-1.715 2.066-2.315-.578 0-1.405.943-1.86 1.328-.454.386-.496.258-1.198.429-.786.171-.331.557-1.158.386 0-.643.868-1.072 1.158-1.115 1.653-.257.578 0 1.529-.814.537-.471.661-.3 1.323-.986.661-.686.868-.428 1.322-.857-.372-.3-.206.043-.496-.386Zm-41.456-3.858c1.157-1.028 1.074-1.157 1.942-1.243-.289 1.243-.496.6-1.033 1.415l.992.128c-.207.729.165-.171-.868.772l-.207.214c-.041 0-.248.171-.248.171-.33.343-.206.172-.248.686-.661.343 0-.043-.454.429-.538.514-1.034 1.157-1.447 1.371.124-.557.124-.471.455-.771.206-.172.33-.258.578-.386-.041-1.414.083-.429.331-1.329l.207-1.457Zm26.329-.857c-.58.086-.662-.128-.538-.729l.538.043v.686Zm13.143 1.371c-.041-.642.662-1.114 1.034-1.457.33-.385.661-1.071 1.281-1.071-.124.471-1.695 2.571-2.315 2.528Zm1.695.386c.041-.686.331-.686.744-1.071.331-.343.62-.6.951-.857.909-.857 1.198-1.457 1.86-1.586-.083.557-.455.771-.744 1.071-.414.429-2.356 2.358-2.811 2.443Zm-16.533-3.557c0-.6 0-.471.372-.557.248.386.248.9 0 1.285-.33-.17-.372-.17-.372-.728ZM84.237 17.36c.372-.214.454.258.413-.686 0-.214-.33-.942-.29-1.414.042-.985.083-.428.249-.685.537.342.33-.515.289 1.242 0 .6.248.686.207 1.115 0 .6-.207.343-.042 1.243.124.642.083.557-.082 1.157-.29-.6-.124-1.029-.414-1.672-.289.343-.248 0-.33.557 0 .086.082.3.082.386.166.557.414 2.229 0 2.7-.537-.257-.248-1.671-.496-2.828-.124-.472-.33-2.443-.247-2.872.785.043.537 1.029.66 1.757Zm19.178-1.971c-.372.171-.868.086-1.281.128-.083 0-1.86.686-1.158-.942.166-.129-.248-.43.703 0 .207.128.372.171.579.257 1.488.471 1.074.214 1.157.557Zm-9.135.643c-.495-.086-.33.085-.578-.343-.124-.214-.537-1.329.29-1.629.288.429.288 1.329.288 1.972Zm18.187 3.728c.289-.685 5.249-4.8 5.663-4.886-.124.815-3.968 3.986-4.63 4.33.042.514.042.213.124.685l-.62.343c-.454-.214-.289-.129-.537-.472Zm33.769.557c.124-.557.33-.942.454-1.628.206-1.286.496-4.757 1.364-4.757.331 1.414-.95 3.214-.165 4.543.578-.129.331-.386.537-1.8.165-1.243.124-1.63.538-1.8.744 1.328-.827 5.314-.786 6.9-.495 0-1.074 0-1.322-.386-.414-.729.413.214-.62-1.072Zm-36.786-3.771c-.331-.557 0-.771.165-1.371.207-.686.083-.9.661-1.03 0 .344-.165 1.072-.248 1.501l-.165.557c-.289.557 0 .172-.413.343Zm35.464 1.072c1.239-.643.413-3.815 1.86-3.9.082.428-.786 5.957-1.076 6.385-.703-.128-1.695-.6-2.149-1.028.248-.815.372-2.658 1.446-2.658-.041.686-.371.686-.081 1.2Zm-68.861 2.7c-.207-.686-.703-.472-.496-1.5.124-.558.372-.9.33-1.586-.124-1.114-.743-2.272-.826-3.086-.083-1.286.868-2.014 1.405-2.7.29-.386 1.323-1.886 1.778-2.057l4.546 4.628c.041 1.672-.33 1.672-.868 2.958l-.992 2.871c-.29.771-.496 2.486-1.199 2.743-.33.086-2.893.729-3.182.729-1.323-2.443-1.116-2.272-.496-3Zm16.202-7.244c.496.086.372-.17.62.386.207.514.124 4.757.124 5.443-.578-.214-.372-.6-.33-1.243 0-.343-.455-3-.414-4.585Zm23.725 2.615c.124-.386.124-.3.455-.643.579-.6.992-1.243 1.736-1.329-.165.429-1.612 1.929-2.191 1.972Zm-30.42-2.272c.04.429.04.386.123.729.207.728 0 .771 0 1.414.042.386.166 2.872.29 3.043.537-.171.289-.171.248-1.8l-.124-3.771c0-.986-.29-1.372.124-1.929.413.472.248 1.114.289 2.186.041.771.083 1.457.124 2.271 0 1.372.372 2.872.496 4.158.455-.3.083-1.2.083-1.93-.042-1.413-.414-6.9-.207-7.542l.372.043c.248 1.114.207 4.071.248 5.4.041 1.886.661 4.543.62 4.886-.537.3-2.19.6-2.81.6 0-.686.165-.472.165-1.115l-.124-3.257c-.083-.771-.124-1.457-.207-2.228-.083-1.03-.413-1.458.165-1.843.207.3.083.128.124.685Zm18.351 1.029c-.165-.086-.248.257-.289-.429 0-.214.082-.471.082-.728.042-.686-.289-.857.248-1.114l.083.942c.703-.3.289 0 .496-.857.62.043.579.557.455 1.114-.207.686-.166.258 0 .815.206.728.124.428-.124.771-.662-.557-.29-.771-.703-1.371l-.207.771c0-.042-.041.086-.041.086Zm8.845 2.314c0-.471.042-.385.372-.643.827-.685 3.472-3.043 4.216-3.128-.165.643-.537.686-1.116 1.157-.744.557-3.017 2.572-3.472 2.614Zm.414-1.671c.248-.557 2.604-2.315 3.224-2.486-.166.6-.868 1.072-1.447 1.457-.413.343-1.199.943-1.777 1.029Zm-10.788-2.915c.206.686.33.943.165 1.758h-.537v-2.143c.372.085.165-.257.372.386ZM74.4 11.79c-.124.728-.083.643-.827.728.083-.6.248-.643.827-.728Zm15.334-.857c.496.814.041 1.2.537 1.628l-.082-1.071c.04-.6-.166-2.057.124-2.4.413.257.413 1.328.413 1.8 0 .728.083 1.2.124 1.928-.041 1.2.33 1.115-.041 2.443.165.514.165.429.206.986 0 .643-.124.428.124.771.166-.214.124.086.207-.343.041-.128-.041-.3-.041-.428-.124-.729-.331-1.157-.124-2.229l.04-1.714c.084-.471.042-.214.166-.429.248.3 0-.342.248.343l.538 7.072c-.29.343.372.171-.372.3-.538-.343-.414-.343-.414-1.114 0-.429-.041-.686-.082-1.158l-.827.043.041 1.157-.082 1.372c-.496.343-1.282.6-1.943.6l-.496-8.829c-.124-.728-.413-2.357.455-2.228l.413 7.028c.455-.214.496 0 .455-1.757 0-.6-.083-1.371-.124-1.971-.083-1.243-.29-2.829-.042-3.986.62.171.579.814.579 2.186Zm10.044 5.314c-.496.343-1.488.814-1.984.857-.579-.386-4.96-5.314-5.001-6.3.578-.043.62.214.992.557.909.772 1.777 1.243 2.893 1.8.744.343 1.57.472 2.108 1.029.29.257.95 1.671.992 2.057Zm-25.42-4.714c.083-.557.165-.686.703-.729.082.6-.124.686-.703.729Zm39.68 1.928c.082-.643.206-.6.661-.9.785-.6 1.942-1.757 2.687-1.886-.166.686-.662.815-1.612 1.586-.455.386-1.075 1.072-1.736 1.2Zm4.712-.643c.206-.685 2.645-2.7 3.265-2.828-.207.557-.042.257-.372.6l-1.116.943c-.496.428-1.157 1.071-1.777 1.285Zm-15.996-3.643c1.116 0 2.025-.214 2.976-.085.95.171 1.984.085 2.769-.172 1.447-.428 1.157.429 2.149.729.868.257 2.398-.3 2.274.771l-4.836.086c-.538.514-.496.514-.744 1.286-1.034-.129-.372-.557-1.53-2.272-.909-.043-.909.215-1.653.3-.289 0-.661 0-.909-.085-.496-.129-.372-.215-.496-.558Zm15.499 1.63c.331-.815 1.943-1.758 2.48-2.315.372-.386.331-.472.992-.6-.123.685-.372.685-.785.985-.537.472-2.108 1.886-2.687 1.93Zm-1.901-1.715c.124-.643-.248-.129.331-.557.124-.086.331-.258.455-.343.33-.257.495-.515 1.033-.515-.083.6-.29.558-.785.9-.331.172-.579.429-1.034.515Zm-22.898.557c.372-.514 1.447-.857 2.19-1.243.538-.257 1.737-.9 2.191-.943-.454.943-3.637 2.615-4.381 2.186Zm26.287-1.072c.124-.642.951-1.371 1.654-1.457-.124.557-1.24 1.329-1.654 1.457Zm22.155 9.086c-.578-.128-2.357-1.971-2.976-2.528l-2.811-2.572c-2.19-1.843-3.678-5.7-2.934-7.886.702.172.289.129.744.729l1.859 1.843c3.886 3.6 4.837 3.814 9.879 5.1-.165.943-1.322 2.1-1.819 2.786-.703.943-.992 1.714-1.942 2.528ZM99.984 5.446c1.282 0 1.571 2.4-.04 2.228l.04-2.228Zm-3.43-1.286c.124-.6.868-1.371 1.322-1.371-.04.385-.289.6-.495.814-.331.428-.207.471-.827.557ZM25.668 35.19c.331.3.29-.6.29.47.744 0 1.198.215 1.942.086l-.082-.728c-.827.771-.62.171-.744.085-.083-1.028-.042-.257.165-.514l.661-.386c-.33-.514.166-.085-.33-.128-.042-.043-.455.043-.538.043-.289-.772-.785.214-.578-.6.124-.472.082-.472.578-.6.331.3.29-.514.29.343.744.042-.33-.515 1.074-.172.29.643-.041.857.703.986.496-.043.62-.686 2.108-1.2-.124.728-.827.943-1.447 1.243l-.041.471-.041.172.744.214c.289-.172.289-.3.537-.6.165-.129.207-.172.372-.343.29-.386.041-.086.124-.3.083-.471 0-.129.165-.514.124-.215-.041.085.166-.215 1.28.086.33.3 1.074.343l.083-.085c-.083-.858-.165-.772.29-1.158.206-.214.123-.085.33-.214.496.643.083.986.29 1.457.743-.342 1.198-1.8 1.983-1.842-.041 1.242-.992.6-1.281 1.97 1.199-.513 1.116-1.328 1.819-1.285 0 .514-.455.772-.951.943.083.6-.207.214.165.429l.703-.258.041.643c1.034 0 0-.385 1.447-.514-.083.6-.124.943-1.24 1.2-.579.129-.124-.086-.662.214 0 .386-.909 1.458-1.24 1.672-.413-.214.083 0-.247-.172-.207-.128.124 0-.29-.128l-.578.343-.579-.729-.62.343-.413.471c.33.343-.042.043.33.172.538.214.166-.043.496.257-.248.557-.165.514-.992.728l-.041-.47-.372.085c-.413.043-.785.471-1.86.6-.413.043-.661.128-1.075.171-.496.086-.744.043-.868.429l1.406.557c.041.043.041.086.082.129 0 .042.042.085.042.128.909-.171.702-.943 2.025-1.071-.33.514-.083.214-.661.514-.166.129-.207.129-.414.257h-.124l-.372.343c.372.943 1.24.429 2.067.386l.579.6c1.86-.857.95-.429 1.57-.343.124.043.414-.043.62-.043 0 .9-.33.171-.29 1.243 1.572.043 1.86-.514 3.597.129.91.342 2.025 1.328 3.224 1.157.083-1.072-.165-.3-.372-1.157.785-.772.62.128 1.57-1.33.372-.556.455-.085.869-.642.744-.943 1.653-.9 2.769-1.757.454-.3 1.198-1.286 1.653-1.072-.124.258-1.447 1.586-1.653 1.758-.703.642-1.364.857-2.356 1.242.33.386.165.043.413.515l-2.066 2.143c-.455.385-.538.214-.538.814.455.086.661-.043 1.075-.172.248.343.124.043.248.643l1.777.6c.579-.343.827-.985 1.488-.642-.041 1.028-.33-.043-.62.857 1.157.771 1.447-.643 2.521-.386-.124.728-.413.129-.661.943.661.3 1.033-.129 1.53-.386.454-.214.289-.128.495-.043-.289.515-.248-.043-.454.729.33.214 1.116.514 1.653.214.455-.257.744-.771 1.24-.9-.083.814-.579.3-.661 1.243 1.033.043 1.405-1.029 2.273-1.243-.165.9-.744.6-.827 1.543 1.075 0 .91-.429 1.53-.686-.083.557-.207.215-.124.943 1.653.086 1.115-1.071 2.149-1.243l-.124 1.457c1.116-.085.744-.728 1.86-.857l-.372.986c.868 0 .29-.343 1.116-.471.165.47-.083.257.248.685 1.116-.386.661-.343 1.364.043.91-.3.29-.428 1.653-.471.248-.429.372-.729.91-.857-.166.857-.58.557-.662 1.414.992.086.95-.514 1.57-.343.704.214.373 1.371 3.307-1.371.538-.472-.041-.343.744-.43-.082 1.072-.992 1.458-.95 2.272.826.043.744-.771 2.19-.857-.124.772-.206.257-.248 1.072.827 0 .62-.129 1.364-1.2 1.984-2.786.538-2.057 1.819-3.215.62-.557 1.033-.557 1.819-.642-.083.942-1.447 1.028-2.067 1.928-.29.429-1.033 2.572-1.075 3.172.62.128.538-.043 1.323-1.2.537-.858.703-1.372 1.075-1.543.165.3.082.3.082.9.579-.257.579-.557 1.075-1.286.413-.686.537-.729 1.447-.771.909-1.543 1.115-1.158 1.24-1.843-1.075 0-1.364 1.242-2.15 1.328.083-.557.95-.814 1.612-1.585-.124-.43-.124-.3-.207-.686.331-.6.786-.772.91-1.629-.868.257-1.736 1.586-2.645 1.757.124-.728.992-1.114 1.446-1.714l-.124-.686c.413-.514 1.323-1.543 1.406-2.228-.331.128-.703.685-1.158 1.157-.826.857-2.686 3.386-3.43 3.686.082-.643.826-1.586 1.198-2.186.579-.943 1.24-1.629 1.116-2.143-.496 0-.785.686-1.157 1.029 0 0-.041-.13-.041-.086 0 0 .04-.257-.538-.643l.29-.9.04-.686c-.33.129-.164-.043-.33.257-.041.043-.124.343-.165.429-.207.557-.744 1.457-.868 2.014.496.386.207 0 .455.472l-.91 1.028c.29 1.543-.165 1.115-1.942 2.486-1.199.9-.372 2.1-1.86 2.143.165-1.243 2.232-2.271 2.149-3.214-.703.085-1.323 1.028-1.736 1.585-1.033 1.415-.992 1.586-2.025 1.458.041-1.115 1.446-1.586 2.025-2.058.413-.343 1.612-1.585 1.695-2.314-.992.129-.496 1.886-3.844.514-1.075 1.115-.538.215-1.53.686-.289.172-.123.214-.537.257.041-.428.248-.386.414-1.114-.91.257-.58.557-1.365.9l-.206-.557c-.455.214-1.075 1.328-1.323 1.757-.455.814-.29 1.114-.992 1.843l-.744-.043c-.124-.514.29-.857.91-1.714.66-.9.991-1.072 1.074-1.715-1.157-.042-1.199.257-1.943.257l.042-.985c-.827.171-2.025 1.414-2.397 2.1-.538.9-.744 2.143-2.191 1.928-.413-1.585 1.86-1.543 2.232-3.043.29-1.285.95-2.357 1.612-3.642.62.085.248-.043.702.428.62-.128 1.24-.814 1.571-1.2.95-1.114.992-.6 1.406-1.2.289-.386 1.074-3.172 1.735-3.429.083.6-.123.643-.289 1.115l-1.157 3.343c1.033-.086.454-.343 1.446 0 .538.214.744-.086 1.323-.172l.207.6c.62-.257.248-.343.95-.428-.124 1.028-1.984 1.5-2.025 2.957.785-.172 1.777-1.972 2.521-2.486.124-.086.455-.214.579-.257 1.488-.343-.041 1.714-.124 2.314 1.364-.171.62-2.186 2.48-2.143-.083.858-.455.686-.703 1.458.455-.215.62-.515 1.075-.772 1.199-.729 1.116.343 1.612-.986l.413-1.114c.083-.171.042-.129.166-.257 0-.043.082-.043.082-.129 0-.042.042-.042.083-.085 0-.729 1.901-4.629 2.397-5.015.083.086.33-.043 0 .686-.124.214-.248.386-.372.643-.165.428-.413.985-.454 1.5l.62-.814c.454-.772.785-2.058 1.57-2.615.083.172.33-.043-.041.815-.124.3-.207.514-.33.814-.166.3-.497.771-.538 1.114-.083.857-.083.129.124.429.62-.429 1.198-1.8 1.736-2.4.124.214.165-.3.124.257 0 .514 0 .085-.083.3-.082.171-.248.428-.33.643-.207.428-.414.942-.455 1.286.537-.13.62-.73.868-1.115.372-.728.041-.257.496-.471-.083 1.2-.868 2.314-.62 2.871.785-.514.827-2.1 1.777-2.228l-.413 1.628c.62.043.62-.171.95-.514.58-.557 1.902-2.057 2.563-2.1-.124 2.228-4.133 3.9-4.34 6.214.786-.128.496-1.028 2.397-2.785l2.15-1.715c.33-.257.413-.428.744-.643.413.3.33.3.537.772.703-.343 1.075-.943 1.819-1.157-.166.385-.62.814-.992 1.114-.538.557-.744.428-1.654.428-.206.515-.289 1.072-.62 1.415-.496.557-.909.428-.992 1.114h.29c.33.129.165.086.33.172-.124.6-.206.3-.248.985.331.343.331.172.703.429-.124.9-.992.857-.207 2.057.662-.043.91-.514 1.654-.729-.207.515-.372.6-.827.986-.33.3-.703.386-.827.857.786.043 2.77-1.928 3.596-2.528.62-.515 3.266-2.315 3.39-2.872l-2.191 1.243c.165-.471 2.976-3.129 3.472-3.428l.537.257c.29-.258.538-.643.868-.729.496-.129.827.214.248.686-.33.257-.33.214-.661.6-.372.428-.579.985-.95 1.414-.786 1.029-1.654 1.2-2.729 1.929-.62.428-5.084 3.728-5.332 4.2.58.3.496-.3 1.282-.215-.248.686-.661.386-.744 1.2 1.157-.128 3.761-2.957 4.753-3.814.744-.6 1.695-1.286 2.397-1.843.91-.728 1.24-1.971 2.274-2.014-.042.386-.124.3-.331.6-.165.386-.083.557-.124 1.029-.827.642-1.157 1.285-2.439 1.928-1.446.772-1.612 1.072-2.604 1.972-.95.814-1.322 1.2-2.48 1.928-.537.343-.785.515-1.074 1.157-.372.9-.827.6-1.034 1.286.538.214.91-.214 1.364-.257.827-.086.29.471 1.364 0 .414-.171 1.034-.429 1.447-.429 1.24-.043.579.215 1.653-.3 1.199.429.744.343 1.612-.257l.538.386c.413-.343.33-.772.785-1.029.703-.3.537.429.62.858.537 0 .413 0 .62-.386l.827-.043c.206-.729.04-.729.702-1.114 0 .042.083 0 .083.085.041.215.537.515.744.558-.083-1.63.703-1.458 1.364-.343.827.042.91-.343 1.405-.772.744-.6.744-.557 1.57-.214.538-.214.538-.429 1.076-.557l.661.514c.537-.257.206-.214.702-.471l.662.3.413-.386c.661.085.207.171.868.085.744-.042.248.043.909.258.62-.386.166-.343 1.116-.3l.083-.686c.744.3.703.814 1.488.814l.248-.857c.62.172.207.129.703.386.909-.857.992.043 1.984.257-.042-.9-.455-.729-.207-1.329.744.343.62.986 1.24 1.286.496-.385.207-.557.661-.986.868.215.29.686 1.075.815l-.331-1.415c.703.172.703.429 1.034.858.372.471.413.771.95.9-.041-.772-.33-.6-.496-1.5 1.033.257 1.24 1.2 2.108 1.328l-.372-1.285c.538.128.414.042.703.514.289.428.206.471.661.685l-.33-1.457c.95.172.413.772 1.24 1.072.206-.515-.703-1.543-.745-2.315.951.429 1.489 2.272 2.356 2.615-.041-.986-.909-1.543-1.033-2.443.537.214.744.6 1.116.986.413.428.662.942 1.199 1.114-.124-.943-1.158-2.229-.992-2.7.785.386 1.198 2.314 1.901 2.614.248-.557-.372-.9-.372-1.757.744.086.289.343 1.157.643-.082-.986-.372-.986-.413-2.014.496.257.537.514.827.985.248.429.372.729.826.9-.041-.857-.868-1.543-.992-2.571.579.171.744.557 1.075 1.114.248.343.537.943.992 1.029l-.165-.858c.62.13.661.3.992.6.785.043.454-.042 1.116.172l.206-.429c.496.386 1.778 1.372 1.943 1.929.083 1.243-.207 1.157-.909 1.586l.124 1.071c-.662-.043-.372-.128-.992-.3.124.9.578.9.165 1.757-.785-.128-.455-.685-1.033-.943-.166 1.415 1.612 1.672-1.199 3.258-.785.386-1.736.3-2.397.643l.537.257c.248 0 .579.043.827.043.785 0 .868-.086 1.364-.343.537.085.413.171.95.214.331.043.91 0 1.24-.043-.289-.771-.496-.257-.702-.986 1.157 0 1.24.943 2.356.472-.124-.986-1.034-.514-1.24-1.414.909.171 1.033.942 1.984 1.028-.248-.6-.538-.471-.703-1.114.992.086 1.199.686 2.232.771-.124-.386.041-.214-.372-.514-.455-.343-1.24-.686-1.529-1.2.413-.214 1.694.771 2.48.9l-.827-.643c-.331-.214-.579-.386-.827-.643.91 0 1.034.472 1.943.557-.413-.857-2.687-1.928-2.893-2.7.496 0 1.901 1.029 2.314 1.372 1.53 1.071 6.035 3.943 7.646 4.028-.041-.942-.825-1.028-2.066-1.671-.538-.257-1.942-.729-2.025-1.414.537 0 2.521 1.285 2.976 1.585.579.343 2.397 1.586 3.1 1.586-.166-.814-1.199-1.071-1.901-1.457a17.759 17.759 0 0 1-2.109-1.329c-2.107-1.5-8.349-5.785-9.547-7.671-.248-.386-.331-.686-.579-1.114-.248-.472-.496-.6-.537-1.243.413-.3.909-.343 1.24-.686-.207-.9-1.24-1.543-1.447-2.4.248-.172.909-.3 1.281-.557.042-.943-.992-2.657-1.405-3.472-.331-.643-1.529-2.914-1.571-3.429l.827-.556c0-1.072-2.645-4.8-2.521-5.658.248-.428.661-.686 1.033-.9-.124-1.328-1.323-.9-.868-2.657.372-1.629.537-1.286.537-3.171-.041-.986.62-6.172.868-6.73.496.086 1.406 1.115 1.902 1.5.661.515 1.24 1.072 1.942 1.63 3.307 2.742 6.242 5.657 9.3 8.614.537.514.868 1.8.951 2.7-.455-.3-.455-.557-.951-.686.042.429.455 1.414.827 1.714.413-.085.619-.342.868-.6 0-.857-.579-1.028-.538-1.885.827.257.91 1.114 1.405 1.457.455.3.497.214.911.643.784.814 2.025.986 2.685 1.886.414.557.62 1.585 1.241 1.628l-.289-1.243c1.033.129.537.3 1.033.9.951 1.115 3.513.386 3.72 2.143-.538-.086-.497-.128-1.116-.171-.414-.429-.29-.558-.952-.558v1.286c-.578-.257-.412-.685-.99-.9.041.943.619 1.243.701 2.143-.744-.343-.909-1.5-1.569-1.671.165 1.114 1.777 3.985 2.396 4.757.414-.129.165-.214.538-.429.538.343.33.772 1.074.429.454-.429-.33-1.457-.579-1.929-.165-.3-.289-.128-.082-.557.826.772 1.033 2.357 2.191 2.872 1.033.428.827-.129 1.529.985.248.429.826 1.072.826 1.629-.536-.214-.454-.6-1.074-.771.248 1.071 1.116.985.992 1.971-.827.129-.91-.214-1.199-.686-.95.129-.372.172-1.199-.171-.867-.386-.908-.086-1.405.128-.661-.514-2.356-.943-3.099-.214.165.3 1.942 1.929 2.19 2.186.454.386 2.025 1.8 2.066 2.357-.123-.043-.95-.771-1.198-.986l-2.48-2.185c-.537-.429-.827-.986-1.446-1.115.124.858.371.343.413 1.115-.786 0-.579-.043-1.199.171-.62-.257-.455-.471-1.115-.6.247.729 1.157.857 1.446 1.629-1.116-.258-2.811-2.572-3.555-2.186.083.171 2.398 2.1 2.645 2.314.951.772 1.736 1.5 2.893 2.1l.662-.171c1.074.557.951.943 2.604.943 1.198-.043 2.439.043 3.679.043l.206-.472c.703.043 1.157.343 1.777.514.662.215.662-.257 1.819-.042 3.555.814 2.231-.129 3.845.257.949.214.949.428 1.57.728.661.343 1.777-.514 3.843.215.911.342.662.771 1.447.9l.207-.6c1.199.214 2.356 1.114 3.389 1.543-.247.642 0 0-.289.514-.166.343-.082.171-.166.514-.081.514-.248.814-.206 1.2.785.129.744-1.029.868-1.628.082-.3.082-.172.125-.343l6.281.685c.538 0 .497-.085.579.386l-3.678 1.157c-5.704 1.972-3.431.557-5.002.429-.083.771.082.214.249.857-1.117.214-1.324-1.243-2.274-1.243-.083.986 1.282 1.2 1.653 2.014-1.86 0-1.447-1.5-2.81-1.371 0 1.071.992.428 1.033 1.457-.744.043-.909-.428-1.695-.3l-1.406.214-.206.043-.206.129c.247.428.082.214.62.471.289.172.454.3.784.472l.249-.515c.579.129 2.108.9 2.769 1.158.703.257 2.481 1.2 2.893.942-.371-.728-.536.129-.66-1.028 1.074.043 2.355 1.2 3.223 1.114-.165-.643-.827-.643-1.157-1.371.951.128 2.397 1.8 3.182 1.543-.371-1.115-3.885-2.23-4.132-3.343 1.115.128 4.091 3 5.868 3.257-.206-.686-1.694-1.372-2.314-1.757-.538-.343-2.108-1.115-2.191-1.757 1.323.385 5.208 3.685 6.448 3.557-.042-.557-.537-.643-.951-.857-1.074-.558-3.058-1.372-3.513-2.358 1.818.3 4.422 2.872 6.117 2.958-.827-.729-2.107-1.372-3.182-1.972-.62-.3-1.158-.643-1.695-.943-.537-.343-1.24-.6-1.447-1.114.786-.043 3.596 1.757 4.258 2.143l3.141 1.714c1.323.686.993.343 1.199.214-.785-1.114-5.126-2.228-5.332-3.214.868 0 3.017 1.372 3.761 1.843.786.429 1.033.643 1.819.943.579.214 1.694.514 2.315.128-.125-.385-2.522-1.414-2.936-1.628l-2.231-1.243c-.414-.3-.455-.214-.62-.643 1.86.086 5.828 3.514 7.688 3.6-.206-.6-.579-.557-1.571-1.029-1.282-.685-4.34-1.885-4.959-2.828 1.198.086 7.439 3.9 8.1 3.943.372 0 1.488-.429 2.026-.472 1.281 0 3.017.643 4.215.686l.249-.386c.951 0 1.735.686 2.314.3-.248-.428-1.198-.6-1.736-.728-3.266-.9-7.77-2.443-10.458-4.5-.413-.343-1.114-.772-1.198-1.286-.537-.386-.827-.429-1.652-.3-.786.086-.952.129-1.779.043-4.918-.471-7.108.814-11.945-1.972-.785-.428-1.777-.471-2.686-.728-3.596-.943-3.306-.129-5.621-1.329-1.405-.728-3.431-1.457-4.918-2.1-1.117-.471-1.571-.471-2.027-1.543-.371-.9-.744-1.457-1.239-2.228-3.348-5.015-2.687-7.329-5.208-8.958-.083-2.485.661-3.6 1.364-5.314.454-1.157.454-1.286 1.695-1.629.909-.257 1.86-.085 2.479.6.124.772-.124 1.243-.371 1.886-.083.257-.207.6-.332.772-.081.214-.247.342-.371.6-.248.557-.703 3-.621 3.643.29.428 1.447 1.371 2.026 1.8.827.642 1.034 1.543 2.397 1.414.208-.557.414-1.671.497-2.229l.123-1.628-.33.386c-.125.214 0 .085-.165.257-.249-.6 0-.686.083-1.243.041-.3-.043-.386 0-.6.165-.815.123-.343.33-.515.414.472.248.515.248 1.2l.579-.514c.165.986-.124.857-.166 1.543 0 .471.124.857-.041 1.243-.125.343-.041.171-.29.343l-.124 1.757c.208.257.289.471.786.343.165-.643.124-1.415.247-2.014.332-1.63.124-1.372.538-1.5.372.814-.371 3.685-.124 4.242.578-.214.703-2.485.868-3.128.042-.257.165-.472.207-.729.082-.343.041-.514.124-.857.414-1.371.206-1.2.537-1.329.248.472-1.158 6.086-.785 6.772.413-.171.619-2.314.703-2.872.082-.471.206-.942.33-1.457.33-1.585-.165-1.028.454-1.457.166.257.125-.257.166.472l-.166 1.157c-.165 1.114-.743 3.943-.619 4.714.662.043.413-.471.538-1.157.081-.429.206-.814.289-1.329.165-1.328.289-2.528.909-2.443.165 1.115-.744 3.858-.662 5.23h.662l.083.813c.495-.085.412-.171.536-.771.165-.729.332-2.786.992-3.172.084.129.084.043.125.343l-.538 3.386c-.041.686-.041.257.124.471.786-.514.249-3.17 1.282-3.085.083 1.028-.662 2.743-.373 3.643.745-.172.332-.257.91-2.1 1.199-3.643-2.646-4.543-4.464-9.258-.248-.685-1.405-4.071-.496-4.414l.578.043-.33-.343a.426.426 0 0 0-.206-.086c-1.447.386-1.116.643-2.893.343-1.241-.214-1.985.257-2.812.6-.908.386-1.322-.514-2.728-.386-.827.043-1.942.643-2.934.686-.331-.557-.868-1.586-1.157-1.971-1.695-.258-.992.171-2.108-.943-.496-.514-1.612-.643-2.398-.814-4.381-.986-6.571-2.958-9.671-6.086-.62-.6-.827-1.243-1.447-1.715-2.315-.214-4.381.343-6.655.129l-1.736-1.543c-.248.043-1.901 1.071-2.976 1.543-1.074.429-2.108.814-3.223 1.243-2.191.9-4.547 1.628-6.035 2.914l.083 1.072c-1.075.214-6.779-3.215-7.978-3.986-1.24-.729-2.48-1.457-3.802-2.229-.537-.343-1.53-.686-2.026-1.028-.95-.643-.124-.9-1.157-1.843-1.405-.557-3.885 4.157-4.174 4.457-1.447 1.329-1.984 1.029-3.266 1.971-1.364 1.029-2.397 2.015-3.802 3.086-2.48 1.886-1.406 2.314-2.935 4.157-.827-.257-4.63-4.671-5.29-4.928-1.075-.129-2.852.857-3.927 1.157-1.033.257-2.356 1.114-3.348 1.714-2.025 1.243-4.381 2.443-6.49 3.686l-16.326 9.3c-.496.386-.868.557-1.488.943-.537.386-1.033.729-1.612 1.029-6.158 3.385-5.497 2.614-11.2 4.114-.869.214-1.034.686-1.53.943l-6.779.986c-.992.042-1.364.042-2.314.171-.662.129-1.53.257-2.232.386-.042.557.413.685.744 1.028.744.086.413-.043 1.075.215.33.085.62-.043 1.115-.086.124.214.042 0 .124.343.083.214 0 .128.166.385.868-.085.496-.3 1.322.086Z" clip-rule="evenodd"/><path fill-rule="evenodd" d="M31.041 36.004c0-.428.124-.643.537-.686.042.515-.082.686-.537.686Zm1.902-2.743.62-.3c-.166.815-.745 1.543-1.571 1.8.083-.557.124-.557.413-.857.248-.257.248-.257.455-.557-.744-.043.207-.257-1.075-.343-.207.3-.041 0-.165.214-.165.386-.083.043-.165.515.372-.172.248-.13.66-.215-.247.557-.578.686-.909 1.243-.33.514-.371.943-1.033 1.029 0-.472.042-.429.248-.815l-.744-.214.042-.171c-.248.171-.496.428-.786.643-.454.428-.165.428-.826.471l-.083-.6c1.075-.857.29-.257 1.075-1.029-.744-.128-.414-.342-.703-.985-1.405-.343-.33.214-1.075.171 0-.857.042-.043-.289-.343v.643l-.579-.043c-.206.815.29-.171.579.6.083 0 .496-.085.537-.043.496.043 0-.385.33.129l.58-.3c-.083.471-.58.986-1.034 1.2-.29-.3-.29.471-.206-.514-.207.257-.248-.515-.166.514.124.086-.082.686.744-.086l.083.729c-.744.128-1.199-.086-1.943-.086 0-1.071.042-.171-.289-.471l.041.728 1.612.129.248.557c.579-.086.33-.214 1.075-.343-.207.686-.248.386-.372.943l1.157-.343v.815c.62-.13 1.984-1.03 2.274-.858l-.248.343c-.042.043-.042.086-.083.129 0 .043-.041.086-.041.128l.372-.085.04.471c.828-.214.745-.171.993-.729-.33-.3.041-.042-.496-.257-.372-.128 0 .172-.33-.171l.412-.471h-.33c-.041-.643.33-.858.91-1.03.206-1.456.495-.9.95-1.8-.207-.47.206-.813-.29-1.456-.206.128-.123 0-.33.214-.455.386-.372.3-.29 1.157ZM132.264 28.761c.744.815 1.695.643 2.356 1.158-.083.042.083.214-.578.128-.248-.043-.414-.171-.579-.257-.413-.129-.951-.3-1.281-.257.289.557 2.562 1.071 3.306 1.243 1.116.3 2.687 1.114 3.844 1.114-.207-.514.206-.343-.868-.729-.083 0-.951-.257-.951-.257-.413-.257.083-.385-.454-.728l-4.134-1.586c-.909-.171-.537.086-.661.171ZM142.845 34.76l-.785-.214c.041.815.62.857 1.24 1.243.868.514 1.034.472 2.191.472-.207-.643-.166-.343-1.116-1.029-.373-.3-.744-.643-1.24-.9l-.29.428ZM128.006 16.332c.124-1.07-.207-3.171-.248-4.028-.041-.6.124-.943-.579-.772-.041.6.29 2.786.331 3.858.041.771-.124.942.496.942ZM157.809 42.69c-.124-.6-.455-.514-1.447-1.157-.538-.3-1.24-.815-1.819-.9.042.814 3.06 2.057 3.266 2.057ZM125.734 14.06c.248-.514.166-1.67.124-2.27-.868.17-.785 2.056-.124 2.27ZM148.466 43.032c-.123-.514.083-.3-.455-.6-.702-.343-1.487-.9-2.066-.9.249.557-.124.172.538.515.744.428 1.322.942 1.983.985ZM135.406 37.118c-.124-.728-.041-.214-.91-1.114-.371-.386-.495-.686-1.074-.729.041.515 1.405 1.758 1.984 1.843ZM139.622 14.96c.289-.428.413-1.285.33-1.885-.289.129-.495.386-.579.815-.289 1.2.208 1.07.249 1.07ZM127.305 20.832c-.124-.472-.951-1.929-1.53-2.058.042.557.91 1.886 1.53 2.058ZM142.185 15.346c.372-.214.414-1.2.414-1.628-.703.214-.827.943-.414 1.628Z" clip-rule="evenodd"/><path d="M55.51 61.118c0 3-.992 5.358-3.018 7.072-1.984 1.714-4.835 2.571-8.431 2.571-3.638 0-6.49-.857-8.474-2.571-2.025-1.714-3.017-4.072-3.017-7.072 0-2.957.992-5.314 3.017-7.028 2.026-1.715 4.836-2.572 8.473-2.572 3.638 0 6.448.857 8.474 2.572 1.984 1.714 2.976 4.071 2.976 7.028Zm-8.267 4.415a4.24 4.24 0 0 0 .992-1.672c.207-.643.33-1.543.33-2.7 0-1.028-.123-1.928-.33-2.657-.413-1.243-1.116-2.229-2.397-2.657a5.949 5.949 0 0 0-1.778-.257c-.66 0-1.24.085-1.735.214a4.068 4.068 0 0 0-1.447.9c-.413.428-.744.986-.992 1.714-.248.729-.372 1.672-.372 2.743 0 1.457.248 3.215 1.24 4.329.91.9 2.108 1.2 3.348 1.2.62 0 1.199-.086 1.736-.257a2.892 2.892 0 0 0 1.405-.9Zm33.48-8.186V70.16h-6.696v-9c0-.9-.042-1.628-.083-2.271-.083-1.029-.413-1.929-1.447-2.358-.454-.17-1.074-.257-1.9-.257-.662 0-1.324.129-1.944.343-.62.257-1.157.472-1.653.729V70.16h-6.737V52.075H67v2.015c1.157-.772 2.232-1.415 3.307-1.843 1.033-.429 2.232-.643 3.513-.643 2.439 0 4.795.857 6.117 3.129 1.323-.986 2.646-1.758 3.927-2.315a8.98 8.98 0 0 1 3.72-.814c2.232 0 3.968.557 5.125 1.757 1.199 1.157 1.777 2.829 1.777 5.057v11.743H87.75v-9c0-.9 0-1.671-.041-2.271a3.749 3.749 0 0 0-.413-1.5c-.207-.386-.538-.686-1.034-.858-.455-.17-1.075-.257-1.901-.257-.579 0-1.116.086-1.653.258-.538.171-1.2.428-1.984.814Zm40.588 4.886h-15.334c.082 1.414.744 2.485 1.86 3.257 1.157.771 2.852 1.114 5.084 1.114 1.405 0 2.81-.214 4.133-.643 1.323-.471 2.356-.943 3.141-1.457h.744v4.672c-1.529.514-2.934.9-4.298 1.157a27.771 27.771 0 0 1-4.423.343c-4.216 0-7.44-.815-9.672-2.443-2.232-1.629-3.348-3.986-3.348-6.986 0-3 1.034-5.357 3.142-7.115 2.149-1.714 5.042-2.614 8.721-2.614 3.43 0 5.993.729 7.688 2.229 1.736 1.5 2.562 3.643 2.562 6.428v2.058Zm-6.654-3.429c-.042-1.2-.414-2.1-1.075-2.743-.62-.6-1.653-.9-3.059-.9-1.281 0-2.356.3-3.182.857-.827.6-1.282 1.5-1.364 2.786h8.68Zm32.405 11.357h-6.738v-8.957c0-.729-.041-1.457-.124-2.186-.083-.728-.248-1.243-.454-1.586a2.308 2.308 0 0 0-1.076-.9c-.495-.17-1.157-.257-1.983-.257-1.405 0-2.687.472-3.927 1.072V70.16h-6.696V52.075h6.696v2.015a17.988 17.988 0 0 1 3.431-1.843c1.116-.429 2.314-.643 3.679-.643 2.231 0 4.009.557 5.29 1.671 1.281 1.157 1.902 2.872 1.902 5.143v11.743Zm19.592-.128c-.703.171-1.489.3-2.315.385-.786.086-1.778.13-2.935.13-2.645 0-4.589-.472-5.87-1.372-1.28-.9-1.901-2.486-1.901-4.715v-8.443h-2.728v-3.943h2.728v-2.057l6.738-1.286v3.343h6.283v3.943h-6.283v8.1c0 .472.124.9.289 1.286.206.343.495.643.951.9.412.215 1.074.3 1.901.3.371 0 .827-.043 1.406-.171.536-.129.95-.258 1.198-.386h.538v3.986Zm24.84.128h-6.738V68.19c-1.239.814-2.355 1.414-3.388 1.843-1.033.428-2.233.643-3.679.643-2.315 0-4.092-.558-5.332-1.715-1.239-1.157-1.86-2.871-1.86-5.1V52.075h6.696v9c0 .9.041 1.672.124 2.272.082.6.206 1.114.455 1.5.248.386.619.686 1.074.857.497.172 1.157.3 2.025.3.579 0 1.2-.128 1.901-.3a6.713 6.713 0 0 0 1.984-.814V52.075h6.738v18.086Zm26.784-12.814V70.16h-6.738v-9c0-.9 0-1.628-.082-2.271-.083-1.029-.372-1.929-1.405-2.358-.455-.17-1.117-.257-1.901-.257a5.99 5.99 0 0 0-1.944.343c-.619.257-1.198.472-1.695.729V70.16h-6.695V52.075h6.695v2.015c1.158-.772 2.274-1.415 3.307-1.843 1.075-.429 2.233-.643 3.514-.643 2.48 0 4.835.857 6.158 3.129 1.323-.986 2.605-1.758 3.885-2.315 1.281-.557 2.522-.814 3.72-.814 2.274 0 3.969.557 5.167 1.757 1.157 1.157 1.736 2.829 1.736 5.057v11.743h-6.695v-9c0-.9-.043-1.671-.084-2.271-.041-.6-.165-1.115-.372-1.5a2.078 2.078 0 0 0-1.033-.858c-.455-.17-1.115-.257-1.942-.257a5.54 5.54 0 0 0-1.654.258c-.537.171-1.199.428-1.942.814ZM28.023 70.633h-6.902V51.647l-4.96 12.343H11.45L6.531 51.647v18.986H0v-28.33h8.019l5.993 14.23 5.952-14.23h8.06v28.33Z"/><path fill-rule="evenodd" d="m.62 84.39 55.137.044v-1.886H.619v1.843Z" clip-rule="evenodd"/><path d="M60.057 87.69v-11.1h3.596c.868 0 1.529.13 1.942.3.413.215.744.515.992.9.248.429.372.815.372 1.286 0 .557-.207 1.072-.579 1.586-.371.514-1.033.9-1.983 1.243.744.171 1.322.428 1.735.728.414.258.703.6.91 1.029A2.694 2.694 0 0 1 67 86.319c-.249.429-.58.772-1.034.986-.413.257-1.075.386-1.984.386h-3.926Zm2.149-6.47h.455c.66 0 1.198-.172 1.529-.515.33-.343.496-.772.496-1.286 0-.257-.042-.471-.165-.686-.083-.214-.249-.342-.496-.471-.248-.086-.744-.129-1.447-.129h-.372v3.086Zm0 4.885h.413c.785 0 1.282-.043 1.57-.172.29-.085.497-.257.662-.514.124-.214.207-.471.207-.771 0-.557-.248-.986-.703-1.372-.454-.385-1.074-.6-1.777-.6h-.372v3.429Zm13.557 1.286c-.992.3-1.943.471-2.852.471-.868 0-1.612-.171-2.232-.514-.661-.3-1.157-.857-1.488-1.543-.372-.686-.537-1.457-.537-2.314 0-.729.165-1.458.455-2.1.289-.643.702-1.158 1.28-1.543.58-.386 1.24-.557 2.067-.557 1.034 0 1.82.342 2.44.985.578.686.867 1.929.867 3.729h-4.836c.041.557.165.986.33 1.329.207.3.456.557.786.728.33.214.785.3 1.323.3.702 0 1.53-.171 2.397-.514v1.543Zm-4.877-4.629h2.81c0-.771-.124-1.286-.372-1.629-.248-.3-.537-.471-.909-.471-.413 0-.785.171-1.033.514-.248.386-.455.9-.496 1.586Zm6.902 4.629v-1.586c1.075.428 1.984.686 2.728.686.372 0 .703-.086.951-.257.248-.215.372-.429.372-.686 0-.215-.124-.429-.29-.6a2.983 2.983 0 0 0-.826-.429l-.703-.3c-.744-.343-1.281-.643-1.653-1.028-.372-.386-.537-.858-.537-1.457 0-.686.289-1.286.826-1.758.538-.471 1.323-.685 2.439-.685.661 0 1.405.085 2.314.3v1.542c-.868-.3-1.57-.471-2.149-.471-.413 0-.744.086-.992.214-.206.172-.33.386-.33.643 0 .172.082.343.206.514.166.129.414.3.785.43l.62.256c1.034.386 1.695.772 1.984 1.157.331.386.497.857.497 1.372 0 .685-.29 1.286-.868 1.843-.58.514-1.406.771-2.522.771-.91 0-1.86-.171-2.852-.471Zm12.648.214c-.496.171-.91.257-1.199.257-.702 0-1.24-.128-1.611-.3a2.425 2.425 0 0 1-.869-.857c-.206-.343-.289-.857-.289-1.543v-4.329h-.91v-1.371h.91v-1.371l2.15-.258v1.629h1.694v1.371h-1.694v4.03c0 .599.082.985.289 1.2.206.213.496.299.868.299.206 0 .413 0 .661-.086v1.329Zm10.003.257c-.827 0-1.571-.171-2.191-.514-.62-.343-1.075-.857-1.405-1.543a5.019 5.019 0 0 1-.496-2.229c0-.814.165-1.585.496-2.228.33-.686.785-1.2 1.405-1.543.62-.343 1.323-.514 2.191-.514.868 0 1.612.171 2.232.514.62.343 1.074.857 1.405 1.543.289.643.454 1.414.454 2.228 0 .815-.165 1.543-.454 2.229-.331.686-.785 1.2-1.405 1.543-.62.343-1.364.514-2.232.514Zm0-1.371c.62 0 1.074-.3 1.364-.858.33-.514.454-1.242.454-2.057 0-.857-.124-1.543-.454-2.1-.29-.557-.744-.814-1.364-.814-.58 0-1.034.257-1.323.814-.33.557-.496 1.243-.496 2.1 0 .815.165 1.543.496 2.057.29.558.744.858 1.323.858Zm6.282 1.2v-6.858h-1.074v-1.371h1.074v-.6c0-1.114.248-1.971.744-2.443.537-.471 1.24-.729 2.191-.729.62 0 1.281.086 1.942.3v1.5c-.62-.3-1.157-.428-1.612-.428a1.34 1.34 0 0 0-.62.129c-.124.085-.248.257-.372.471-.082.214-.124.6-.124 1.114v.686h1.984v1.371h-1.984v6.858h-2.149Zm10.581 0v-11.1h2.935l2.563 7.8 2.645-7.8h2.604v11.1h-2.067v-8.358l-2.604 7.586h-1.777l-2.563-7.714v8.486h-1.736Zm13.433 0v-8.229h2.108v8.229h-2.108Zm0-9.6v-1.843h2.108v1.843h-2.108Zm4.795 9.6V75.86h2.15v11.83h-2.15Zm4.794 0v-8.229h2.15v8.229h-2.15Zm0-9.6v-1.843h2.15v1.843h-2.15Zm8.887 9.514c-.496.171-.91.257-1.199.257-.702 0-1.239-.128-1.612-.3-.413-.214-.703-.514-.868-.857-.206-.343-.289-.857-.289-1.543v-4.329h-.909v-1.371h.909v-1.371l2.108-.258v1.629h1.736v1.371h-1.736v4.03c0 .599.124.985.331 1.2.207.213.496.299.867.299.208 0 .414 0 .662-.086v1.329Zm5.787-.814c-.331.3-.579.514-.785.643a1.821 1.821 0 0 1-.745.3 2.09 2.09 0 0 1-.744.128c-.703 0-1.281-.214-1.736-.686a2.453 2.453 0 0 1-.619-1.671c0-.814.33-1.5.949-2.014.662-.558 1.695-.815 3.101-.815h.579v-.771c0-.472-.124-.814-.414-.986-.248-.171-.619-.257-1.033-.257-.786 0-1.654.214-2.48.728v-1.542a7.707 7.707 0 0 1 2.894-.557c.578 0 1.116.085 1.57.257.455.128.826.385 1.074.728.29.343.455.857.455 1.586v3.6c0 .429.042.729.165.814.167.086.289.172.414.172.083 0 .165-.043.289-.043l.042 1.243c-.456.128-.868.214-1.199.214-.414 0-.744-.086-1.034-.214-.289-.129-.495-.429-.66-.857h-.083Zm0-1.2v-1.672h-.496c-.703 0-1.24.129-1.57.386-.332.257-.497.6-.497.986 0 .3.083.557.289.771.208.172.455.3.744.3.248 0 .497-.086.745-.214.247-.129.536-.3.785-.557Zm4.794 2.1v-8.229h2.149v1.543c.249-.514.579-.943 1.033-1.243.455-.343.952-.471 1.489-.471.124 0 .247 0 .372.042v1.972a2.043 2.043 0 0 0-.828-.172 2.17 2.17 0 0 0-1.157.343c-.33.215-.66.557-.909.986v5.229h-2.149Zm6.737 2.914 1.82-2.957-2.936-8.186h2.274l1.984 5.486 2.315-5.486h1.611l-4.877 11.143h-2.191Z"/><path fill-rule="evenodd" d="m176.695 84.39 55.138.044v-1.886h-55.138v1.843Z" clip-rule="evenodd"/></g></svg>