<svg xmlns="http://www.w3.org/2000/svg" width="92" height="46" fill="none"><path fill="#40AA54" stroke="#20552A" stroke-linejoin="round" stroke-width="1.032" d="M46 2.387c-7.068 0-12.795 5.73-12.795 12.798 0 5.485 3.453 10.162 8.303 11.983l2.946-7.864A4.4 4.4 0 0 1 46 10.786a4.401 4.401 0 0 1 1.545 8.519l2.95 7.863c4.85-1.819 8.302-6.497 8.302-11.983C58.797 8.118 53.067 2.39 46 2.39v-.003Z"/><path fill="#000" d="M12.145 36.276c0 .985-.804 1.807-1.808 1.807a1.8 1.8 0 0 1-1.808-1.807v-2.61c0-.984.804-1.809 1.808-1.809s1.808.825 1.808 1.808v2.611Zm1.808 0v-2.61c0-2.03-1.426-3.416-3.616-3.416-2.19 0-3.616 1.365-3.616 3.412v2.61c0 2.05 1.426 3.415 3.616 3.415 2.19 0 3.616-1.364 3.616-3.41Zm6.426-.202a1.8 1.8 0 0 1-1.807 1.808 1.818 1.818 0 0 1-1.808-1.808v-2.208c0-.984.803-1.81 1.808-1.81 1.024 0 1.808.825 1.808 1.81l-.001 2.208Zm1.81 0v-2.208c0-2.029-1.448-3.415-3.476-3.415-1.186 0-1.748.663-2.009.663-.08 0-.14-.08-.14-.222v-.241c0-.14-.062-.202-.202-.202h-1.197c-.14 0-.2.061-.2.202v13.156c0 .14.06.2.2.2h1.407c.14 0 .2-.06.2-.201v-4.761c0-.141.062-.221.154-.221.18 0 .782.663 1.947.663 1.868 0 3.314-1.445 3.314-3.415l.001.002Zm5.944-2.208H24.92c-.181 0-.201-.08-.201-.302 0-.883.843-1.707 1.809-1.707.943 0 1.807.803 1.807 1.666 0 .242-.02.343-.202.343h-.001Zm2.009 1.204v-1.406c0-1.828-1.607-3.415-3.615-3.415-2.009 0-3.615 1.587-3.615 3.415v2.61c0 2.05 1.426 3.416 3.615 3.416 1.066 0 1.91-.282 2.511-.844.602-.562.844-1.085.844-1.226 0-.06-.041-.1-.122-.14l-1.265-.645a.286.286 0 0 0-.12-.04c-.12 0-.301.322-.744.844-.22.26-.622.441-1.104.441a1.8 1.8 0 0 1-1.807-1.807v-.8c0-.14.06-.201.2-.201h5.022a.168.168 0 0 0 .201-.2l-.002-.002Zm7.894 4.418H36.63a.169.169 0 0 1-.201-.2v-5.424c0-.985-.784-1.809-1.808-1.809-.997 0-1.808.824-1.808 1.81v5.422a.168.168 0 0 1-.117.198.169.169 0 0 1-.084.003h-1.406c-.14 0-.2-.06-.2-.2V30.65c0-.142.06-.202.2-.202h1.205c.14 0 .201.061.201.202v.24c0 .14.06.221.14.221.261 0 .824-.663 2.01-.663 2.028 0 3.474 1.388 3.474 3.415v5.422a.169.169 0 0 1-.2.203l-.001-.001Zm5.222-6.688c0 .823.623 1.205 2.01 1.506 2.309.502 3.595.803 3.595 2.492 0 1.707-1.246 2.892-3.194 2.892h-.623c-1.868 0-3.093-1.125-3.093-1.748 0-.06.04-.1.14-.14l.784-.382c.04-.02.08-.02.1-.02.061 0 .1.04.153.1.522.583.924 1.125 1.908 1.125h.622c1.125 0 1.84-.643 1.84-1.467 0-.744-.622-1.185-1.968-1.466-2.331-.483-3.596-.724-3.596-2.492 0-1.648 1.225-2.79 3.093-2.79h.623c1.828 0 3.073 1.104 3.073 1.707 0 .062-.06.1-.14.14l-.764.382c-.04.02-.06.02-.08.02-.062 0-.1-.04-.154-.102-.562-.602-1.024-1.083-1.927-1.083h-.623c-1.162-.003-1.785.5-1.785 1.323l.006.003Zm12.09 3.595c0 1.165-.944 2.15-2.148 2.15-1.205 0-2.13-.985-2.13-2.15v-2.71c0-1.186.905-2.13 2.13-2.13 1.203 0 2.149.985 2.149 2.13v2.71Zm1.365 0v-2.71c0-1.95-1.385-3.274-3.514-3.274-2.129 0-3.475 1.285-3.475 3.273v2.711c0 1.989 1.345 3.295 3.475 3.295s3.516-1.327 3.516-3.296l-.002.001Zm7.836 3.093h-.744c-.14 0-.2-.06-.2-.2v-.863c0-.14-.08-.221-.162-.221-.18 0-.38.322-.743.682-.403.381-.997.602-1.668.602-1.828 0-3.274-1.346-3.274-3.294v-5.39c0-.14.062-.201.202-.201h.943a.17.17 0 0 1 .198.117.17.17 0 0 1 .003.084v5.382c0 1.165.944 2.149 2.13 2.149 1.245 0 2.17-.965 2.17-2.15v-5.381a.17.17 0 0 1 .117-.198.17.17 0 0 1 .083-.003h.945a.17.17 0 0 1 .198.117.168.168 0 0 1 .003.084v8.476a.169.169 0 0 1-.2.203l-.001.005Zm6.286-7.452c-.16 0-.421-.06-.763-.06-1.225 0-2.13.923-2.13 2.108v5.202a.17.17 0 0 1-.117.198.17.17 0 0 1-.083.003h-.965a.17.17 0 0 1-.155-.045.168.168 0 0 1-.045-.156v-8.482a.17.17 0 0 1 .2-.201h.743a.17.17 0 0 1 .198.117.168.168 0 0 1 .003.084v.997c0 .14.08.22.153.22.221 0 .543-.502 1.266-1.085.268-.2.589-.319.923-.34h.744a.168.168 0 0 1 .155.045.168.168 0 0 1 .046.155v1.025c-.003.164-.041.203-.182.203l.01.012Zm6.728 5.884c0 .643-1.225 1.767-3.113 1.767-2.129 0-3.475-1.305-3.475-3.294v-2.711c0-1.989 1.346-3.274 3.475-3.274 1.869 0 3.134 1.066 3.134 1.728 0 .06-.062.12-.141.154l-.844.421c-.04.02-.061.02-.08.02-.06 0-.1-.02-.161-.08-.603-.562-.997-1.105-1.91-1.105-1.224 0-2.128.945-2.128 2.13v2.71c0 1.165.924 2.15 2.129 2.15.483 0 .964-.201 1.326-.543.422-.401.602-.69.722-.69.02 0 .062 0 .1.02l.843.422c.095.04.117.08.117.153l.006.022Zm6.346-3.956a.168.168 0 0 1-.118.198.17.17 0 0 1-.083.003h-3.876c-.14 0-.201-.061-.201-.2v-.282c0-1.185.904-2.128 2.129-2.128 1.205 0 2.149.984 2.149 2.129v.28Zm1.367.945v-1.225c0-1.728-1.567-3.274-3.515-3.274-1.024 0-1.868.362-2.53 1.066-.602.642-.943 1.465-.943 2.209v2.711c0 1.989 1.346 3.294 3.475 3.294 1.888 0 3.112-1.124 3.112-1.766 0-.08-.02-.121-.12-.153l-.843-.422c-.04-.02-.08-.02-.1-.02-.121 0-.301.281-.724.69-.36.343-.843.543-1.326.543-1.205 0-2.13-.985-2.13-2.15v-1.085a.169.169 0 0 1 .202-.2h5.242c.144-.007.203-.066.203-.206l-.003-.012Z"/></svg>