<svg xmlns="http://www.w3.org/2000/svg" width="40" height="40" fill="none"><g clip-path="url(#a)"><mask id="b" width="40" height="40" x="0" y="0" maskUnits="userSpaceOnUse" style="mask-type:luminance"><path fill="#fff" d="M0 0h40v40H0V0Z"/></mask><g mask="url(#b)"><path stroke="#333" stroke-linecap="round" stroke-linejoin="round" stroke-miterlimit="10" d="M12.817 37.831c6.93 2.788 15.157 1.374 20.773-4.241 6.837-6.838 7.446-17.546 1.825-25.072M10 36.417l.03.019"/><path stroke="#333" stroke-linecap="round" stroke-linejoin="round" stroke-miterlimit="10" d="M38.568 8.281h-3.412v3.412M27.295 2.214C20.34-.634 12.056.764 6.41 6.41c-6.837 6.838-7.446 17.546-1.825 25.072M30.104 3.646a81.054 81.054 0 0 0-.039-.024"/><path stroke="#333" stroke-linecap="round" stroke-linejoin="round" stroke-miterlimit="10" d="M1.465 31.823h3.483V28.34M18.123 20a1.877 1.877 0 1 0 3.754 0 1.877 1.877 0 0 0-3.753 0Z"/><path stroke="#333" stroke-linecap="round" stroke-linejoin="round" stroke-miterlimit="10" d="M8.523 13.005c-3.159 5.173-2.5 12.021 1.975 16.497 5.248 5.247 13.756 5.247 19.004 0 5.247-5.248 5.247-13.756 0-19.004-4.473-4.473-11.315-5.133-16.487-1.981M10.478 10.519l-.021.02M30.451 20.012h-.473M9.549 19.988h.473M20.012 9.55v.472M19.988 30.45v-.472M18.673 18.673 15.61 15.61M21.327 18.673l5.71-5.71"/></g></g><defs><clipPath id="a"><path fill="#fff" d="M0 0h40v40H0z"/></clipPath></defs></svg>