<svg xmlns="http://www.w3.org/2000/svg" width="138" height="100" fill="none"><g fill="#2D3037" fill-rule="evenodd" clip-rule="evenodd"><path d="M65.554 63.003c-5.34-3.346-9.274-14.895-9.274-28.617 0-.503.004-1 .014-1.496l.007.007c-14.852-2.335-25.583-8.733-25.858-16.3l-.044.088c-3.634 4.518-5.708 9.743-5.708 15.31 0 16.38 17.972 29.803 40.767 30.99l.096.018ZM17.824 33.19C17.824 14.861 40.621 0 68.745 0c28.123 0 50.921 14.861 50.921 33.19 0 18.33-22.798 33.19-50.92 33.19-28.125 0-50.922-14.861-50.922-33.19Zm50.921-28.4c5.43 0 10.047 8.24 11.758 19.737l.006-.017c10.562-1.645 17.957-5.44 17.957-9.856 0-5.926-13.308-10.725-29.72-10.725-16.415 0-29.722 4.799-29.722 10.725 0 4.416 7.394 8.21 17.957 9.856l.006.017C58.698 13.03 63.317 4.79 68.745 4.79Zm3.287 58.194c22.795-1.186 40.769-14.609 40.769-30.99 0-5.566-2.077-10.79-5.71-15.31l-.045-.087c-.275 7.566-11.003 13.964-25.857 16.3l.007-.007c.01.496.015.992.015 1.496 0 13.721-3.937 25.27-9.273 28.617l.094-.019Zm-3.287-37.603c2.432 0 4.797-.103 7.06-.303l-.005.004c-1.126-7.37-3.86-12.572-7.056-12.572-3.195 0-5.93 5.202-7.057 12.572l-.004-.004c2.263.2 4.628.303 7.06.303h.002Zm0 27.293c4.087 0 7.421-8.51 7.6-19.184l.021.007a82.734 82.734 0 0 1-7.62.348c-2.612 0-5.158-.12-7.621-.348l.023-.007c.175 10.673 3.508 19.184 7.597 19.184ZM68.894 87.687c0-6.8 5.47-12.313 12.212-12.313 6.747 0 12.215 5.513 12.215 12.313 0 6.8-5.468 12.313-12.215 12.313-6.743 0-12.212-5.512-12.212-12.313Zm12.212 7.798c3.768 0 6.821-3.492 6.821-7.798s-3.053-7.798-6.82-7.798c-3.765 0-6.818 3.492-6.818 7.798s3.053 7.798 6.817 7.798ZM114.358 80.504h-7.178V99.44h-5.145V80.504h.017-7.197v-4.281h19.503v4.28ZM120.582 94.217l-.005.005-1.974 5.219h-6.009l9.501-23.218H128.498L138 99.44h-6.01l-1.974-5.22-.005-.004h-9.429Zm4.716-3.919h3.237l-.002.001-3.213-8.498h-.045l-3.216 8.498h-.001H125.298ZM19.503 80.504h-7.178V99.44H7.179V80.504h.018H0v-4.281h19.503v4.28ZM20.818 87.687c0-6.8 5.47-12.313 12.214-12.313 6.746 0 12.214 5.513 12.214 12.313 0 6.8-5.468 12.313-12.214 12.313-6.745 0-12.214-5.512-12.214-12.313Zm12.214 7.798c3.766 0 6.82-3.492 6.82-7.798s-3.054-7.798-6.82-7.798c-3.765 0-6.819 3.492-6.819 7.798s3.054 7.798 6.82 7.798ZM57.07 85.982l-5.578-9.76h-6.01l8.978 14.402v8.817H59.68v-8.817l8.977-14.401h-6.008l-5.578 9.759Z"/></g></svg>