<svg xmlns="http://www.w3.org/2000/svg" width="105" height="66" fill="none"><path fill="url(#a)" d="M0 .5h105V33H0z"/><path fill="#fff" stroke="url(#b)" stroke-width="1.32" d="M.66 33.66h103.68v31.18H.66z"/><path fill="#fff" d="m19.004 11-3.442 6.58L12.228 11H9.126l4.948 8.995-.107.14c-.485.735-1.04 1.05-1.757 1.05-.377 0-.79-.088-1.255-.228l-.7 2.153c.7.28 1.381.42 2.044.42 1.685 0 3.173-.945 4.213-2.835L21.854 11h-2.85ZM31.355 23.25h3.299l-4.231-6.335L34.528 11h-3.065l-3.299 4.952h-2.08V11h-2.886v12.25h2.887v-4.935h2.008l3.262 4.935ZM41.446 11h-5.432v12.25h2.904v-3.378h2.528c3.352 0 5.45-1.697 5.45-4.427 0-2.748-2.098-4.445-5.45-4.445Zm-.161 6.562h-2.367V13.31h2.367c1.775 0 2.67.787 2.67 2.135 0 1.33-.895 2.117-2.67 2.117ZM57.79 23.25h3.048L55.227 11h-2.869l-5.593 12.25h2.976l1.111-2.625h5.827l1.111 2.625Zm-6.005-4.778 1.99-4.69 1.99 4.69h-3.98ZM62.072 9.915c.699 0 1.236-.49 1.236-1.208 0-.717-.537-1.207-1.236-1.207-.7 0-1.255.49-1.255 1.207 0 .718.555 1.208 1.255 1.208Zm3.62 0c.7 0 1.256-.49 1.256-1.208 0-.717-.556-1.207-1.255-1.207-.681 0-1.237.49-1.237 1.207 0 .718.556 1.208 1.237 1.208ZM62.43 23.25h2.904V11H62.43v12.25ZM76.989 11v4.83h-5.7V11h-2.905v12.25h2.904v-5.023h5.7v5.023h2.905V11H76.99ZM92.646 23.25h3.047L90.084 11h-2.869l-5.593 12.25h2.976l1.111-2.625h5.826l1.112 2.625Zm-6.006-4.778 1.99-4.69 1.99 4.69h-3.98Z"/><path fill="url(#c)" d="M20.404 43.5H11.55v12.25h2.886l-.018-9.94h5.97l.017-2.31Z"/><path fill="url(#d)" d="M27.607 43.5h-5.432v12.25h2.904v-3.377h2.528c3.352 0 5.45-1.697 5.45-4.427 0-2.748-2.098-4.445-5.45-4.445Zm-.161 6.563h-2.367v-4.252h2.367c1.774 0 2.67.787 2.67 2.135 0 1.33-.896 2.117-2.67 2.117Z"/><path fill="url(#e)" d="M41.135 55.96c3.944 0 6.866-2.677 6.866-6.334 0-3.658-2.922-6.335-6.866-6.335-3.962 0-6.866 2.695-6.866 6.335s2.904 6.335 6.866 6.335Zm0-2.414c-2.24 0-3.926-1.593-3.926-3.92 0-2.328 1.685-3.92 3.926-3.92 2.24 0 3.926 1.592 3.926 3.92 0 2.327-1.685 3.92-3.926 3.92Z"/><path fill="url(#f)" d="m64.382 55.75-.017-12.25h-2.403l-4.625 7.613-4.697-7.612h-2.402v12.25h2.725v-7.193l3.693 5.898h1.29l3.694-6.038.018 7.333h2.724Z"/><path fill="url(#g)" d="M77.109 55.75h3.047l-5.61-12.25h-2.87l-5.592 12.25h2.975l1.112-2.624h5.826l1.112 2.625Zm-6.006-4.777 1.99-4.69 1.99 4.69h-3.98Z"/><path fill="url(#h)" d="M93.112 53.44V43.5h-9.645l-.143 3.833c-.126 3.43-.538 6.055-2.17 6.108h-.501l-.018 4.847h2.689v-2.537h8.856v2.537h2.688v-4.847h-1.756Zm-7.225-5.844.054-1.785h4.302v7.63h-5.61c.86-.998 1.147-3.238 1.254-5.845Z"/><defs><linearGradient id="a" x1="52.5" x2="52.5" y1=".5" y2="33" gradientUnits="userSpaceOnUse"><stop stop-color="#79B1FE"/><stop offset="1" stop-color="#4F93EB"/></linearGradient><linearGradient id="b" x1="52.5" x2="52.5" y1="33" y2="65.5" gradientUnits="userSpaceOnUse"><stop stop-color="#79B1FE"/><stop offset="1" stop-color="#4F93EB"/></linearGradient><linearGradient id="c" x1="53.209" x2="53.209" y1="43.291" y2="58.288" gradientUnits="userSpaceOnUse"><stop stop-color="#79B1FE"/><stop offset="1" stop-color="#4F93EB"/></linearGradient><linearGradient id="d" x1="53.209" x2="53.209" y1="43.291" y2="58.288" gradientUnits="userSpaceOnUse"><stop stop-color="#79B1FE"/><stop offset="1" stop-color="#4F93EB"/></linearGradient><linearGradient id="e" x1="53.209" x2="53.209" y1="43.291" y2="58.288" gradientUnits="userSpaceOnUse"><stop stop-color="#79B1FE"/><stop offset="1" stop-color="#4F93EB"/></linearGradient><linearGradient id="f" x1="53.209" x2="53.209" y1="43.291" y2="58.288" gradientUnits="userSpaceOnUse"><stop stop-color="#79B1FE"/><stop offset="1" stop-color="#4F93EB"/></linearGradient><linearGradient id="g" x1="53.209" x2="53.209" y1="43.291" y2="58.288" gradientUnits="userSpaceOnUse"><stop stop-color="#79B1FE"/><stop offset="1" stop-color="#4F93EB"/></linearGradient><linearGradient id="h" x1="53.209" x2="53.209" y1="43.291" y2="58.288" gradientUnits="userSpaceOnUse"><stop stop-color="#79B1FE"/><stop offset="1" stop-color="#4F93EB"/></linearGradient></defs></svg>