<svg xmlns="http://www.w3.org/2000/svg" width="226" height="46" fill="none"><g clip-path="url(#a)"><path fill="#fff" d="m27.905 2.162.17-.79L43.234 24.18l-1.105.662-14.224-22.68Z"/><path fill="#FFC700" stroke="#fff" d="M20.338 21.687c10.23-2.515 13.4-7.48 13.853-9.802l6.999 10.473c-4.317 6.074-7.322 7.297-10.105 7.584-9.689.995-17.21 7.755-19.682 10.917l-5.185-9.704c.452-2.11 3.89-6.953 14.12-9.468Z"/><path fill="#0678BE" stroke="#fff" d="M14.603 12.102C24.45 9.568 27.774 4.289 28.206 1.966l6.478 10.77c-4.146 6.08-7.171 6.73-9.717 7.601-9.21 3.152-13.71 3.493-18.708 10.89L1 21.605c.432-2.112 3.757-6.968 13.603-9.502Z"/><path fill="#0478BE" d="M83.174 16.52c0 .65.132 1.257.398 1.82a4.82 4.82 0 0 0 1.076 1.478c.451.413.973.743 1.567.99a4.955 4.955 0 0 0 1.858.356c.647 0 1.253-.119 1.82-.357a4.761 4.761 0 0 0 1.474-.99c.416-.421.743-.914.982-1.477.248-.563.372-1.17.372-1.82V8.39c0-.202.035-.387.106-.554a1.38 1.38 0 0 1 .319-.449c.133-.132.283-.233.451-.303.177-.07.368-.106.571-.106.195 0 .381.035.558.106.177.07.328.171.451.303.133.123.235.273.306.449.08.167.12.352.12.554v8.128c0 1.03-.2 2.001-.598 2.916a7.435 7.435 0 0 1-1.607 2.389 7.672 7.672 0 0 1-2.403 1.61 7.29 7.29 0 0 1-2.935.593 7.575 7.575 0 0 1-2.974-.594 8.256 8.256 0 0 1-2.483-1.61 7.655 7.655 0 0 1-1.687-2.388 6.963 6.963 0 0 1-.624-2.916V8.417c0-.193.036-.378.106-.554a1.49 1.49 0 0 1 .306-.448c.133-.132.283-.233.451-.304.177-.079.368-.119.571-.119.195 0 .381.04.558.12.177.07.332.17.465.303.133.123.234.272.305.448.08.176.12.36.12.554v8.102ZM101.337 15.318l8.405-7.943a1.385 1.385 0 0 1 1.023-.383c.185 0 .367.04.544.12.177.078.336.188.478.329.133.14.23.3.292.475.062.167.084.343.067.528a1.49 1.49 0 0 1-.479 1.016l-6.055 5.687 6.188 6.267c.142.15.248.317.319.502.071.176.106.356.106.54 0 .186-.04.366-.119.542a1.443 1.443 0 0 1-.319.462c-.283.281-.611.418-.983.409-.363 0-.686-.145-.969-.436l-6.294-6.346-2.204 2.084v3.286c0 .202-.04.391-.12.567a1.254 1.254 0 0 1-.305.436 1.698 1.698 0 0 1-.465.303c-.177.07-.363.106-.558.106-.203 0-.394-.035-.57-.106a1.764 1.764 0 0 1-.452-.303 1.546 1.546 0 0 1-.306-.436 1.505 1.505 0 0 1-.106-.567V8.39c0-.193.036-.378.106-.554.08-.176.182-.326.306-.449.133-.123.283-.22.451-.29.177-.08.368-.119.571-.119.195 0 .381.04.558.119.177.07.332.167.465.29.133.123.234.273.305.449.08.176.12.36.12.554v6.927ZM114.457 8.417c0-.202.035-.391.106-.567.08-.176.182-.325.306-.449.132-.132.283-.233.451-.303.177-.08.368-.119.571-.119h4.873c.877 0 1.7.159 2.47.475.77.308 1.443.74 2.019 1.293a5.773 5.773 0 0 1 1.367 1.953c.337.748.505 1.557.505 2.428a5.873 5.873 0 0 1-.916 3.193 6.315 6.315 0 0 1-1.049 1.227c-.408.37-.855.678-1.342.924l2.457 2.942c.15.15.261.313.332.489.071.176.102.356.093.54 0 .185-.036.366-.106.542-.071.176-.177.33-.319.462-.142.14-.297.246-.465.316-.159.07-.323.106-.491.106-.168 0-.336-.035-.505-.106a1.513 1.513 0 0 1-.451-.317l-3.692-4.262h-3.333v3.273c0 .202-.039.391-.119.567a1.267 1.267 0 0 1-.305.436 1.698 1.698 0 0 1-.465.303c-.177.07-.363.106-.558.106-.203 0-.394-.035-.571-.106a1.75 1.75 0 0 1-.451-.303 1.552 1.552 0 0 1-.306-.436 1.501 1.501 0 0 1-.106-.567V8.417Zm2.881 1.425v6.466h3.453c.478 0 .925-.084 1.341-.25a3.555 3.555 0 0 0 1.102-.674c.31-.29.553-.629.731-1.016.185-.387.278-.8.278-1.24 0-.449-.093-.87-.278-1.267a3.191 3.191 0 0 0-.744-1.055c-.31-.3-.673-.532-1.089-.7a3.375 3.375 0 0 0-1.328-.264h-3.466ZM139.391 20.636h-7.595l-.996 2.375c-.08.185-.19.343-.332.475a1.345 1.345 0 0 1-.478.29 1.61 1.61 0 0 1-.558.093 1.636 1.636 0 0 1-.571-.132 1.332 1.332 0 0 1-.478-.317 1.468 1.468 0 0 1-.279-.462 1.54 1.54 0 0 1-.066-.54 1.85 1.85 0 0 1 .146-.568l6.068-14c.124-.281.301-.497.531-.646.231-.15.496-.225.797-.225.283 0 .54.075.77.224.23.15.408.361.531.634l6.109 14.013c.159.37.181.734.066 1.095-.106.36-.345.625-.717.792-.186.079-.376.123-.571.132-.195 0-.381-.031-.558-.093a1.7 1.7 0 0 1-.464-.29 1.571 1.571 0 0 1-.346-.475l-1.009-2.375Zm-6.44-2.863h5.245l-2.603-6.215-2.642 6.215ZM147.734 22.457c0 .202-.04.391-.119.567a1.256 1.256 0 0 1-.306.436 1.698 1.698 0 0 1-.465.303c-.177.07-.363.106-.557.106a1.53 1.53 0 0 1-.571-.106 1.756 1.756 0 0 1-.452-.303 1.529 1.529 0 0 1-.305-.436 1.501 1.501 0 0 1-.106-.567V8.39c0-.202.035-.387.106-.554.079-.176.181-.326.305-.449.133-.132.283-.233.452-.303a1.53 1.53 0 0 1 .571-.106c.194 0 .38.035.557.106.177.07.332.171.465.303.133.123.235.273.306.449.079.167.119.352.119.554v14.066ZM153.803 12.244v10.213c0 .202-.04.391-.12.567a1.254 1.254 0 0 1-.305.436 1.698 1.698 0 0 1-.465.303c-.177.07-.363.106-.558.106-.203 0-.394-.035-.571-.106a1.768 1.768 0 0 1-.451-.303 1.529 1.529 0 0 1-.305-.436 1.502 1.502 0 0 1-.107-.567V8.43c0-.379.124-.7.372-.964.115-.15.261-.268.438-.356.177-.088.385-.132.624-.132.213 0 .416.049.611.145.204.088.381.22.531.396l9.189 10.965V8.391c0-.193.04-.378.12-.554a1.38 1.38 0 0 1 .783-.74 1.381 1.381 0 0 1 1.115 0c.178.071.328.168.452.291.133.123.235.273.305.449.071.176.107.36.107.554v14.066c0 .229-.049.44-.146.633a1.316 1.316 0 0 1-.399.475c-.106.097-.23.172-.372.224-.132.053-.287.08-.464.08h-.08a1.251 1.251 0 0 1-.558-.145 1.756 1.756 0 0 1-.451-.41l-9.295-11.07ZM170.17 23.869a1.51 1.51 0 0 1-.956-.436c-.248-.264-.372-.593-.372-.99V8.418c0-.202.036-.391.106-.567.08-.176.182-.325.306-.449.133-.132.288-.233.465-.303.177-.08.367-.119.571-.119h9.295c.194 0 .38.04.557.119.177.07.328.171.452.303.124.124.221.273.292.45.08.175.119.364.119.566 0 .203-.039.392-.119.568a1.513 1.513 0 0 1-.292.448 1.507 1.507 0 0 1-.452.304c-.177.07-.363.105-.557.105h-7.861v3.933h6.148c.194-.01.38.026.557.105.177.08.328.185.452.317.133.132.234.29.305.475.08.176.12.36.12.554 0 .202-.04.387-.12.554a1.394 1.394 0 0 1-.305.449c-.124.123-.275.22-.452.29-.177.07-.363.106-.557.106h-6.148v4.38h7.861c.194 0 .38.04.557.12a1.392 1.392 0 0 1 .744.778c.08.176.119.36.119.554 0 .202-.039.391-.119.567a1.513 1.513 0 0 1-.292.449 1.506 1.506 0 0 1-.452.303c-.177.07-.363.102-.557.093h-9.415ZM95.031 30.959c.283.281.425.616.425 1.003 0 .378-.142.708-.425.99-.133.14-.292.245-.478.316-.177.07-.359.105-.544.105-.186 0-.368-.03-.545-.092a1.37 1.37 0 0 1-.465-.303 5.543 5.543 0 0 0-1.925-1.267 5.78 5.78 0 0 0-2.178-.422 5.58 5.58 0 0 0-2.217.448c-.69.29-1.297.695-1.82 1.214a5.915 5.915 0 0 0-1.234 1.808 5.583 5.583 0 0 0-.452 2.243c0 .765.142 1.495.425 2.19.292.687.69 1.294 1.195 1.821a6.077 6.077 0 0 0 1.806 1.254c.69.308 1.443.466 2.257.475a5.755 5.755 0 0 0 2.165-.383c.69-.273 1.341-.703 1.952-1.293a1.22 1.22 0 0 1 .465-.29 1.46 1.46 0 0 1 .544-.106c.186 0 .367.031.544.093.178.061.332.158.465.29a1.435 1.435 0 0 1 .319 1.557c-.071.176-.173.33-.306.462a8.538 8.538 0 0 1-2.881 1.913 8.9 8.9 0 0 1-3.28.62 8.515 8.515 0 0 1-2.27-.303 9.16 9.16 0 0 1-2.045-.871 8.682 8.682 0 0 1-1.727-1.333 8.807 8.807 0 0 1-1.34-1.742 8.88 8.88 0 0 1-.864-2.045 8.46 8.46 0 0 1-.305-2.282c0-.748.097-1.483.292-2.204.195-.721.47-1.399.823-2.032a9.009 9.009 0 0 1 1.315-1.755 8.327 8.327 0 0 1 3.811-2.283 8.431 8.431 0 0 1 2.377-.33 8.67 8.67 0 0 1 6.121 2.533ZM105.785 28.425c.797 0 1.562.106 2.297.317a8.61 8.61 0 0 1 2.071.858c.638.37 1.222.818 1.753 1.346a8.11 8.11 0 0 1 1.355 1.741c.371.634.659 1.315.863 2.046.212.73.318 1.49.318 2.282 0 1.188-.23 2.3-.69 3.339a8.715 8.715 0 0 1-1.859 2.73 8.676 8.676 0 0 1-2.749 1.835 8.417 8.417 0 0 1-3.359.673 8.516 8.516 0 0 1-3.373-.673 8.722 8.722 0 0 1-2.735-1.834 8.942 8.942 0 0 1-1.833-2.731 8.421 8.421 0 0 1-.664-3.339c0-.791.102-1.552.306-2.282.203-.73.491-1.412.863-2.046a8.324 8.324 0 0 1 1.34-1.741 8.282 8.282 0 0 1 1.74-1.346 8.693 8.693 0 0 1 2.059-.858 8.271 8.271 0 0 1 2.297-.317Zm.013 2.864c-.797 0-1.545.15-2.244.448-.699.3-1.31.708-1.832 1.227a5.883 5.883 0 0 0-1.222 1.821 5.697 5.697 0 0 0-.438 2.23c0 .8.146 1.548.438 2.243a5.883 5.883 0 0 0 1.222 1.821c.522.51 1.133.915 1.832 1.214.699.29 1.447.436 2.244.436a5.742 5.742 0 0 0 4.077-1.65 5.782 5.782 0 0 0 1.235-1.82c.3-.696.451-1.443.451-2.244 0-.791-.151-1.535-.451-2.23a5.782 5.782 0 0 0-1.235-1.82 5.634 5.634 0 0 0-1.833-1.228 5.644 5.644 0 0 0-2.244-.448ZM124.184 38.902l-.119-.145-4.25-4.988v10.253c0 .202-.039.391-.119.567a1.268 1.268 0 0 1-.305.436 1.701 1.701 0 0 1-.465.303c-.177.07-.363.106-.558.106-.203 0-.394-.036-.571-.106a1.753 1.753 0 0 1-.451-.303 1.553 1.553 0 0 1-.306-.436 1.502 1.502 0 0 1-.106-.567V29.956c0-.352.111-.655.332-.91a1.38 1.38 0 0 1 .85-.476c.23-.044.456-.03.677.04.221.062.425.176.611.343l5.749 6.782 5.724-6.782c.115-.105.239-.189.371-.25a1.731 1.731 0 0 1 .611-.159h.106c.195.009.377.053.545.132.168.08.314.18.438.304.124.123.221.268.292.435.08.167.12.347.12.541v14.066c0 .202-.04.391-.12.567a1.254 1.254 0 0 1-.305.436 1.701 1.701 0 0 1-.465.303c-.177.07-.363.106-.558.106-.194 0-.38-.036-.557-.106a1.759 1.759 0 0 1-.452-.303 1.426 1.426 0 0 1-.319-.436 1.522 1.522 0 0 1-.106-.567V33.756l-4.249 5.014-.133.158a1.488 1.488 0 0 1-.544.357c-.487.176-.93.061-1.328-.343h-.013v-.014l-.027-.026ZM143.817 38.902l-.12-.145-4.249-4.988v10.253c0 .202-.04.391-.119.567a1.257 1.257 0 0 1-.306.436 1.701 1.701 0 0 1-.465.303c-.177.07-.363.106-.557.106-.204 0-.394-.036-.571-.106a1.776 1.776 0 0 1-.452-.303 1.55 1.55 0 0 1-.305-.436 1.502 1.502 0 0 1-.106-.567V29.956c0-.352.11-.655.332-.91.23-.264.513-.423.849-.476.231-.044.456-.03.678.04.221.062.425.176.61.343l5.75 6.782 5.723-6.782a1.45 1.45 0 0 1 .372-.25 1.731 1.731 0 0 1 .611-.159h.106c.195.009.376.053.544.132.169.08.315.18.439.304.124.123.221.268.292.435.079.167.119.347.119.541v14.066c0 .202-.04.391-.119.567a1.257 1.257 0 0 1-.306.436 1.68 1.68 0 0 1-.464.303c-.177.07-.363.106-.558.106-.195 0-.381-.036-.558-.106a1.77 1.77 0 0 1-.451-.303 1.426 1.426 0 0 1-.319-.436 1.502 1.502 0 0 1-.106-.567V33.756l-4.249 5.014-.133.158c-.168.168-.35.286-.545.357-.486.176-.929.061-1.327-.343h-.014v-.014l-.026-.026ZM158.709 38.084c0 .651.133 1.258.398 1.821a4.822 4.822 0 0 0 1.076 1.478c.451.413.974.743 1.567.99a4.952 4.952 0 0 0 1.859.356c.646 0 1.252-.12 1.819-.357a4.766 4.766 0 0 0 1.474-.99c.416-.421.743-.914.982-1.477.248-.563.372-1.17.372-1.821v-8.128c0-.202.036-.387.106-.554.08-.176.186-.326.319-.449a1.4 1.4 0 0 1 .452-.303 1.53 1.53 0 0 1 .571-.106c.194 0 .38.035.557.106.177.07.328.171.452.303.133.123.234.273.305.449.08.167.12.352.12.554v8.128c0 1.03-.2 2.001-.598 2.916a7.421 7.421 0 0 1-1.607 2.388 7.657 7.657 0 0 1-2.403 1.61 7.29 7.29 0 0 1-2.935.594 7.574 7.574 0 0 1-2.974-.594 8.256 8.256 0 0 1-2.483-1.61A7.655 7.655 0 0 1 156.452 41a6.948 6.948 0 0 1-.625-2.916v-8.102c0-.193.036-.378.107-.554.079-.176.181-.325.305-.448a1.4 1.4 0 0 1 .452-.304 1.38 1.38 0 0 1 .571-.119c.194 0 .38.04.557.12.177.07.332.17.465.303.133.123.235.272.305.448.08.176.12.36.12.554v8.102ZM176.872 33.809v10.213c0 .202-.04.391-.12.567-.07.167-.172.312-.305.436a1.701 1.701 0 0 1-.465.303c-.177.07-.363.106-.557.106-.204 0-.394-.036-.571-.106a1.759 1.759 0 0 1-.452-.303 1.53 1.53 0 0 1-.305-.436 1.502 1.502 0 0 1-.106-.567V29.996c0-.379.123-.7.371-.964.115-.15.261-.268.438-.356.178-.088.386-.132.625-.132.212 0 .416.049.61.145.204.088.381.22.532.396l9.188 10.965V29.956a1.381 1.381 0 0 1 .439-1.003c.132-.123.287-.22.464-.29.177-.08.368-.119.571-.119.195 0 .376.04.545.119.177.07.327.167.451.29.133.123.235.273.306.449.07.176.106.36.106.554v14.066c0 .229-.049.44-.146.633-.098.194-.23.352-.399.475-.106.097-.23.172-.371.224-.133.053-.288.08-.465.08h-.08a1.25 1.25 0 0 1-.558-.145 1.772 1.772 0 0 1-.451-.41l-9.295-11.07ZM194.793 44.022c0 .202-.04.391-.12.567-.07.167-.172.312-.305.436a1.701 1.701 0 0 1-.465.303c-.177.07-.363.106-.557.106-.204 0-.394-.036-.571-.106a1.759 1.759 0 0 1-.452-.303 1.53 1.53 0 0 1-.305-.436 1.502 1.502 0 0 1-.107-.567V29.956c0-.202.036-.387.107-.554.079-.176.181-.326.305-.449a1.4 1.4 0 0 1 .452-.303 1.53 1.53 0 0 1 .571-.106c.194 0 .38.035.557.106.177.07.332.171.465.303.133.123.235.273.305.449.08.167.12.352.12.554v14.066ZM204.938 31.407v12.615c0 .202-.04.391-.119.567a1.257 1.257 0 0 1-.306.436 1.686 1.686 0 0 1-.465.303 1.53 1.53 0 0 1-.57.106c-.195 0-.381-.036-.558-.106a1.776 1.776 0 0 1-.452-.303 1.55 1.55 0 0 1-.305-.436 1.502 1.502 0 0 1-.106-.567V31.407h-3.971c-.203 0-.394-.035-.571-.105a1.61 1.61 0 0 1-.451-.317 1.732 1.732 0 0 1-.305-.448 1.502 1.502 0 0 1-.107-.568c0-.193.036-.378.107-.554.079-.176.181-.325.305-.449.133-.132.283-.233.451-.303.177-.08.368-.119.571-.119h10.822c.195 0 .381.04.558.119.177.07.328.171.452.303.132.132.234.286.305.462.08.176.12.36.12.554 0 .203-.04.392-.12.568a1.41 1.41 0 0 1-.305.448 1.506 1.506 0 0 1-.452.304c-.177.07-.363.105-.558.105h-3.97ZM218.285 36.065l5.192-7.033a1.4 1.4 0 0 1 .451-.343c.168-.079.341-.123.518-.132a1.27 1.27 0 0 1 .544.066c.178.053.341.141.492.264.292.247.46.559.504.937.054.37-.057.739-.332 1.108l-5.922 7.627v5.463c0 .202-.04.391-.119.567a1.257 1.257 0 0 1-.306.436 1.504 1.504 0 0 1-.451.303c-.177.07-.363.106-.558.106-.204 0-.394-.036-.571-.106a1.753 1.753 0 0 1-.451-.303 1.426 1.426 0 0 1-.319-.436 1.502 1.502 0 0 1-.106-.567v-5.45l-5.962-7.613a1.292 1.292 0 0 1-.279-.488 1.34 1.34 0 0 1-.067-.555c.009-.184.058-.365.146-.54.08-.177.2-.33.359-.462.142-.132.305-.23.491-.29.186-.062.372-.084.558-.067.186.01.363.058.531.145.168.08.314.198.438.357l5.219 7.006Z"/><path fill="#fff" d="M65.275 13.918c-2.016-1.253-3.919-1.746-5.82-3-1.18-.797-2.816-2.695-4.186-4.328-.266 2.62-1.065 3.683-1.978 4.443-1.94 1.518-3.158 1.974-4.832 2.885-1.408.721-9.055 5.277-9.055 15.073C39.404 38.786 47.66 46 56.83 46s17.12-6.644 17.12-16.706c0-10.06-7.456-14.617-8.674-15.376Z"/><path fill="#0678BE" d="M46.546 38.933c2.892-.038 3.424-.532 5.973-1.67 13.773-6.151 16.322-11.77 16.816-13.061.495-1.291 1.218-3.38.457-5.695a20.693 20.693 0 0 1-.331-1.095c-1.83-2.043-3.647-3.157-4.197-3.5-1.978-1.252-3.918-1.746-5.82-2.999-1.18-.76-2.816-2.695-4.185-4.328-.267 2.62-1.028 3.72-1.979 4.442-1.94 1.519-3.157 1.974-4.831 2.886-1.408.759-9.055 5.277-9.055 15.072 0 3.128.842 5.992 2.286 8.443l.377-.014c.799.721 2.054 1.557 4.49 1.519Z"/><path fill="#0678BE" d="M65.264 13.913c-1.978-1.253-3.918-1.747-5.82-3-1.18-.76-2.816-2.695-4.185-4.328-.267 2.62-1.028 3.72-1.979 4.442-1.94 1.519-3.157 1.974-4.831 2.886-1.408.759-9.055 5.277-9.055 15.072 0 3.128.842 5.992 2.286 8.443 3.079 5.224 8.897 8.567 15.139 8.567 9.168 0 17.12-6.645 17.12-16.706 0-5.525-2.249-9.39-4.478-11.877-1.83-2.043-3.648-3.157-4.197-3.5Zm4.625 4.444c2.498 3.117 3.764 6.795 3.764 10.932 0 2.401-.458 4.67-1.362 6.741a15.506 15.506 0 0 1-3.669 5.177c-3.118 2.904-7.31 4.503-11.803 4.503-2.224 0-4.405-.424-6.485-1.26a17.385 17.385 0 0 1-5.47-3.494c-3.344-3.153-5.185-7.405-5.185-11.97 0-4.067 1.323-7.681 3.932-10.741 1.993-2.338 4.142-3.633 4.973-4.082.404-.22.783-.414 1.149-.601 1.148-.588 2.232-1.143 3.723-2.31.796-.604 1.643-1.56 2.004-3.985 1.256 1.492 2.715 3.168 3.829 3.885.99.652 2.004 1.109 2.985 1.55.928.418 1.888.85 2.838 1.451l.035.022c2.777 1.73 4.256 3.576 4.742 4.182Z"/><path fill="#fff" d="M55.45 7.344c.532 1.557.456 2.354.456 2.696 0 .342-.19 1.253-.799 1.708-.266.19-.342.342-.342.38 0 .152.342.266.342.607 0 .418-.19 1.253-2.207 3.266-2.016 2.012-4.907 3.796-7.152 4.897-2.245 1.101-3.31 1.026-3.614.494-.305-.532.114-1.709 1.521-3.265 1.408-1.557 5.86-3.797 5.86-3.797l5.554-3.873.304-1.48"/><path fill="#fff" d="M55.45 7.306c-.343 2.506-1.104 3.265-2.131 4.063-1.712 1.29-3.386 2.088-3.767 2.278-.989.493-4.565 2.468-6.43 5.315-.57.873 0 1.215.115 1.291.114.076 1.408.228 4.185-1.443 2.777-1.67 3.995-2.657 5.555-4.29.837-.873.95-1.367.95-1.595 0-.265-.19-.38-.494-.455-.152-.038-.19-.114 0-.228s.99-.494 1.18-.646c.19-.151 1.103-.759 1.14-1.746.039-.987-.037-1.67-.303-2.544Z"/><path fill="#0678BE" d="M69.793 18.507c.76 2.316.038 4.404-.457 5.695-.494 1.29-3.043 6.91-16.816 13.06-2.549 1.14-3.081 1.633-5.973 1.67-2.435.039-3.69-.797-4.49-1.518l-.376.014c3.079 5.224 8.897 8.567 15.139 8.567 9.168 0 17.12-6.645 17.12-16.706 0-5.525-2.249-9.39-4.478-11.877.077.289.184.648.33 1.095Z"/><path fill="#fff" d="M46.889 34.908c.038-2.961 2.815-5.733 6.316-5.77 4.45-.039 7.532 4.403 9.777 4.365 1.902-.038 5.555-3.758 7.343-3.758 1.902 0 2.435 1.974 2.435 3.151 0 1.177-.38 3.303-1.294 4.632-.913 1.329-1.484 1.822-2.549 1.746-1.37-.114-4.109-4.366-5.859-4.442-2.206-.076-7 4.594-10.767 4.594-2.282 0-2.967-.341-3.728-.835-1.141-.797-1.712-2.012-1.674-3.683ZM55.868 41.818c.76.608 1.902 1.101 4.337 1.101 2.435 0 4.147-.683 4.908-1.253.342-.265.494-.038.532.114.038.152.115.38-.152.646-.19.19-1.94 1.404-3.995 1.594-2.054.19-4.831.304-6.505-1.215-.267-.265-.19-.645 0-.797.19-.152.342-.266.57-.266.229 0 .19 0 .305.076Z"/><path fill="#fff" d="M62.183 37.49c.609 0 1.256.038 1.712.342.457.303.723.987.875 1.367.152.38 0 .607-.304.759-.266.152-.304.076-.57-.418-.267-.493-.495-.987-1.827-.987-1.332 0-1.75.456-2.397.987-.647.532-.875.721-1.103.418-.228-.304-.152-.608.266-.987.419-.38 1.103-.987 1.75-1.253.647-.266.99-.228 1.598-.228Z"/></g><defs><clipPath id="a"><path fill="#fff" d="M0 0h226v46H0z"/></clipPath></defs></svg>