<svg xmlns="http://www.w3.org/2000/svg" width="624" height="713" fill="none"><g opacity=".05"><path fill="url(#a)" d="M-134.68 647.611c32.209 30.548 73.595 52.463 117.235 60.925 37.3 7.088 75.643 4.776 111.584-6.354 10.364-3.397 20.368-8.199 30.399-14.655C169.79 659.494 236.595 576.817 295.5 570c72.798-8.122 174.081 52.565 267.939-22.025 27.199-21.323 45.792-53.474 54.875-87.686 7.321-27.623 6.15-57.418.239-85.253-9.446-45.198-29.642-86.751-56.507-125.103-15.171-21.875-32.904-42.647-50.913-62.151C473.985 147.866 352.442 185.26 307 154.5 238.011 108.347 237.628 1.046 154.792.353 136.213.31 117.358 1.534 99.222 5.57 76.62 10.297 55.369 17.973 34.34 27.69 5.623 40.717-21.247 57.464-46.242 76.279c-87.356 66.04-152.563 163.104-174.184 271.938-23.517 123.691 17.438 234.801 85.746 299.394Z"/><path fill="url(#b)" d="M-134.68 647.611c32.209 30.548 73.595 52.463 117.235 60.925 37.3 7.088 75.643 4.776 111.584-6.354 10.364-3.397 20.368-8.199 30.399-14.655C169.79 659.494 236.595 576.817 295.5 570c72.798-8.122 174.081 52.565 267.939-22.025 27.199-21.323 45.792-53.474 54.875-87.686 7.321-27.623 6.15-57.418.239-85.253-9.446-45.198-29.642-86.751-56.507-125.103-15.171-21.875-32.904-42.647-50.913-62.151C473.985 147.866 352.442 185.26 307 154.5 238.011 108.347 237.628 1.046 154.792.353 136.213.31 117.358 1.534 99.222 5.57 76.62 10.297 55.369 17.973 34.34 27.69 5.623 40.717-21.247 57.464-46.242 76.279c-87.356 66.04-152.563 163.104-174.184 271.938-23.517 123.691 17.438 234.801 85.746 299.394Z"/></g><defs><linearGradient id="a" x1="-185.282" x2="606.936" y1="296.616" y2="467.73" gradientUnits="userSpaceOnUse"><stop offset=".007" stop-color="#FF9C37"/><stop offset=".997" stop-color="#FF7300"/></linearGradient><linearGradient id="b" x1="285.986" x2="104.825" y1="-230.304" y2="1011.62" gradientUnits="userSpaceOnUse"><stop stop-color="#FFDF00"/><stop offset="1" stop-color="#FFB800"/></linearGradient></defs></svg>