<svg xmlns="http://www.w3.org/2000/svg" width="40" height="40" fill="none"><g fill="#333" clip-path="url(#a)"><path d="M39.395 32.663a.585.585 0 0 0-.585.586v6.127c0 .755 1.17.755 1.17 0v-6.127a.585.585 0 0 0-.585-.586ZM39.395 19.462h-4.597v-2.11h1.406c.856 0 1.552-.697 1.552-1.553V1.552C37.756.696 37.06 0 36.204 0H14.366c-.856 0-1.552.696-1.552 1.552v2.102c0 .755 1.17.755 1.17 0V1.552c0-.21.171-.381.382-.381h21.838c.21 0 .381.17.381.38v11.352H34.8V6.665a.585.585 0 0 0-.797-.546c-.154.06-3.383 1.378-4.07 6.782H13.985V6.698c0-.755-1.171-.755-1.171 0v9.101c0 .856.696 1.552 1.552 1.552h7.863v2.11H8.938c1.296-1.294 1.423-3.345 1.423-5.068a.585.585 0 0 0-.585-.586H6.615v-1.105c1.877.4 3.925-1.14 3.9-3.094-.004-.262-.036-.527-.278-.687-1.112-.734-2.643-.428-3.622.373V8.238c1.672-1.154 1.797-3.873.19-5.142a2.263 2.263 0 0 0-.534-.328c-.825-.337-1.732 1.133-1.929 1.7-.464 1.34-.044 2.882 1.102 3.732v1.088c-.752-.612-1.733-.913-2.692-.721-.396.08-1.09.259-1.176.739-.372 2.066 1.97 3.796 3.868 3.398v1.103H2.049a.585.585 0 0 0-.586.586c0 1.72.094 3.774 1.39 5.069H.605a.585.585 0 0 0-.585.585v19.329c0 .755 1.17.755 1.17 0v-2.732h10.576v2.732c0 .755 1.17.755 1.17 0V24.468h20.7c.003.204.023 1.303.025 1.632h-9.906c-2.315 0-4.03.602-5.097 1.79-1.282 1.427-1.113 3.155-1.105 3.228a.585.585 0 0 0 .582.523h7.563v1.054h-2.303c-.755 0-.755 1.17 0 1.17h2.303v4.925h-7.493c-.755 0-.755 1.171 0 1.171h7.87a.584.584 0 0 0 .417 0h7.869c.755 0 .755-1.17 0-1.17h-7.493v-7.15h3.911c1.344 0 2.315-.323 2.97-.99 1.147-1.168 1.112-3.124 1.068-5.6a193.24 193.24 0 0 1-.01-.583h4.003v5.503c0 .755 1.17.755 1.17 0v-9.924a.585.585 0 0 0-.585-.585ZM7.592 10.029c.754-.478 1.409-.365 1.75-.245-.103 1.213-1.578 2.096-2.706 1.714a2.011 2.011 0 0 1 .956-1.469Zm-3.89 1.218c-.498-.316-.921-.86-.976-1.463 1.173-.412 2.551.5 2.704 1.714-.569.193-1.23.065-1.729-.251Zm2.357-7.253c.98.745.937 2.447-.003 3.204-.29-.239-.727-.74-.727-1.596 0-.892.446-1.385.73-1.608ZM2.642 14.978h6.54c-.1 3.162-1.043 4.41-3.27 4.41-2.257 0-3.175-1.208-3.27-4.41Zm30.272 14.853c-.423.43-1.122.64-2.135.64H18.733a3.241 3.241 0 0 1 .796-1.798c.836-.93 2.258-1.402 4.226-1.402h9.891c-.048 1.147-.221 2.04-.732 2.56Zm3.671-15.758V15.8c0 .21-.17.381-.38.381h-1.407v-2.107h1.787Zm-3.873-5.382c.319-.42.64-.734.916-.961v14.662a5.976 5.976 0 0 1-.91-.985c-1.14-1.54-1.744-3.75-1.744-6.39 0-2.636.601-4.823 1.738-6.326Zm-2.751 8.66c.112.788.277 1.49.479 2.11H28.34v-2.11h1.62ZM13.985 15.8v-1.726h15.843c-.037.702-.033 1.406.013 2.107H14.366a.381.381 0 0 1-.381-.38Zm9.414 1.552h3.771v2.11H23.4v-2.11Zm7.5 3.282c.61 1.303 1.368 2.145 1.98 2.665H1.19v-2.665H30.9ZM1.19 35.473v-4.917h10.576v4.917H1.19Zm10.576-6.088H1.19v-4.917h10.576v4.917Zm23.032-6.087v-2.665h4.012v2.665h-4.012Z"/><path d="M4.273 27.512h4.449c.755 0 .755-1.17 0-1.17H4.273c-.755 0-.755 1.17 0 1.17ZM8.722 32.43H4.273c-.755 0-.755 1.17 0 1.17h4.449c.755 0 .755-1.17 0-1.17Z"/></g><defs><clipPath id="a"><path fill="#fff" d="M0 0h40v40H0z"/></clipPath></defs></svg>