<svg xmlns="http://www.w3.org/2000/svg" width="40" height="41" fill="none"><path fill="#333" d="M23.894 28.81a.605.605 0 1 0 0-1.21.605.605 0 0 0 0 1.21ZM34.236 26.31c-1.045 0-1.894.85-1.894 1.895s.85 1.895 1.894 1.895c1.045 0 1.895-.85 1.895-1.895s-.85-1.895-1.895-1.895Zm0 2.58a.686.686 0 1 1 .001-1.372.686.686 0 0 1-.001 1.372Z"/><path fill="#333" d="M38.6 21.873h-6.801a5.424 5.424 0 0 0 1.219-4.959l-1.556-6.072a.605.605 0 0 0-1.172.3l1.556 6.073a4.211 4.211 0 0 1-1.788 4.57l-3.222-4.036a3.299 3.299 0 0 0-2.591-1.247h-8.49a3.3 3.3 0 0 0-2.59 1.247l-3.223 4.036a4.211 4.211 0 0 1-1.788-4.57l1.975-7.709a3.924 3.924 0 0 1 2.426-2.7l1.66-.62c.385-.145.822-.05 1.112.24l1.656 1.656a2.2 2.2 0 0 0 1.566.649h2.901c.593 0 1.149-.23 1.567-.649l1.656-1.656c.29-.29.727-.385 1.112-.24l1.66.62a3.899 3.899 0 0 1 2.19 2.034.605.605 0 1 0 1.098-.505 5.1 5.1 0 0 0-2.864-2.662l-1.66-.62a2.266 2.266 0 0 0-2.19.341h-8.038a2.265 2.265 0 0 0-2.189-.341l-1.66.62a5.134 5.134 0 0 0-3.174 3.533l-1.975 7.708a5.423 5.423 0 0 0 1.218 4.96h-6.8c-.773 0-1.401.628-1.401 1.4v9.862c0 .772.628 1.4 1.4 1.4h2.456v.403a.605.605 0 0 0 1.21 0v-.403h29.869v.403a.605.605 0 0 0 1.209 0v-.403h2.455c.773 0 1.401-.628 1.401-1.4v-9.862c0-.772-.628-1.4-1.4-1.4ZM22.785 6.604l-.624.624a1 1 0 0 1-.711.295H18.55a1 1 0 0 1-.712-.295l-.624-.623h5.572Zm15.813 26.724H1.401a.192.192 0 0 1-.192-.191V27.72h19.228v.968H3.197a.605.605 0 0 0 0 1.209h17.328c.618 0 1.121-.503 1.121-1.12v-1.145c0-.618-.503-1.121-1.12-1.121H1.208v-3.238c0-.105.086-.191.192-.191h8.59l.019.001.021-.001h2.787a.605.605 0 0 0 0-1.21h-1.4l2.691-3.37a2.096 2.096 0 0 1 1.646-.791h8.49c.644 0 1.244.288 1.646.791l2.69 3.37H15.459a.605.605 0 0 0 0 1.21h14.511l.021.001.019-.001h8.59c.106 0 .192.086.192.192v9.86a.192.192 0 0 1-.192.192Z"/><path fill="#333" d="M13.709 7.214a2.047 2.047 0 0 0-2.045 2.045c0 1.127.917 2.044 2.045 2.044a2.047 2.047 0 0 0 2.045-2.044 2.047 2.047 0 0 0-2.045-2.045Zm0 2.88a.837.837 0 0 1 0-1.671.837.837 0 0 1 0 1.671ZM23.654 11.194a2.047 2.047 0 0 0-2.045 2.045c0 1.127.917 2.045 2.045 2.045a2.047 2.047 0 0 0 2.045-2.045 2.047 2.047 0 0 0-2.045-2.045Zm0 2.88a.837.837 0 0 1 0-1.67.837.837 0 0 1 0 1.67ZM26.565 8.588a.605.605 0 1 0 0-1.21.605.605 0 0 0 0 1.21ZM26.565 11.799a.605.605 0 1 0 0-1.21.605.605 0 0 0 0 1.21ZM24.838 10.218a.605.605 0 1 0 0-1.21.605.605 0 0 0 0 1.21ZM28.291 10.218a.605.605 0 1 0 0-1.21.605.605 0 0 0 0 1.21ZM18.338 12.634h-.835V11.8a.605.605 0 0 0-1.21 0v.835h-.835a.605.605 0 1 0 0 1.21h.835v.835a.605.605 0 0 0 1.21 0v-.835h.835a.605.605 0 0 0 0-1.21Z"/></svg>